<?xml version="1.0" encoding="UTF-8"?>
<svg xmlns="http://www.w3.org/2000/svg" viewBox="0 0 1122 794" width="1122" height="794">
<rect width="1122" height="794" fill="#f4f7f6"/>
<defs>
<marker id="arr" markerWidth="10" markerHeight="8" refX="9" refY="4" orient="auto"><polygon points="0,0 10,4 0,8" fill="#1a2332"/></marker>
</defs>
<text x="561.0" y="52.0" text-anchor="middle" font-family="Segoe UI, Arial, sans-serif" font-size="24" fill="#1a2332" font-weight="700">Name change promise</text>
<text x="561.0" y="82.0" text-anchor="middle" font-family="Segoe UI, Arial, sans-serif" font-size="13" fill="#4a5560">You told spouse you'd hyphenate or keep name per pre-nikah</text>
<rect x="421.0" y="120.0" width="280.0" height="52.0" rx="10.0" fill="#1a2332"/>
<text x="561.0" y="152.0" text-anchor="middle" font-family="Segoe UI, Arial, sans-serif" font-size="14" fill="#fff" font-weight="700">Name change promise</text>
<line x1="561.0" y1="172.0" x2="561.0" y2="210.0" stroke="#1a2332" stroke-width="3"/>
<circle cx="561.0" cy="340.0" r="58.0" fill="#b8860b"/>
<text x="561.0" y="345.0" text-anchor="middle" font-family="Segoe UI, Arial, sans-serif" font-size="28" fill="#fff" font-weight="700">?</text>
<text x="561.0" y="425.0" text-anchor="middle" font-family="Segoe UI, Arial, sans-serif" font-size="12" fill="#4a5560">covenant moment</text>
<line x1="561.0" y1="340.0" x2="341.0" y2="240.0" stroke="#0d6e6e" stroke-width="2"/>
<circle cx="341.0" cy="240.0" r="36.0" fill="#f4f7f6" stroke="#0d6e6e" stroke-width="2"/>
<circle cx="341.0" cy="240.0" r="32.0" fill="#0d6e6e"/>
<text x="341.0" y="246.0" text-anchor="middle" font-family="Segoe UI, Arial, sans-serif" font-size="22" fill="#fff" font-weight="700">A</text>
<line x1="561.0" y1="340.0" x2="781.0" y2="240.0" stroke="#0d6e6e" stroke-width="2"/>
<circle cx="781.0" cy="240.0" r="36.0" fill="#f4f7f6" stroke="#0d6e6e" stroke-width="2"/>
<circle cx="781.0" cy="240.0" r="32.0" fill="#0d6e6e"/>
<text x="781.0" y="246.0" text-anchor="middle" font-family="Segoe UI, Arial, sans-serif" font-size="22" fill="#fff" font-weight="700">B</text>
<line x1="561.0" y1="340.0" x2="341.0" y2="440.0" stroke="#0d6e6e" stroke-width="2"/>
<circle cx="341.0" cy="440.0" r="36.0" fill="#f4f7f6" stroke="#0d6e6e" stroke-width="2"/>
<circle cx="341.0" cy="440.0" r="32.0" fill="#0d6e6e"/>
<text x="341.0" y="446.0" text-anchor="middle" font-family="Segoe UI, Arial, sans-serif" font-size="22" fill="#fff" font-weight="700">C</text>
<line x1="561.0" y1="340.0" x2="781.0" y2="440.0" stroke="#0d6e6e" stroke-width="2"/>
<circle cx="781.0" cy="440.0" r="36.0" fill="#f4f7f6" stroke="#0d6e6e" stroke-width="2"/>
<circle cx="781.0" cy="440.0" r="32.0" fill="#0d6e6e"/>
<text x="781.0" y="446.0" text-anchor="middle" font-family="Segoe UI, Arial, sans-serif" font-size="22" fill="#fff" font-weight="700">D</text>
<text x="561.0" y="746.0" text-anchor="middle" font-family="Segoe UI, Arial, sans-serif" font-size="14" fill="#0d6e6e" font-weight="700">Select the faithful path</text>
<text x="561.0" y="768.0" text-anchor="middle" font-family="Segoe UI, Arial, sans-serif" font-size="11" fill="#4a5560">Marriage and Home  |  Q040</text>
</svg>
