<?xml version="1.0" encoding="UTF-8"?>
<svg xmlns="http://www.w3.org/2000/svg" viewBox="0 0 1122 794" width="1122" height="794">
<rect width="1122" height="794" fill="#f4f7f6"/>
<defs>
<marker id="arr" markerWidth="10" markerHeight="8" refX="9" refY="4" orient="auto"><polygon points="0,0 10,4 0,8" fill="#1a2332"/></marker>
</defs>
<text x="561.0" y="52.0" text-anchor="middle" font-family="Segoe UI, Arial, sans-serif" font-size="24" fill="#1a2332" font-weight="700">Delete messages evidence</text>
<text x="561.0" y="82.0" text-anchor="middle" font-family="Segoe UI, Arial, sans-serif" font-size="13" fill="#4a5560">You delete incriminating chat after promising friend you'd keep record</text>
<rect x="431.0" y="110.0" width="260.0" height="50.0" rx="10.0" fill="#1a2332"/>
<text x="561.0" y="142.0" text-anchor="middle" font-family="Segoe UI, Arial, sans-serif" font-size="14" fill="#fff" font-weight="700">Delete messages evidence</text>
<line x1="561.0" y1="160.0" x2="561.0" y2="200.0" stroke="#1a2332" stroke-width="3"/>
<line x1="220.0" y1="200.0" x2="900.0" y2="200.0" stroke="#1a2332" stroke-width="3"/>
<line x1="220.0" y1="200.0" x2="220.0" y2="240.0" stroke="#0d6e6e" stroke-width="3"/>
<line x1="900.0" y1="200.0" x2="900.0" y2="240.0" stroke="#0d6e6e" stroke-width="3"/>
<rect x="100.0" y="240.0" width="240.0" height="130.0" rx="10.0" fill="#f4f7f6" stroke="#0d6e6e" stroke-width="2"/>
<circle cx="220.0" cy="290.0" r="28.0" fill="#0d6e6e"/>
<text x="220.0" y="296.0" text-anchor="middle" font-family="Segoe UI, Arial, sans-serif" font-size="18" fill="#fff" font-weight="700">?</text>
<circle cx="160.0" cy="360.0" r="36.0" fill="#f4f7f6" stroke="#0d6e6e" stroke-width="2"/>
<circle cx="160.0" cy="360.0" r="32.0" fill="#0d6e6e"/>
<text x="160.0" y="366.0" text-anchor="middle" font-family="Segoe UI, Arial, sans-serif" font-size="22" fill="#fff" font-weight="700">A</text>
<circle cx="280.0" cy="360.0" r="36.0" fill="#f4f7f6" stroke="#0d6e6e" stroke-width="2"/>
<circle cx="280.0" cy="360.0" r="32.0" fill="#0d6e6e"/>
<text x="280.0" y="366.0" text-anchor="middle" font-family="Segoe UI, Arial, sans-serif" font-size="22" fill="#fff" font-weight="700">B</text>
<rect x="780.0" y="240.0" width="240.0" height="130.0" rx="10.0" fill="#f4f7f6" stroke="#0d6e6e" stroke-width="2"/>
<circle cx="900.0" cy="290.0" r="28.0" fill="#0d6e6e"/>
<text x="900.0" y="296.0" text-anchor="middle" font-family="Segoe UI, Arial, sans-serif" font-size="18" fill="#fff" font-weight="700">?</text>
<circle cx="840.0" cy="360.0" r="36.0" fill="#f4f7f6" stroke="#0d6e6e" stroke-width="2"/>
<circle cx="840.0" cy="360.0" r="32.0" fill="#0d6e6e"/>
<text x="840.0" y="366.0" text-anchor="middle" font-family="Segoe UI, Arial, sans-serif" font-size="22" fill="#fff" font-weight="700">C</text>
<circle cx="960.0" cy="360.0" r="36.0" fill="#f4f7f6" stroke="#0d6e6e" stroke-width="2"/>
<circle cx="960.0" cy="360.0" r="32.0" fill="#0d6e6e"/>
<text x="960.0" y="366.0" text-anchor="middle" font-family="Segoe UI, Arial, sans-serif" font-size="22" fill="#fff" font-weight="700">D</text>
<text x="561.0" y="430.0" text-anchor="middle" font-family="Segoe UI, Arial, sans-serif" font-size="12" fill="#4a5560">mithaq fork — choose faithfully</text>
<text x="561.0" y="746.0" text-anchor="middle" font-family="Segoe UI, Arial, sans-serif" font-size="14" fill="#0d6e6e" font-weight="700">Select the faithful path</text>
<text x="561.0" y="768.0" text-anchor="middle" font-family="Segoe UI, Arial, sans-serif" font-size="11" fill="#4a5560">Digital Life and Social  |  Q167</text>
</svg>
