<svg xmlns="http://www.w3.org/2000/svg" viewBox="0 0 800 620" width="800" height="620" font-family="Georgia, 'Noto Serif', serif">
<defs><marker id="ar" viewBox="0 0 10 10" refX="9" refY="5" markerWidth="7" markerHeight="7" orient="auto-start-reverse"><path d="M 0 0 L 10 5 L 0 10 z" fill="#2d2d2d"/></marker></defs>
<rect x="0" y="0" width="800" height="620" fill="#faf8f3"/>
<rect x="0" y="0" width="800" height="7" fill="#a45c40"/>
<text x="400" y="46" text-anchor="middle" font-size="11.0" font-weight="normal" fill="#777777">BUSINESS &amp; FINANCE</text>
<text x="400" y="78" text-anchor="middle" font-size="24.0" font-weight="bold" fill="#2d2d2d">Interest Charged on a Friend&#x27;s Loan</text>
<rect x="70" y="130" width="310" height="316" rx="14" fill="#ffffff" stroke="#a33b2a" stroke-width="2" opacity="0.95"/>
<text x="225" y="162" text-anchor="middle" font-size="15.0" font-weight="bold" fill="#a33b2a">✗  Interest loan</text>
<ellipse cx="225.0" cy="278.0" rx="40.0" ry="13.0" fill="#a33b2a" opacity="0.60"/><ellipse cx="225.0" cy="256.0" rx="40.0" ry="13.0" fill="#a33b2a" opacity="0.80"/><ellipse cx="225.0" cy="234.0" rx="40.0" ry="13.0" fill="#a33b2a" opacity="1.00"/>
<text x="225" y="336" text-anchor="middle" font-size="13.0" font-weight="normal" fill="#2d2d2d">Lender demands extra on</text>
<text x="225" y="353" text-anchor="middle" font-size="13.0" font-weight="normal" fill="#2d2d2d">repayment</text>
<text x="225" y="378" text-anchor="middle" font-size="11.5" font-weight="normal" fill="#777777">riba, forbidden</text>
<rect x="420" y="130" width="310" height="316" rx="14" fill="#ffffff" stroke="#2e6f40" stroke-width="2" opacity="0.95"/>
<text x="575" y="162" text-anchor="middle" font-size="15.0" font-weight="bold" fill="#2e6f40">✓  Qard hasan</text>
<path d="M 525.0 266.0 L 565.0 236.0 L 585.0 236.0 L 625.0 266.0 L 609.0 282.0 L 575.0 258.0 L 541.0 282.0 Z" fill="#2e6f40"/>
<text x="575" y="336" text-anchor="middle" font-size="13.0" font-weight="normal" fill="#2d2d2d">Same sum returned, no increase</text>
<text x="575" y="361" text-anchor="middle" font-size="11.5" font-weight="normal" fill="#777777">a goodly loan</text>
<line x1="400" y1="140" x2="400" y2="436" stroke="#c9c2b4" stroke-dasharray="5 5"/>
<line x1="90" y1="516" x2="710" y2="516" stroke="#c9c2b4" stroke-width="1"/>
<text x="400" y="540" text-anchor="middle" font-size="13.0" font-weight="normal" fill="#2d2d2d">A loan repaid with more than was lent is riba, however small or friendly the arrangement</text>
<text x="400" y="559" text-anchor="middle" font-size="13.0" font-weight="normal" fill="#2d2d2d">looks on paper.</text>
<text x="400" y="602" text-anchor="middle" font-size="12.0" font-weight="bold" fill="#a45c40">Q2:275</text>
</svg>
