<?xml version="1.0" encoding="UTF-8"?>
<svg xmlns="http://www.w3.org/2000/svg" viewBox="0 0 900 560" width="900" height="560">
<rect width="900" height="560" fill="#f4f7f6"/>
<text x="450" y="40" text-anchor="middle" font-family="Georgia, serif" font-size="26" fill="#1a2332" font-weight="700">Mithaq Paradigm Flow</text>
<text x="450" y="68" text-anchor="middle" font-family="Segoe UI, Arial, sans-serif" font-size="14" fill="#4a5560">One-sentence architecture of the Summa</text>
<rect x="70" y="110" width="120" height="80" rx="10" fill="#0d6e6e"/>
<text x="130" y="145" text-anchor="middle" font-family="Segoe UI, Arial, sans-serif" font-size="13" fill="#fff" font-weight="700">Creation</text>
<text x="130" y="168" text-anchor="middle" font-family="Segoe UI, Arial, sans-serif" font-size="12" fill="#d7f0ef">Lordship</text>
<polygon points="200,150 230,150 230,140 260,160 230,180 230,170 200,170" fill="#1a2332"/>
<rect x="270" y="110" width="120" height="80" rx="10" fill="#147a7a"/>
<text x="330" y="145" text-anchor="middle" font-family="Segoe UI, Arial, sans-serif" font-size="13" fill="#fff" font-weight="700">Alast</text>
<text x="330" y="168" text-anchor="middle" font-family="Segoe UI, Arial, sans-serif" font-size="12" fill="#d7f0ef">testimony</text>
<polygon points="400,150 430,150 430,140 460,160 430,180 430,170 400,170" fill="#1a2332"/>
<rect x="470" y="110" width="120" height="80" rx="10" fill="#b8860b"/>
<text x="530" y="145" text-anchor="middle" font-family="Segoe UI, Arial, sans-serif" font-size="13" fill="#fff" font-weight="700">Prophets</text>
<text x="530" y="168" text-anchor="middle" font-family="Segoe UI, Arial, sans-serif" font-size="12" fill="#fff8e7">specify</text>
<polygon points="600,150 630,150 630,140 660,160 630,180 630,170 600,170" fill="#1a2332"/>
<rect x="670" y="110" width="140" height="80" rx="10" fill="#5a6a75"/>
<text x="740" y="145" text-anchor="middle" font-family="Segoe UI, Arial, sans-serif" font-size="13" fill="#fff" font-weight="700">Sharia</text>
<text x="740" y="168" text-anchor="middle" font-family="Segoe UI, Arial, sans-serif" font-size="12" fill="#e8eef2">program</text>
<line x1="740" y1="190" x2="740" y2="250" stroke="#1a2332" stroke-width="3"/>
<line x1="200" y1="250" x2="740" y2="250" stroke="#1a2332" stroke-width="3"/>
<line x1="200" y1="250" x2="200" y2="280" stroke="#2d6a4f" stroke-width="3"/>
<line x1="450" y1="250" x2="450" y2="280" stroke="#b8860b" stroke-width="3"/>
<line x1="700" y1="250" x2="700" y2="280" stroke="#8b3a3a" stroke-width="3"/>
<rect x="110" y="280" width="180" height="70" rx="10" fill="#2d6a4f"/>
<text x="200" y="310" text-anchor="middle" font-family="Segoe UI, Arial, sans-serif" font-size="13" fill="#fff" font-weight="700">Social pacts</text>
<text x="200" y="332" text-anchor="middle" font-family="Segoe UI, Arial, sans-serif" font-size="11" fill="#d8f3e3">bayah / treaties</text>
<rect x="360" y="280" width="180" height="70" rx="10" fill="#b8860b"/>
<text x="450" y="310" text-anchor="middle" font-family="Segoe UI, Arial, sans-serif" font-size="13" fill="#fff" font-weight="700">Contracts</text>
<text x="450" y="332" text-anchor="middle" font-family="Segoe UI, Arial, sans-serif" font-size="11" fill="#fff8e7">uqud / marriage</text>
<rect x="610" y="280" width="180" height="70" rx="10" fill="#8b3a3a"/>
<text x="700" y="310" text-anchor="middle" font-family="Segoe UI, Arial, sans-serif" font-size="13" fill="#fff" font-weight="700">Judgment</text>
<text x="700" y="332" text-anchor="middle" font-family="Segoe UI, Arial, sans-serif" font-size="11" fill="#fde8e8">ahd questioned</text>
<rect x="100" y="400" width="700" height="70" rx="12" fill="#1a2332"/>
<text x="450" y="430" text-anchor="middle" font-family="Segoe UI, Arial, sans-serif" font-size="14" fill="#fff" font-weight="700">Allah binds / specifies / requires fidelity / judges</text>
<text x="450" y="455" text-anchor="middle" font-family="Segoe UI, Arial, sans-serif" font-size="12" fill="#d7f0ef">Namudhaj al-Mithaq - the Mithaq Paradigm</text>
</svg>
