<?xml version="1.0" encoding="UTF-8"?>
<svg xmlns="http://www.w3.org/2000/svg" viewBox="0 0 900 500" width="900" height="500">
<rect width="900" height="500" fill="#f4f7f6"/>
<text x="450" y="40" text-anchor="middle" font-family="Georgia, serif" font-size="26" fill="#1a2332" font-weight="700">Confirming Messenger Compact</text>
<text x="450" y="68" text-anchor="middle" font-family="Segoe UI, Arial, sans-serif" font-size="14" fill="#4a5560">Q 3:81 - continuity under covenant</text>
<rect x="80" y="120" width="200" height="90" rx="10" fill="#0d6e6e"/>
<text x="180" y="155" text-anchor="middle" font-family="Segoe UI, Arial, sans-serif" font-size="14" fill="#fff" font-weight="700">Earlier prophets</text>
<text x="180" y="180" text-anchor="middle" font-family="Segoe UI, Arial, sans-serif" font-size="12" fill="#d7f0ef">Book + hikmah</text>
<text x="180" y="198" text-anchor="middle" font-family="Segoe UI, Arial, sans-serif" font-size="12" fill="#d7f0ef">given</text>
<polygon points="300,165 340,165 340,155 380,175 340,195 340,185 300,185" fill="#b8860b"/>
<rect x="390" y="120" width="220" height="90" rx="10" fill="#b8860b"/>
<text x="500" y="155" text-anchor="middle" font-family="Segoe UI, Arial, sans-serif" font-size="14" fill="#fff" font-weight="700">Confirming messenger</text>
<text x="500" y="180" text-anchor="middle" font-family="Segoe UI, Arial, sans-serif" font-size="12" fill="#fff8e7">comes</text>
<text x="500" y="198" text-anchor="middle" font-family="Segoe UI, Arial, sans-serif" font-size="12" fill="#fff8e7">musaddiq</text>
<polygon points="630,165 670,165 670,155 710,175 670,195 670,185 630,185" fill="#2d6a4f"/>
<rect x="720" y="120" width="140" height="90" rx="10" fill="#2d6a4f"/>
<text x="790" y="160" text-anchor="middle" font-family="Segoe UI, Arial, sans-serif" font-size="14" fill="#fff" font-weight="700">Believe</text>
<text x="790" y="185" text-anchor="middle" font-family="Segoe UI, Arial, sans-serif" font-size="14" fill="#fff" font-weight="700">and support</text>
<rect x="150" y="280" width="600" height="140" rx="12" fill="#fff" stroke="#1a2332" stroke-width="2"/>
<text x="450" y="320" text-anchor="middle" font-family="Segoe UI, Arial, sans-serif" font-size="16" fill="#1a2332" font-weight="700">Taken isr - affirmation - Allah witnesses</text>
<text x="450" y="355" text-anchor="middle" font-family="Segoe UI, Arial, sans-serif" font-size="14" fill="#4a5560">Continuity, not chaos: revelation confirms revelation</text>
<text x="450" y="385" text-anchor="middle" font-family="Segoe UI, Arial, sans-serif" font-size="13" fill="#8b3a3a">Casuistry details nuanced (C4) | Principle: clear</text>
</svg>
