<?xml version="1.0" encoding="UTF-8"?>
<svg xmlns="http://www.w3.org/2000/svg" viewBox="0 0 900 480" width="900" height="480">
<rect width="900" height="480" fill="#f4f7f6"/>
<text x="450" y="40" text-anchor="middle" font-family="Georgia, serif" font-size="26" fill="#1a2332" font-weight="700">Sharia as Covenantal Program</text>
<text x="450" y="68" text-anchor="middle" font-family="Segoe UI, Arial, sans-serif" font-size="14" fill="#4a5560">Alast specified - not replaced</text>
<rect x="40" y="120" width="150" height="70" rx="10" fill="#0d6e6e"/>
<text x="115" y="150" text-anchor="middle" font-family="Segoe UI, Arial, sans-serif" font-size="13" fill="#fff" font-weight="700">Alast</text>
<text x="115" y="172" text-anchor="middle" font-family="Segoe UI, Arial, sans-serif" font-size="11" fill="#d7f0ef">lordship yes</text>
<polygon points="200,155 230,155 230,145 260,165 230,185 230,175 200,175" fill="#1a2332"/>
<rect x="270" y="120" width="150" height="70" rx="10" fill="#147a7a"/>
<text x="345" y="150" text-anchor="middle" font-family="Segoe UI, Arial, sans-serif" font-size="13" fill="#fff" font-weight="700">Prophets</text>
<text x="345" y="172" text-anchor="middle" font-family="Segoe UI, Arial, sans-serif" font-size="11" fill="#d7f0ef">convey path</text>
<polygon points="430,155 460,155 460,145 490,165 460,185 460,175 430,175" fill="#1a2332"/>
<rect x="500" y="120" width="150" height="70" rx="10" fill="#b8860b"/>
<text x="575" y="150" text-anchor="middle" font-family="Segoe UI, Arial, sans-serif" font-size="13" fill="#fff" font-weight="700">Sharia</text>
<text x="575" y="172" text-anchor="middle" font-family="Segoe UI, Arial, sans-serif" font-size="11" fill="#fff8e7">detailed program</text>
<polygon points="660,155 690,155 690,145 720,165 690,185 690,175 660,175" fill="#1a2332"/>
<rect x="730" y="120" width="130" height="70" rx="10" fill="#2d6a4f"/>
<text x="795" y="150" text-anchor="middle" font-family="Segoe UI, Arial, sans-serif" font-size="13" fill="#fff" font-weight="700">Lived</text>
<text x="795" y="172" text-anchor="middle" font-family="Segoe UI, Arial, sans-serif" font-size="11" fill="#d8f3e3">fidelity</text>
<rect x="80" y="240" width="340" height="160" rx="12" fill="#fff" stroke="#2d6a4f" stroke-width="3"/>
<text x="250" y="280" text-anchor="middle" font-family="Segoe UI, Arial, sans-serif" font-size="15" fill="#2d6a4f" font-weight="700">Program includes</text>
<text x="250" y="315" text-anchor="middle" font-family="Segoe UI, Arial, sans-serif" font-size="13" fill="#1a2332">Worship / social ethics</text>
<text x="250" y="345" text-anchor="middle" font-family="Segoe UI, Arial, sans-serif" font-size="13" fill="#1a2332">uqud / oaths</text>
<text x="250" y="375" text-anchor="middle" font-family="Segoe UI, Arial, sans-serif" font-size="13" fill="#1a2332">Q 6:152-153 / Q 5:1</text>
<rect x="480" y="240" width="340" height="160" rx="12" fill="#fff" stroke="#8b3a3a" stroke-width="3"/>
<text x="650" y="280" text-anchor="middle" font-family="Segoe UI, Arial, sans-serif" font-size="15" fill="#8b3a3a" font-weight="700">Anti-program</text>
<text x="650" y="315" text-anchor="middle" font-family="Segoe UI, Arial, sans-serif" font-size="13" fill="#1a2332">Sell Allah's ahd</text>
<text x="650" y="345" text-anchor="middle" font-family="Segoe UI, Arial, sans-serif" font-size="13" fill="#1a2332">for a small price</text>
<text x="650" y="375" text-anchor="middle" font-family="Segoe UI, Arial, sans-serif" font-size="13" fill="#1a2332">Q 3:77 / Q 16:95</text>
</svg>
