<?xml version="1.0" encoding="UTF-8"?>
<svg xmlns="http://www.w3.org/2000/svg" viewBox="0 0 900 420" width="900" height="420">
<rect width="900" height="420" fill="#f4f7f6"/>
<text x="450" y="40" text-anchor="middle" font-family="Georgia, serif" font-size="26" fill="#1a2332" font-weight="700">Bayah Elevation</text>
<text x="450" y="68" text-anchor="middle" font-family="Segoe UI, Arial, sans-serif" font-size="14" fill="#4a5560">Q 48:10 - simplified</text>
<rect x="60" y="140" width="200" height="80" rx="12" fill="#fff" stroke="#0d6e6e" stroke-width="3"/>
<text x="160" y="175" text-anchor="middle" font-family="Segoe UI, Arial, sans-serif" font-size="15" fill="#1a2332" font-weight="700">Believer</text>
<text x="160" y="200" text-anchor="middle" font-family="Segoe UI, Arial, sans-serif" font-size="12" fill="#4a5560">pledges bayah</text>
<polygon points="280,180 320,180 320,170 360,190 320,210 320,200 280,200" fill="#b8860b"/>
<rect x="370" y="140" width="200" height="80" rx="12" fill="#b8860b"/>
<text x="470" y="175" text-anchor="middle" font-family="Segoe UI, Arial, sans-serif" font-size="15" fill="#fff" font-weight="700">Prophet</text>
<text x="470" y="200" text-anchor="middle" font-family="Segoe UI, Arial, sans-serif" font-size="12" fill="#fff8e7">receives bayah</text>
<polygon points="590,180 630,180 630,170 670,190 630,210 630,200 590,200" fill="#0d6e6e"/>
<rect x="680" y="140" width="160" height="80" rx="12" fill="#0d6e6e"/>
<text x="760" y="175" text-anchor="middle" font-family="Segoe UI, Arial, sans-serif" font-size="15" fill="#fff" font-weight="700">Allah</text>
<text x="760" y="200" text-anchor="middle" font-family="Segoe UI, Arial, sans-serif" font-size="12" fill="#d7f0ef">bayah to Him</text>
<rect x="120" y="280" width="660" height="90" rx="12" fill="#fff" stroke="#1a2332" stroke-width="2"/>
<text x="450" y="315" text-anchor="middle" font-family="Segoe UI, Arial, sans-serif" font-size="15" fill="#1a2332" font-weight="700">Hand of Allah is over their hands</text>
<text x="450" y="345" text-anchor="middle" font-family="Segoe UI, Arial, sans-serif" font-size="13" fill="#4a5560">Fulfill = great reward | Break = against yourself</text>
</svg>
