<svg xmlns="http://www.w3.org/2000/svg" viewBox="0 0 800 620" width="800" height="620" font-family="Georgia, 'Noto Serif', serif">
<defs><marker id="ar" viewBox="0 0 10 10" refX="9" refY="5" markerWidth="7" markerHeight="7" orient="auto-start-reverse"><path d="M 0 0 L 10 5 L 0 10 z" fill="#2d2d2d"/></marker></defs>
<rect x="0" y="0" width="800" height="620" fill="#faf8f3"/>
<rect x="0" y="0" width="800" height="7" fill="#4a4a68"/>
<text x="400" y="46" text-anchor="middle" font-size="11.0" font-weight="normal" fill="#777777">CIVIC LIFE &amp; LAW</text>
<text x="400" y="78" text-anchor="middle" font-size="24.0" font-weight="bold" fill="#2d2d2d">The Manifesto You Signed and Forgot</text>
<rect x="70" y="130" width="310" height="316" rx="14" fill="#ffffff" stroke="#a33b2a" stroke-width="2" opacity="0.95"/>
<text x="225" y="162" text-anchor="middle" font-size="15.0" font-weight="bold" fill="#a33b2a">✗  Broken pledge</text>
<rect x="193.0" y="208.0" width="64.0" height="88.0" rx="5.0" fill="#a33b2a"/><rect x="205.0" y="224.0" width="40.0" height="5.0" fill="#ffffff" opacity="0.85"/><rect x="205.0" y="241.0" width="40.0" height="5.0" fill="#ffffff" opacity="0.85"/><rect x="205.0" y="258.0" width="40.0" height="5.0" fill="#ffffff" opacity="0.85"/><rect x="205.0" y="275.0" width="40.0" height="5.0" fill="#ffffff" opacity="0.85"/>
<text x="225" y="336" text-anchor="middle" font-size="13.0" font-weight="normal" fill="#2d2d2d">Promises dropped once in</text>
<text x="225" y="353" text-anchor="middle" font-size="13.0" font-weight="normal" fill="#2d2d2d">office</text>
<text x="225" y="378" text-anchor="middle" font-size="11.5" font-weight="normal" fill="#777777">khiyanah to voters</text>
<rect x="420" y="130" width="310" height="316" rx="14" fill="#ffffff" stroke="#2e6f40" stroke-width="2" opacity="0.95"/>
<text x="575" y="162" text-anchor="middle" font-size="15.0" font-weight="bold" fill="#2e6f40">✓  Kept pledge</text>
<rect x="543.0" y="208.0" width="64.0" height="88.0" rx="5.0" fill="#2e6f40"/><rect x="555.0" y="224.0" width="40.0" height="5.0" fill="#ffffff" opacity="0.85"/><rect x="555.0" y="241.0" width="40.0" height="5.0" fill="#ffffff" opacity="0.85"/><rect x="555.0" y="258.0" width="40.0" height="5.0" fill="#ffffff" opacity="0.85"/><rect x="555.0" y="275.0" width="40.0" height="5.0" fill="#ffffff" opacity="0.85"/>
<text x="575" y="336" text-anchor="middle" font-size="13.0" font-weight="normal" fill="#2d2d2d">Manifesto honored in office</text>
<text x="575" y="361" text-anchor="middle" font-size="11.5" font-weight="normal" fill="#777777">ahd fulfilled</text>
<line x1="400" y1="140" x2="400" y2="436" stroke="#c9c2b4" stroke-dasharray="5 5"/>
<line x1="90" y1="516" x2="710" y2="516" stroke="#c9c2b4" stroke-width="1"/>
<text x="400" y="540" text-anchor="middle" font-size="13.0" font-weight="normal" fill="#2d2d2d">A campaign promise is a covenant with the electorate; abandoning it once elected is the</text>
<text x="400" y="559" text-anchor="middle" font-size="13.0" font-weight="normal" fill="#2d2d2d">same breach as any broken pledge.</text>
<text x="400" y="602" text-anchor="middle" font-size="12.0" font-weight="bold" fill="#4a4a68">Q17:34</text>
</svg>
