<svg xmlns="http://www.w3.org/2000/svg" viewBox="0 0 800 620" width="800" height="620" font-family="Georgia, 'Noto Serif', serif">
<defs><marker id="ar" viewBox="0 0 10 10" refX="9" refY="5" markerWidth="7" markerHeight="7" orient="auto-start-reverse"><path d="M 0 0 L 10 5 L 0 10 z" fill="#2d2d2d"/></marker></defs>
<rect x="0" y="0" width="800" height="620" fill="#faf8f3"/>
<rect x="0" y="0" width="800" height="7" fill="#a45c40"/>
<text x="400" y="46" text-anchor="middle" font-size="11.0" font-weight="normal" fill="#777777">CONFLICT &amp; RECONCILIATION</text>
<text x="400" y="78" text-anchor="middle" font-size="24.0" font-weight="bold" fill="#2d2d2d">The Feud That Split a Family Table</text>
<line x1="400.0" y1="216.0" x2="400.0" y2="180.0" stroke="#a45c40" stroke-width="2" opacity="0.6"/>
<circle cx="400.0" cy="140.0" r="38" fill="#ffffff" stroke="#a45c40" stroke-width="2"/>
<circle cx="400.0" cy="126.6" r="6.2" fill="#a45c40"/><path d="M 388.8 152.2 a 11.2 14.4 0 0 1 22.5 0 Z" fill="#a45c40"/><g opacity="0.55"><circle cx="379.2" cy="130.5" r="5.3" fill="#a45c40"/><path d="M 369.7 152.1 a 9.5 12.1 0 0 1 19.0 0 Z" fill="#a45c40"/></g><g opacity="0.55"><circle cx="420.8" cy="130.5" r="5.3" fill="#a45c40"/><path d="M 411.3 152.1 a 9.5 12.1 0 0 1 19.0 0 Z" fill="#a45c40"/></g>
<text x="400" y="196" text-anchor="middle" font-size="12.0" font-weight="normal" fill="#2d2d2d">Children caught</text>
<text x="400" y="210" text-anchor="middle" font-size="12.0" font-weight="normal" fill="#2d2d2d">between</text>
<line x1="466.0" y1="282.0" x2="502.0" y2="282.0" stroke="#a45c40" stroke-width="2" opacity="0.6"/>
<circle cx="542.0" cy="282.0" r="38" fill="#ffffff" stroke="#a45c40" stroke-width="2"/>
<path d="M 522.0 278.0 L 542.0 260.0 L 562.0 278.0 Z" fill="#a45c40"/><rect x="527.6" y="278.0" width="28.8" height="18.4" fill="#a45c40" opacity="0.85"/>
<text x="542" y="338" text-anchor="middle" font-size="12.0" font-weight="normal" fill="#2d2d2d">Shared home</text>
<text x="542" y="352" text-anchor="middle" font-size="12.0" font-weight="normal" fill="#2d2d2d">divided</text>
<line x1="400.0" y1="348.0" x2="400.0" y2="384.0" stroke="#a45c40" stroke-width="2" opacity="0.6"/>
<circle cx="400.0" cy="424.0" r="38" fill="#ffffff" stroke="#a45c40" stroke-width="2"/>
<circle cx="400.0" cy="408.0" r="8.0" fill="#a45c40"/><path d="M 385.6 440.8 a 14.4 18.4 0 0 1 28.8 0 Z" fill="#a45c40"/>
<text x="400" y="480" text-anchor="middle" font-size="12.0" font-weight="normal" fill="#2d2d2d">Ties severed</text>
<line x1="334.0" y1="282.0" x2="298.0" y2="282.0" stroke="#a45c40" stroke-width="2" opacity="0.6"/>
<circle cx="258.0" cy="282.0" r="38" fill="#ffffff" stroke="#a45c40" stroke-width="2"/>
<path d="M 258.0 294.0 C 233.2 278.8 243.6 260.4 258.0 272.4 C 272.4 260.4 282.8 278.8 258.0 294.0 Z" fill="#a45c40"/>
<text x="258" y="338" text-anchor="middle" font-size="12.0" font-weight="normal" fill="#2d2d2d">Community strained</text>
<circle cx="400" cy="282" r="62" fill="#a45c40"/>
<text x="400" y="284" text-anchor="middle" font-size="14.0" font-weight="bold" fill="#faf8f3">Feud between</text>
<text x="400" y="300" text-anchor="middle" font-size="14.0" font-weight="bold" fill="#faf8f3">kin</text>
<line x1="90" y1="516" x2="710" y2="516" stroke="#c9c2b4" stroke-width="1"/>
<text x="400" y="540" text-anchor="middle" font-size="13.0" font-weight="normal" fill="#2d2d2d">A feud between kin does not stay contained — it reaches the children, the shared</text>
<text x="400" y="559" text-anchor="middle" font-size="13.0" font-weight="normal" fill="#2d2d2d">property, and every gathering that follows.</text>
<text x="400" y="602" text-anchor="middle" font-size="12.0" font-weight="bold" fill="#a45c40">Q47:22</text>
</svg>
