<svg xmlns="http://www.w3.org/2000/svg" viewBox="0 0 800 620" width="800" height="620" font-family="Georgia, 'Noto Serif', serif">
<defs><marker id="ar" viewBox="0 0 10 10" refX="9" refY="5" markerWidth="7" markerHeight="7" orient="auto-start-reverse"><path d="M 0 0 L 10 5 L 0 10 z" fill="#2d2d2d"/></marker></defs>
<rect x="0" y="0" width="800" height="620" fill="#faf8f3"/>
<rect x="0" y="0" width="800" height="7" fill="#a45c40"/>
<text x="400" y="46" text-anchor="middle" font-size="11.0" font-weight="normal" fill="#777777">CONFLICT &amp; RECONCILIATION</text>
<text x="400" y="78" text-anchor="middle" font-size="24.0" font-weight="bold" fill="#2d2d2d">Two Believers Fighting Over Land</text>
<rect x="81" y="200" width="140" height="150" rx="12" fill="#a45c40" opacity="0.55"/>
<circle cx="151.0" cy="235.5" r="9.7" fill="#faf8f3"/><path d="M 133.6 275.1 a 17.4 22.2 0 0 1 34.8 0 Z" fill="#faf8f3"/><g opacity="0.55"><circle cx="118.8" cy="241.4" r="8.2" fill="#faf8f3"/><path d="M 104.0 275.0 a 14.7 18.8 0 0 1 29.5 0 Z" fill="#faf8f3"/></g><g opacity="0.55"><circle cx="183.2" cy="241.4" r="8.2" fill="#faf8f3"/><path d="M 168.5 275.0 a 14.7 18.8 0 0 1 29.5 0 Z" fill="#faf8f3"/></g>
<text x="151" y="302" text-anchor="middle" font-size="12.5" font-weight="bold" fill="#faf8f3">Dispute flares</text>
<line x1="225" y1="275" x2="241" y2="275" stroke="#2d2d2d" stroke-width="2" marker-end="url(#ar)"/>
<rect x="247" y="200" width="140" height="150" rx="12" fill="#a45c40" opacity="0.70"/>
<path d="M 286.0 258.7 L 310.8 240.1 L 323.2 240.1 L 348.0 258.7 L 338.1 268.6 L 317.0 253.7 L 295.9 268.6 Z" fill="#faf8f3"/>
<text x="317" y="302" text-anchor="middle" font-size="12.5" font-weight="bold" fill="#faf8f3">Others step in</text>
<line x1="391" y1="275" x2="407" y2="275" stroke="#2d2d2d" stroke-width="2" marker-end="url(#ar)"/>
<rect x="413" y="200" width="140" height="150" rx="12" fill="#a45c40" opacity="0.85"/>
<line x1="483.0" y1="222.7" x2="483.0" y2="274.8" stroke="#faf8f3" stroke-width="3.7"/><line x1="455.7" y1="228.9" x2="510.3" y2="228.9" stroke="#faf8f3" stroke-width="3.7"/><path d="M 444.6 243.8 L 466.9 243.8 L 455.7 258.7 Z" fill="#faf8f3"/><path d="M 499.1 243.8 L 521.4 243.8 L 510.3 258.7 Z" fill="#faf8f3"/><rect x="468.1" y="274.8" width="29.8" height="5.0" fill="#faf8f3"/>
<text x="483" y="302" text-anchor="middle" font-size="12.5" font-weight="bold" fill="#faf8f3">Judge with</text>
<text x="483" y="317" text-anchor="middle" font-size="12.5" font-weight="bold" fill="#faf8f3">fairness</text>
<line x1="557" y1="275" x2="573" y2="275" stroke="#2d2d2d" stroke-width="2" marker-end="url(#ar)"/>
<rect x="579" y="200" width="140" height="150" rx="12" fill="#a45c40" opacity="1.00"/>
<path d="M 649.0 274.8 C 610.6 251.2 626.7 222.7 649.0 241.3 C 671.3 222.7 687.4 251.2 649.0 274.8 Z" fill="#faf8f3"/>
<text x="649" y="302" text-anchor="middle" font-size="12.5" font-weight="bold" fill="#faf8f3">Peace restored</text>
<text x="400" y="392" text-anchor="middle" font-size="12.5" font-weight="normal" fill="#777777">aslihu baynahuma bil-adl — mediate with justice</text>
<line x1="90" y1="516" x2="710" y2="516" stroke="#c9c2b4" stroke-width="1"/>
<text x="400" y="540" text-anchor="middle" font-size="13.0" font-weight="normal" fill="#2d2d2d">When two factions of believers fight, the community&#x27;s duty is to make peace between them</text>
<text x="400" y="559" text-anchor="middle" font-size="13.0" font-weight="normal" fill="#2d2d2d">with justice, not to pick a side and walk away.</text>
<text x="400" y="602" text-anchor="middle" font-size="12.0" font-weight="bold" fill="#a45c40">Q49:9</text>
</svg>
