<svg xmlns="http://www.w3.org/2000/svg" viewBox="0 0 800 620" width="800" height="620" font-family="Georgia, 'Noto Serif', serif">
<defs><marker id="ar" viewBox="0 0 10 10" refX="9" refY="5" markerWidth="7" markerHeight="7" orient="auto-start-reverse"><path d="M 0 0 L 10 5 L 0 10 z" fill="#2d2d2d"/></marker></defs>
<rect x="0" y="0" width="800" height="620" fill="#faf8f3"/>
<rect x="0" y="0" width="800" height="7" fill="#a45c40"/>
<text x="400" y="46" text-anchor="middle" font-size="11.0" font-weight="normal" fill="#777777">COMMUNITY &amp; ENVIRONMENT</text>
<text x="400" y="78" text-anchor="middle" font-size="24.0" font-weight="bold" fill="#2d2d2d">The Pot That Always Makes Extra</text>
<line x1="400.0" y1="216.0" x2="400.0" y2="180.0" stroke="#a45c40" stroke-width="2" opacity="0.6"/>
<circle cx="400.0" cy="140.0" r="38" fill="#ffffff" stroke="#a45c40" stroke-width="2"/>
<path d="M 380.0 136.0 L 400.0 118.0 L 420.0 136.0 Z" fill="#a45c40"/><rect x="385.6" y="136.0" width="28.8" height="18.4" fill="#a45c40" opacity="0.85"/>
<text x="400" y="196" text-anchor="middle" font-size="12.0" font-weight="normal" fill="#2d2d2d">Neighbour next</text>
<text x="400" y="210" text-anchor="middle" font-size="12.0" font-weight="normal" fill="#2d2d2d">door</text>
<line x1="457.2" y1="315.0" x2="488.3" y2="333.0" stroke="#a45c40" stroke-width="2" opacity="0.6"/>
<circle cx="523.0" cy="353.0" r="38" fill="#ffffff" stroke="#a45c40" stroke-width="2"/>
<path d="M 523.0 365.0 C 498.2 349.8 508.6 331.4 523.0 343.4 C 537.4 331.4 547.8 349.8 523.0 365.0 Z" fill="#a45c40"/>
<text x="523" y="409" text-anchor="middle" font-size="12.0" font-weight="normal" fill="#2d2d2d">Widow down the</text>
<text x="523" y="423" text-anchor="middle" font-size="12.0" font-weight="normal" fill="#2d2d2d">street</text>
<line x1="342.8" y1="315.0" x2="311.7" y2="333.0" stroke="#a45c40" stroke-width="2" opacity="0.6"/>
<circle cx="277.0" cy="353.0" r="38" fill="#ffffff" stroke="#a45c40" stroke-width="2"/>
<circle cx="277.0" cy="339.6" r="6.2" fill="#a45c40"/><path d="M 265.8 365.2 a 11.2 14.4 0 0 1 22.5 0 Z" fill="#a45c40"/><g opacity="0.55"><circle cx="256.2" cy="343.5" r="5.3" fill="#a45c40"/><path d="M 246.7 365.1 a 9.5 12.1 0 0 1 19.0 0 Z" fill="#a45c40"/></g><g opacity="0.55"><circle cx="297.8" cy="343.5" r="5.3" fill="#a45c40"/><path d="M 288.3 365.1 a 9.5 12.1 0 0 1 19.0 0 Z" fill="#a45c40"/></g>
<text x="277" y="409" text-anchor="middle" font-size="12.0" font-weight="normal" fill="#2d2d2d">New family nearby</text>
<circle cx="400" cy="282" r="62" fill="#a45c40"/>
<text x="400" y="284" text-anchor="middle" font-size="14.0" font-weight="bold" fill="#faf8f3">Extra portion</text>
<text x="400" y="300" text-anchor="middle" font-size="14.0" font-weight="bold" fill="#faf8f3">cooked</text>
<line x1="90" y1="516" x2="710" y2="516" stroke="#c9c2b4" stroke-width="1"/>
<text x="400" y="540" text-anchor="middle" font-size="13.0" font-weight="normal" fill="#2d2d2d">Cooking a little more so the smell does not torment a hungry neighbour turns an ordinary</text>
<text x="400" y="559" text-anchor="middle" font-size="13.0" font-weight="normal" fill="#2d2d2d">meal into a covenantal act of neighbourliness.</text>
<text x="400" y="602" text-anchor="middle" font-size="12.0" font-weight="bold" fill="#a45c40">Muslim — cook more broth and give some to your neighbour</text>
</svg>
