<svg xmlns="http://www.w3.org/2000/svg" viewBox="0 0 800 620" width="800" height="620" font-family="Georgia, 'Noto Serif', serif">
<defs><marker id="ar" viewBox="0 0 10 10" refX="9" refY="5" markerWidth="7" markerHeight="7" orient="auto-start-reverse"><path d="M 0 0 L 10 5 L 0 10 z" fill="#2d2d2d"/></marker></defs>
<rect x="0" y="0" width="800" height="620" fill="#faf8f3"/>
<rect x="0" y="0" width="800" height="7" fill="#4a4a68"/>
<text x="400" y="46" text-anchor="middle" font-size="11.0" font-weight="normal" fill="#777777">COMMUNITY &amp; ENVIRONMENT</text>
<text x="400" y="78" text-anchor="middle" font-size="24.0" font-weight="bold" fill="#2d2d2d">Deciding the New Mosque Extension by One</text>
<text x="400" y="106" text-anchor="middle" font-size="24.0" font-weight="bold" fill="#2d2d2d">Man&#x27;s Word</text>
<rect x="93.2" y="228.2" width="73.6" height="73.6" fill="#4a4a68"/><rect x="104.2" y="239.2" width="10.1" height="10.1" fill="#faf8f3" opacity="0.8"/><rect x="124.5" y="239.2" width="10.1" height="10.1" fill="#faf8f3" opacity="0.8"/><rect x="144.7" y="239.2" width="10.1" height="10.1" fill="#faf8f3" opacity="0.8"/><rect x="104.2" y="259.5" width="10.1" height="10.1" fill="#faf8f3" opacity="0.8"/><rect x="124.5" y="259.5" width="10.1" height="10.1" fill="#faf8f3" opacity="0.8"/><rect x="144.7" y="259.5" width="10.1" height="10.1" fill="#faf8f3" opacity="0.8"/><rect x="104.2" y="279.7" width="10.1" height="10.1" fill="#faf8f3" opacity="0.8"/><rect x="124.5" y="279.7" width="10.1" height="10.1" fill="#faf8f3" opacity="0.8"/><rect x="144.7" y="279.7" width="10.1" height="10.1" fill="#faf8f3" opacity="0.8"/>
<text x="130" y="332" text-anchor="middle" font-size="12.5" font-weight="normal" fill="#2d2d2d">Extension proposed</text>
<line x1="180" y1="265" x2="298" y2="265" stroke="#2d2d2d" stroke-width="2" marker-end="url(#ar)"/>
<path d="M 400 179 L 486 265 L 400 351 L 314 265 Z" fill="#ffffff" stroke="#4a4a68" stroke-width="2.5"/>
<text x="400" y="254" text-anchor="middle" font-size="12.5" font-weight="bold" fill="#4a4a68">Was the</text>
<text x="400" y="269" text-anchor="middle" font-size="12.5" font-weight="bold" fill="#4a4a68">community</text>
<text x="400" y="284" text-anchor="middle" font-size="12.5" font-weight="bold" fill="#4a4a68">consulted?</text>
<line x1="492" y1="236" x2="596" y2="210" stroke="#2e6f40" stroke-width="2" marker-end="url(#ar)"/>
<rect x="600" y="180" width="150" height="62" rx="10" fill="#2e6f40" opacity="0.9"/>
<text x="675" y="204" text-anchor="middle" font-size="12.0" font-weight="bold" fill="#faf8f3">Shura honoured</text>
<text x="675" y="172" text-anchor="middle" font-size="10.5" font-weight="normal" fill="#777777">yes</text>
<line x1="492" y1="296" x2="596" y2="352" stroke="#a33b2a" stroke-width="2" marker-end="url(#ar)"/>
<rect x="600" y="322" width="150" height="62" rx="10" fill="#a33b2a" opacity="0.9"/>
<text x="675" y="346" text-anchor="middle" font-size="12.0" font-weight="bold" fill="#faf8f3">Decision imposed</text>
<text x="675" y="314" text-anchor="middle" font-size="10.5" font-weight="normal" fill="#777777">no</text>
<line x1="90" y1="516" x2="710" y2="516" stroke="#c9c2b4" stroke-width="1"/>
<text x="400" y="540" text-anchor="middle" font-size="13.0" font-weight="normal" fill="#2d2d2d">A major communal decision settled by one dominant voice, bypassing the congregation&#x27;s</text>
<text x="400" y="559" text-anchor="middle" font-size="13.0" font-weight="normal" fill="#2d2d2d">consultation, breaks the shura the community is owed.</text>
<text x="400" y="602" text-anchor="middle" font-size="12.0" font-weight="bold" fill="#4a4a68">Q42:38 — their affair is by mutual consultation</text>
</svg>
