<?xml version="1.0" encoding="UTF-8"?>
<svg xmlns="http://www.w3.org/2000/svg" viewBox="0 0 1000 700" width="1000" height="700">
<rect width="1000" height="700" fill="#f4f7f6"/>
<text x="500" y="95" text-anchor="middle" font-family="Segoe UI, Arial, sans-serif" font-size="28" fill="#1a2332" font-weight="700">Siyar Framework</text><text x="500" y="125" text-anchor="middle" font-family="Segoe UI, Arial, sans-serif" font-size="15" fill="#4a5560">Conduct of relations - tagged fiqh.</text><rect x="220" y="216" width="560" height="72" rx="12" fill="#ffffff" stroke="#0d6e6e" stroke-width="3"/>
<text x="500" y="243.36" text-anchor="middle" font-family="Segoe UI, Arial, sans-serif" font-size="17" fill="#1a2332" font-weight="700">Peace</text>
<text x="500" y="267.84" text-anchor="middle" font-family="Segoe UI, Arial, sans-serif" font-size="13" fill="#4a5560">Treaty preferred</text>
<polygon points="500,302 490,288 510,288" fill="#1a2332"/>
<rect x="220" y="306" width="560" height="72" rx="12" fill="#ffffff" stroke="#0d6e6e" stroke-width="3"/>
<text x="500" y="333.36" text-anchor="middle" font-family="Segoe UI, Arial, sans-serif" font-size="17" fill="#1a2332" font-weight="700">Just war</text>
<text x="500" y="357.84" text-anchor="middle" font-family="Segoe UI, Arial, sans-serif" font-size="13" fill="#4a5560">Tagged rules</text>
<polygon points="500,392 490,378 510,378" fill="#1a2332"/>
<rect x="220" y="396" width="560" height="72" rx="12" fill="#ffffff" stroke="#0d6e6e" stroke-width="3"/>
<text x="500" y="423.36" text-anchor="middle" font-family="Segoe UI, Arial, sans-serif" font-size="17" fill="#1a2332" font-weight="700">Muahid</text>
<text x="500" y="447.84" text-anchor="middle" font-family="Segoe UI, Arial, sans-serif" font-size="13" fill="#4a5560">Sacred trust</text>
<polygon points="500,482 490,468 510,468" fill="#1a2332"/>
<rect x="220" y="486" width="560" height="72" rx="12" fill="#ffffff" stroke="#0d6e6e" stroke-width="3"/>
<text x="500" y="513.36" text-anchor="middle" font-family="Segoe UI, Arial, sans-serif" font-size="17" fill="#1a2332" font-weight="700">Not paradigm core</text>
<text x="500" y="537.84" text-anchor="middle" font-family="Segoe UI, Arial, sans-serif" font-size="13" fill="#4a5560">Application</text><rect x="0" y="628" width="1000" height="72" rx="0" fill="#1a2332"/><text x="60" y="665" text-anchor="start" font-family="Segoe UI, Arial, sans-serif" font-size="11" fill="#ffffff" font-weight="700">Axis 4 Bayah</text><text x="940" y="665" text-anchor="end" font-family="Segoe UI, Arial, sans-serif" font-size="11" fill="#b8860b" font-weight="700">Plate 136</text>
</svg>
