<?xml version="1.0" encoding="UTF-8"?>
<svg xmlns="http://www.w3.org/2000/svg" viewBox="0 0 1000 700" width="1000" height="700">
<rect width="1000" height="700" fill="#f4f7f6"/>
<text x="500" y="95" text-anchor="middle" font-family="Segoe UI, Arial, sans-serif" font-size="28" fill="#1a2332" font-weight="700">What This Project Is</text><text x="500" y="125" text-anchor="middle" font-family="Segoe UI, Arial, sans-serif" font-size="15" fill="#4a5560">Islamic Covenant Theology from Quran lexicon.</text><rect x="228" y="155" width="264" height="40" rx="8" fill="#0d6e6e"/>
<text x="360" y="181" text-anchor="middle" font-family="Segoe UI, Arial, sans-serif" font-size="14" fill="#ffffff" font-weight="700">IS</text>
<rect x="232" y="207" width="256" height="32" rx="12" fill="#ffffff" stroke="#4a5560" stroke-width="1"/>
<text x="360" y="227" text-anchor="middle" font-family="Segoe UI, Arial, sans-serif" font-size="11" fill="#1a2332">Quran-first mithaq map</text>
<rect x="232" y="245" width="256" height="32" rx="12" fill="#ffffff" stroke="#4a5560" stroke-width="1"/>
<text x="360" y="265" text-anchor="middle" font-family="Segoe UI, Arial, sans-serif" font-size="11" fill="#1a2332">Six-axis paradigm</text>
<rect x="232" y="283" width="256" height="32" rx="12" fill="#ffffff" stroke="#4a5560" stroke-width="1"/>
<text x="360" y="303" text-anchor="middle" font-family="Segoe UI, Arial, sans-serif" font-size="11" fill="#1a2332">Proof pipeline</text>
<rect x="232" y="321" width="256" height="32" rx="12" fill="#ffffff" stroke="#4a5560" stroke-width="1"/>
<text x="360" y="341" text-anchor="middle" font-family="Segoe UI, Arial, sans-serif" font-size="11" fill="#1a2332">Study companion</text>
<rect x="508" y="155" width="264" height="40" rx="8" fill="#0d6e6e"/>
<text x="640" y="181" text-anchor="middle" font-family="Segoe UI, Arial, sans-serif" font-size="14" fill="#ffffff" font-weight="700">IS NOT</text>
<rect x="512" y="207" width="256" height="32" rx="12" fill="#ffffff" stroke="#4a5560" stroke-width="1"/>
<text x="640" y="227" text-anchor="middle" font-family="Segoe UI, Arial, sans-serif" font-size="11" fill="#1a2332">Christian CT import</text>
<rect x="512" y="245" width="256" height="32" rx="12" fill="#ffffff" stroke="#4a5560" stroke-width="1"/>
<text x="640" y="265" text-anchor="middle" font-family="Segoe UI, Arial, sans-serif" font-size="11" fill="#1a2332">Replacement fiqh</text>
<rect x="512" y="283" width="256" height="32" rx="12" fill="#ffffff" stroke="#4a5560" stroke-width="1"/>
<text x="640" y="303" text-anchor="middle" font-family="Segoe UI, Arial, sans-serif" font-size="11" fill="#1a2332">Sufi tariqa manual</text>
<rect x="512" y="321" width="256" height="32" rx="12" fill="#ffffff" stroke="#4a5560" stroke-width="1"/>
<text x="640" y="341" text-anchor="middle" font-family="Segoe UI, Arial, sans-serif" font-size="11" fill="#1a2332">Political program</text><rect x="0" y="628" width="1000" height="72" rx="0" fill="#1a2332"/><text x="60" y="665" text-anchor="start" font-family="Segoe UI, Arial, sans-serif" font-size="11" fill="#ffffff" font-weight="700">Method</text><text x="940" y="665" text-anchor="end" font-family="Segoe UI, Arial, sans-serif" font-size="11" fill="#b8860b" font-weight="700">Plate 003</text>
</svg>
