<?xml version="1.0" encoding="UTF-8"?>
<svg xmlns="http://www.w3.org/2000/svg" viewBox="0 0 1000 700" width="1000" height="700">
<rect width="1000" height="700" fill="#f4f7f6"/>
<text x="500" y="95" text-anchor="middle" font-family="Segoe UI, Arial, sans-serif" font-size="28" fill="#1a2332" font-weight="700">C4 Prophetic Nuance</text><text x="500" y="125" text-anchor="middle" font-family="Segoe UI, Arial, sans-serif" font-size="15" fill="#4a5560">Contested prophetic detail tagged.</text><rect x="230" y="165" width="174" height="38" rx="6" fill="#0d6e6e"/>
<text x="317" y="189" text-anchor="middle" font-family="Segoe UI, Arial, sans-serif" font-size="12" fill="#ffffff" font-weight="700">Topic</text>
<rect x="410" y="165" width="174" height="38" rx="6" fill="#0d6e6e"/>
<text x="497" y="189" text-anchor="middle" font-family="Segoe UI, Arial, sans-serif" font-size="12" fill="#ffffff" font-weight="700">Agreed</text>
<rect x="590" y="165" width="174" height="38" rx="6" fill="#0d6e6e"/>
<text x="677" y="189" text-anchor="middle" font-family="Segoe UI, Arial, sans-serif" font-size="12" fill="#ffffff" font-weight="700">Disputed</text>
<rect x="230" y="211" width="174" height="36" rx="12" fill="#ffffff" stroke="#4a5560" stroke-width="1"/>
<text x="317" y="233" text-anchor="middle" font-family="Segoe UI, Arial, sans-serif" font-size="11" fill="#1a2332">Office</text>
<rect x="410" y="211" width="174" height="36" rx="12" fill="#ffffff" stroke="#4a5560" stroke-width="1"/>
<text x="497" y="233" text-anchor="middle" font-family="Segoe UI, Arial, sans-serif" font-size="11" fill="#1a2332">Yes</text>
<rect x="590" y="211" width="174" height="36" rx="12" fill="#ffffff" stroke="#4a5560" stroke-width="1"/>
<text x="677" y="233" text-anchor="middle" font-family="Segoe UI, Arial, sans-serif" font-size="11" fill="#1a2332">No</text>
<rect x="230" y="253" width="174" height="36" rx="12" fill="#ffffff" stroke="#4a5560" stroke-width="1"/>
<text x="317" y="275" text-anchor="middle" font-family="Segoe UI, Arial, sans-serif" font-size="11" fill="#1a2332">Confirm</text>
<rect x="410" y="253" width="174" height="36" rx="12" fill="#ffffff" stroke="#4a5560" stroke-width="1"/>
<text x="497" y="275" text-anchor="middle" font-family="Segoe UI, Arial, sans-serif" font-size="11" fill="#1a2332">Yes</text>
<rect x="590" y="253" width="174" height="36" rx="12" fill="#ffffff" stroke="#4a5560" stroke-width="1"/>
<text x="677" y="275" text-anchor="middle" font-family="Segoe UI, Arial, sans-serif" font-size="11" fill="#1a2332">No</text>
<rect x="230" y="295" width="174" height="36" rx="12" fill="#ffffff" stroke="#4a5560" stroke-width="1"/>
<text x="317" y="317" text-anchor="middle" font-family="Segoe UI, Arial, sans-serif" font-size="11" fill="#1a2332">Minor kayf</text>
<rect x="410" y="295" width="174" height="36" rx="12" fill="#ffffff" stroke="#4a5560" stroke-width="1"/>
<text x="497" y="317" text-anchor="middle" font-family="Segoe UI, Arial, sans-serif" font-size="11" fill="#1a2332">Tag</text>
<rect x="590" y="295" width="174" height="36" rx="12" fill="#ffffff" stroke="#4a5560" stroke-width="1"/>
<text x="677" y="317" text-anchor="middle" font-family="Segoe UI, Arial, sans-serif" font-size="11" fill="#1a2332">Tarjih</text><rect x="0" y="628" width="1000" height="72" rx="0" fill="#1a2332"/><text x="60" y="665" text-anchor="start" font-family="Segoe UI, Arial, sans-serif" font-size="11" fill="#ffffff" font-weight="700">Axis 2 Prophets</text><text x="940" y="665" text-anchor="end" font-family="Segoe UI, Arial, sans-serif" font-size="11" fill="#b8860b" font-weight="700">Plate 095</text>
</svg>
