<?xml version="1.0" encoding="UTF-8"?>
<svg xmlns="http://www.w3.org/2000/svg" viewBox="0 0 1000 700" width="1000" height="700">
<rect width="1000" height="700" fill="#f4f7f6"/>
<text x="500" y="95" text-anchor="middle" font-family="Segoe UI, Arial, sans-serif" font-size="28" fill="#1a2332" font-weight="700">CT Topic Matrix</text><text x="500" y="125" text-anchor="middle" font-family="Segoe UI, Arial, sans-serif" font-size="15" fill="#4a5560">Topic crosswalk tagged.</text><rect x="230" y="165" width="174" height="38" rx="6" fill="#0d6e6e"/>
<text x="317" y="189" text-anchor="middle" font-family="Segoe UI, Arial, sans-serif" font-size="12" fill="#ffffff" font-weight="700">Topic</text>
<rect x="410" y="165" width="174" height="38" rx="6" fill="#0d6e6e"/>
<text x="497" y="189" text-anchor="middle" font-family="Segoe UI, Arial, sans-serif" font-size="12" fill="#ffffff" font-weight="700">CT</text>
<rect x="590" y="165" width="174" height="38" rx="6" fill="#0d6e6e"/>
<text x="677" y="189" text-anchor="middle" font-family="Segoe UI, Arial, sans-serif" font-size="12" fill="#ffffff" font-weight="700">Mithaq</text>
<rect x="230" y="211" width="174" height="36" rx="12" fill="#ffffff" stroke="#4a5560" stroke-width="1"/>
<text x="317" y="233" text-anchor="middle" font-family="Segoe UI, Arial, sans-serif" font-size="11" fill="#1a2332">Bond</text>
<rect x="410" y="211" width="174" height="36" rx="12" fill="#ffffff" stroke="#4a5560" stroke-width="1"/>
<text x="497" y="233" text-anchor="middle" font-family="Segoe UI, Arial, sans-serif" font-size="11" fill="#1a2332">Covenant</text>
<rect x="590" y="211" width="174" height="36" rx="12" fill="#ffffff" stroke="#4a5560" stroke-width="1"/>
<text x="677" y="233" text-anchor="middle" font-family="Segoe UI, Arial, sans-serif" font-size="11" fill="#1a2332">mithaq</text>
<rect x="230" y="253" width="174" height="36" rx="12" fill="#ffffff" stroke="#4a5560" stroke-width="1"/>
<text x="317" y="275" text-anchor="middle" font-family="Segoe UI, Arial, sans-serif" font-size="11" fill="#1a2332">Sign</text>
<rect x="410" y="253" width="174" height="36" rx="12" fill="#ffffff" stroke="#4a5560" stroke-width="1"/>
<text x="497" y="275" text-anchor="middle" font-family="Segoe UI, Arial, sans-serif" font-size="11" fill="#1a2332">Sacrament</text>
<rect x="590" y="253" width="174" height="36" rx="12" fill="#ffffff" stroke="#4a5560" stroke-width="1"/>
<text x="677" y="275" text-anchor="middle" font-family="Segoe UI, Arial, sans-serif" font-size="11" fill="#1a2332">bayah diff</text>
<rect x="230" y="295" width="174" height="36" rx="12" fill="#ffffff" stroke="#4a5560" stroke-width="1"/>
<text x="317" y="317" text-anchor="middle" font-family="Segoe UI, Arial, sans-serif" font-size="11" fill="#1a2332">End</text>
<rect x="410" y="295" width="174" height="36" rx="12" fill="#ffffff" stroke="#4a5560" stroke-width="1"/>
<text x="497" y="317" text-anchor="middle" font-family="Segoe UI, Arial, sans-serif" font-size="11" fill="#1a2332">Grace</text>
<rect x="590" y="295" width="174" height="36" rx="12" fill="#ffffff" stroke="#4a5560" stroke-width="1"/>
<text x="677" y="317" text-anchor="middle" font-family="Segoe UI, Arial, sans-serif" font-size="11" fill="#1a2332">9:111 diff</text><rect x="0" y="628" width="1000" height="72" rx="0" fill="#1a2332"/><text x="60" y="665" text-anchor="start" font-family="Segoe UI, Arial, sans-serif" font-size="11" fill="#ffffff" font-weight="700">Appendix CT</text><text x="940" y="665" text-anchor="end" font-family="Segoe UI, Arial, sans-serif" font-size="11" fill="#b8860b" font-weight="700">Plate 281</text>
</svg>
