<?xml version="1.0" encoding="UTF-8"?>
<svg xmlns="http://www.w3.org/2000/svg" viewBox="0 0 1000 700" width="1000" height="700">
<rect width="1000" height="700" fill="#f4f7f6"/>
<text x="500" y="95" text-anchor="middle" font-family="Segoe UI, Arial, sans-serif" font-size="28" fill="#1a2332" font-weight="700">Canon: Sharia Program</text><text x="500" y="125" text-anchor="middle" font-family="Segoe UI, Arial, sans-serif" font-size="15" fill="#4a5560">Alast to law canon.</text><rect x="240" y="238" width="520" height="58" rx="14" fill="#0d6e6e"/>
<text x="500" y="273" text-anchor="middle" font-family="Segoe UI, Arial, sans-serif" font-size="16" fill="#ffffff" font-weight="700">Alast</text>
<polygon points="500,314 490,300 510,300" fill="#1a2332"/>
<rect x="240" y="318" width="520" height="58" rx="14" fill="#2d6a4f"/>
<text x="500" y="353" text-anchor="middle" font-family="Segoe UI, Arial, sans-serif" font-size="16" fill="#ffffff" font-weight="700">Wahy</text>
<polygon points="500,394 490,380 510,380" fill="#1a2332"/>
<rect x="240" y="398" width="520" height="58" rx="14" fill="#0d6e6e"/>
<text x="500" y="433" text-anchor="middle" font-family="Segoe UI, Arial, sans-serif" font-size="16" fill="#ffffff" font-weight="700">Sharia</text>
<polygon points="500,474 490,460 510,460" fill="#1a2332"/>
<rect x="240" y="478" width="520" height="58" rx="14" fill="#2d6a4f"/>
<text x="500" y="513" text-anchor="middle" font-family="Segoe UI, Arial, sans-serif" font-size="16" fill="#ffffff" font-weight="700">Fidelity</text><rect x="0" y="628" width="1000" height="72" rx="0" fill="#1a2332"/><text x="60" y="665" text-anchor="start" font-family="Segoe UI, Arial, sans-serif" font-size="11" fill="#ffffff" font-weight="700">Canon</text><text x="940" y="665" text-anchor="end" font-family="Segoe UI, Arial, sans-serif" font-size="11" fill="#b8860b" font-weight="700">Plate 268</text>
</svg>
