<?xml version="1.0" encoding="UTF-8"?>
<svg xmlns="http://www.w3.org/2000/svg" viewBox="0 0 1000 700" width="1000" height="700">
<rect width="1000" height="700" fill="#f4f7f6"/>
<text x="500" y="95" text-anchor="middle" font-family="Segoe UI, Arial, sans-serif" font-size="28" fill="#1a2332" font-weight="700">Nine Books Map</text><text x="500" y="125" text-anchor="middle" font-family="Segoe UI, Arial, sans-serif" font-size="15" fill="#4a5560">Ultimate Deep book stack.</text><rect x="240" y="155" width="520" height="58" rx="14" fill="#0d6e6e"/>
<text x="500" y="190" text-anchor="middle" font-family="Segoe UI, Arial, sans-serif" font-size="16" fill="#ffffff" font-weight="700">Method</text>
<polygon points="500,231 490,217 510,217" fill="#1a2332"/>
<rect x="240" y="235" width="520" height="58" rx="14" fill="#2d6a4f"/>
<text x="500" y="270" text-anchor="middle" font-family="Segoe UI, Arial, sans-serif" font-size="16" fill="#ffffff" font-weight="700">Lexicon</text>
<polygon points="500,311 490,297 510,297" fill="#1a2332"/>
<rect x="240" y="315" width="520" height="58" rx="14" fill="#0d6e6e"/>
<text x="500" y="350" text-anchor="middle" font-family="Segoe UI, Arial, sans-serif" font-size="16" fill="#ffffff" font-weight="700">Axes 1-6</text>
<polygon points="500,391 490,377 510,377" fill="#1a2332"/>
<rect x="240" y="395" width="520" height="58" rx="14" fill="#2d6a4f"/>
<text x="500" y="430" text-anchor="middle" font-family="Segoe UI, Arial, sans-serif" font-size="16" fill="#ffffff" font-weight="700">Registers</text>
<polygon points="500,471 490,457 510,457" fill="#1a2332"/>
<rect x="240" y="475" width="520" height="58" rx="14" fill="#0d6e6e"/>
<text x="500" y="510" text-anchor="middle" font-family="Segoe UI, Arial, sans-serif" font-size="16" fill="#ffffff" font-weight="700">Proof</text>
<polygon points="500,551 490,537 510,537" fill="#1a2332"/>
<rect x="240" y="555" width="520" height="58" rx="14" fill="#2d6a4f"/>
<text x="500" y="590" text-anchor="middle" font-family="Segoe UI, Arial, sans-serif" font-size="16" fill="#ffffff" font-weight="700">Study</text>
<polygon points="500,631 490,617 510,617" fill="#1a2332"/>
<rect x="240" y="635" width="520" height="58" rx="14" fill="#0d6e6e"/>
<text x="500" y="670" text-anchor="middle" font-family="Segoe UI, Arial, sans-serif" font-size="16" fill="#ffffff" font-weight="700">Appendix</text>
<polygon points="500,711 490,697 510,697" fill="#1a2332"/>
<rect x="240" y="715" width="520" height="58" rx="14" fill="#2d6a4f"/>
<text x="500" y="750" text-anchor="middle" font-family="Segoe UI, Arial, sans-serif" font-size="16" fill="#ffffff" font-weight="700">Index</text>
<polygon points="500,791 490,777 510,777" fill="#1a2332"/>
<rect x="240" y="795" width="520" height="58" rx="14" fill="#0d6e6e"/>
<text x="500" y="830" text-anchor="middle" font-family="Segoe UI, Arial, sans-serif" font-size="16" fill="#ffffff" font-weight="700">Summa</text><rect x="0" y="628" width="1000" height="72" rx="0" fill="#1a2332"/><text x="60" y="665" text-anchor="start" font-family="Segoe UI, Arial, sans-serif" font-size="11" fill="#ffffff" font-weight="700">Axioms and Architecture</text><text x="940" y="665" text-anchor="end" font-family="Segoe UI, Arial, sans-serif" font-size="11" fill="#b8860b" font-weight="700">Plate 217</text>
</svg>
