<?xml version="1.0" encoding="UTF-8"?>
<svg xmlns="http://www.w3.org/2000/svg" viewBox="0 0 1000 700" width="1000" height="700">
<rect width="1000" height="700" fill="#f4f7f6"/>
<text x="500" y="95" text-anchor="middle" font-family="Segoe UI, Arial, sans-serif" font-size="28" fill="#1a2332" font-weight="700">Level Ladder</text><text x="500" y="125" text-anchor="middle" font-family="Segoe UI, Arial, sans-serif" font-size="15" fill="#4a5560">Beginner to scholar.</text><rect x="220" y="171" width="560" height="72" rx="12" fill="#ffffff" stroke="#0d6e6e" stroke-width="3"/>
<text x="500" y="198.36" text-anchor="middle" font-family="Segoe UI, Arial, sans-serif" font-size="17" fill="#1a2332" font-weight="700">L1</text>
<text x="500" y="222.84" text-anchor="middle" font-family="Segoe UI, Arial, sans-serif" font-size="13" fill="#4a5560">Diagrams</text>
<polygon points="500,257 490,243 510,243" fill="#1a2332"/>
<rect x="220" y="261" width="560" height="72" rx="12" fill="#ffffff" stroke="#0d6e6e" stroke-width="3"/>
<text x="500" y="288.36" text-anchor="middle" font-family="Segoe UI, Arial, sans-serif" font-size="17" fill="#1a2332" font-weight="700">L2</text>
<text x="500" y="312.84" text-anchor="middle" font-family="Segoe UI, Arial, sans-serif" font-size="13" fill="#4a5560">Spine</text>
<polygon points="500,347 490,333 510,333" fill="#1a2332"/>
<rect x="220" y="351" width="560" height="72" rx="12" fill="#ffffff" stroke="#0d6e6e" stroke-width="3"/>
<text x="500" y="378.36" text-anchor="middle" font-family="Segoe UI, Arial, sans-serif" font-size="17" fill="#1a2332" font-weight="700">L3</text>
<text x="500" y="402.84" text-anchor="middle" font-family="Segoe UI, Arial, sans-serif" font-size="13" fill="#4a5560">Axis deep</text>
<polygon points="500,437 490,423 510,423" fill="#1a2332"/>
<rect x="220" y="441" width="560" height="72" rx="12" fill="#ffffff" stroke="#0d6e6e" stroke-width="3"/>
<text x="500" y="468.36" text-anchor="middle" font-family="Segoe UI, Arial, sans-serif" font-size="17" fill="#1a2332" font-weight="700">L4</text>
<text x="500" y="492.84" text-anchor="middle" font-family="Segoe UI, Arial, sans-serif" font-size="13" fill="#4a5560">Tarjih</text>
<polygon points="500,527 490,513 510,513" fill="#1a2332"/>
<rect x="220" y="531" width="560" height="72" rx="12" fill="#ffffff" stroke="#0d6e6e" stroke-width="3"/>
<text x="500" y="558.36" text-anchor="middle" font-family="Segoe UI, Arial, sans-serif" font-size="17" fill="#1a2332" font-weight="700">L5</text>
<text x="500" y="582.84" text-anchor="middle" font-family="Segoe UI, Arial, sans-serif" font-size="13" fill="#4a5560">Teach</text><rect x="0" y="628" width="1000" height="72" rx="0" fill="#1a2332"/><text x="60" y="665" text-anchor="start" font-family="Segoe UI, Arial, sans-serif" font-size="11" fill="#ffffff" font-weight="700">Study</text><text x="940" y="665" text-anchor="end" font-family="Segoe UI, Arial, sans-serif" font-size="11" fill="#b8860b" font-weight="700">Plate 234</text>
</svg>
