<?xml version="1.0" encoding="UTF-8"?>
<svg xmlns="http://www.w3.org/2000/svg" viewBox="0 0 1000 700" width="1000" height="700">
<rect width="1000" height="700" fill="#f4f7f6"/>
<text x="500" y="95" text-anchor="middle" font-family="Segoe UI, Arial, sans-serif" font-size="28" fill="#1a2332" font-weight="700">Alast Narrative Flow</text><text x="500" y="125" text-anchor="middle" font-family="Segoe UI, Arial, sans-serif" font-size="15" fill="#4a5560">Primordial testimony sequence.</text><rect x="240" y="198" width="520" height="58" rx="14" fill="#0d6e6e"/>
<text x="500" y="233" text-anchor="middle" font-family="Segoe UI, Arial, sans-serif" font-size="16" fill="#ffffff" font-weight="700">Gather offspring</text>
<polygon points="500,274 490,260 510,260" fill="#1a2332"/>
<rect x="240" y="278" width="520" height="58" rx="14" fill="#2d6a4f"/>
<text x="500" y="313" text-anchor="middle" font-family="Segoe UI, Arial, sans-serif" font-size="16" fill="#ffffff" font-weight="700">Am I not your Lord?</text>
<polygon points="500,354 490,340 510,340" fill="#1a2332"/>
<rect x="240" y="358" width="520" height="58" rx="14" fill="#0d6e6e"/>
<text x="500" y="393" text-anchor="middle" font-family="Segoe UI, Arial, sans-serif" font-size="16" fill="#ffffff" font-weight="700">Bala yes</text>
<polygon points="500,434 490,420 510,420" fill="#1a2332"/>
<rect x="240" y="438" width="520" height="58" rx="14" fill="#2d6a4f"/>
<text x="500" y="473" text-anchor="middle" font-family="Segoe UI, Arial, sans-serif" font-size="16" fill="#ffffff" font-weight="700">Witness against selves</text>
<polygon points="500,514 490,500 510,500" fill="#1a2332"/>
<rect x="240" y="518" width="520" height="58" rx="14" fill="#0d6e6e"/>
<text x="500" y="553" text-anchor="middle" font-family="Segoe UI, Arial, sans-serif" font-size="16" fill="#ffffff" font-weight="700">Block excuses</text><rect x="0" y="628" width="1000" height="72" rx="0" fill="#1a2332"/><text x="60" y="665" text-anchor="start" font-family="Segoe UI, Arial, sans-serif" font-size="11" fill="#ffffff" font-weight="700">Alast</text><text x="940" y="665" text-anchor="end" font-family="Segoe UI, Arial, sans-serif" font-size="11" fill="#b8860b" font-weight="700">Plate 072</text>
</svg>
