<?xml version="1.0" encoding="UTF-8"?>
<svg xmlns="http://www.w3.org/2000/svg" viewBox="0 0 1000 700" width="1000" height="700">
<rect width="1000" height="700" fill="#f4f7f6"/>
<text x="500" y="95" text-anchor="middle" font-family="Segoe UI, Arial, sans-serif" font-size="28" fill="#1a2332" font-weight="700">Cross-Index</text><text x="500" y="125" text-anchor="middle" font-family="Segoe UI, Arial, sans-serif" font-size="15" fill="#4a5560">Verse to plate lookup.</text><circle cx="500" cy="387" r="62" fill="#0d6e6e"/>
<text x="500" y="393" text-anchor="middle" font-family="Segoe UI, Arial, sans-serif" font-size="15" fill="#ffffff" font-weight="700">Index</text>
<line x1="500" y1="387" x2="500" y2="207" stroke="#0d6e6e" stroke-width="2"/>
<rect x="425" y="184" width="150" height="46" rx="12" fill="#ffffff" stroke="#0d6e6e" stroke-width="2"/>
<text x="500" y="212" text-anchor="middle" font-family="Segoe UI, Arial, sans-serif" font-size="12" fill="#1a2332" font-weight="700">7:172</text>
<line x1="500" y1="387" x2="690" y2="298" stroke="#0d6e6e" stroke-width="2"/>
<rect x="615" y="275" width="150" height="46" rx="12" fill="#ffffff" stroke="#0d6e6e" stroke-width="2"/>
<text x="690" y="303" text-anchor="middle" font-family="Segoe UI, Arial, sans-serif" font-size="12" fill="#1a2332" font-weight="700">16:91</text>
<line x1="500" y1="387" x2="690" y2="476" stroke="#0d6e6e" stroke-width="2"/>
<rect x="615" y="453" width="150" height="46" rx="12" fill="#ffffff" stroke="#0d6e6e" stroke-width="2"/>
<text x="690" y="481" text-anchor="middle" font-family="Segoe UI, Arial, sans-serif" font-size="12" fill="#1a2332" font-weight="700">33:7</text>
<line x1="500" y1="387" x2="500" y2="567" stroke="#0d6e6e" stroke-width="2"/>
<rect x="425" y="544" width="150" height="46" rx="12" fill="#ffffff" stroke="#0d6e6e" stroke-width="2"/>
<text x="500" y="572" text-anchor="middle" font-family="Segoe UI, Arial, sans-serif" font-size="12" fill="#1a2332" font-weight="700">48:10</text>
<line x1="500" y1="387" x2="310" y2="476" stroke="#0d6e6e" stroke-width="2"/>
<rect x="235" y="453" width="150" height="46" rx="12" fill="#ffffff" stroke="#0d6e6e" stroke-width="2"/>
<text x="310" y="481" text-anchor="middle" font-family="Segoe UI, Arial, sans-serif" font-size="12" fill="#1a2332" font-weight="700">5:1</text>
<line x1="500" y1="387" x2="310" y2="297" stroke="#0d6e6e" stroke-width="2"/>
<rect x="235" y="274" width="150" height="46" rx="12" fill="#ffffff" stroke="#0d6e6e" stroke-width="2"/>
<text x="310" y="302" text-anchor="middle" font-family="Segoe UI, Arial, sans-serif" font-size="12" fill="#1a2332" font-weight="700">9:111</text><rect x="0" y="628" width="1000" height="72" rx="0" fill="#1a2332"/><text x="60" y="665" text-anchor="start" font-family="Segoe UI, Arial, sans-serif" font-size="11" fill="#ffffff" font-weight="700">Chronology and Apparatus</text><text x="940" y="665" text-anchor="end" font-family="Segoe UI, Arial, sans-serif" font-size="11" fill="#b8860b" font-weight="700">Plate 294</text>
</svg>
