<?xml version="1.0" encoding="UTF-8"?>
<svg xmlns="http://www.w3.org/2000/svg" viewBox="0 0 1000 700" width="1000" height="700">
<rect width="1000" height="700" fill="#f4f7f6"/>
<text x="500" y="95" text-anchor="middle" font-family="Segoe UI, Arial, sans-serif" font-size="28" fill="#1a2332" font-weight="700">Six Axioms</text><text x="500" y="125" text-anchor="middle" font-family="Segoe UI, Arial, sans-serif" font-size="15" fill="#4a5560">Spine of Mithaq Paradigm.</text><circle cx="500" cy="387" r="55" fill="#0d6e6e"/>
<text x="500" y="392" text-anchor="middle" font-family="Segoe UI, Arial, sans-serif" font-size="14" fill="#ffffff" font-weight="700">Axioms</text>
<line x1="500" y1="387" x2="500" y2="217" stroke="#0d6e6e" stroke-width="2"/>
<rect x="425" y="195" width="150" height="44" rx="12" fill="#ffffff" stroke="#0d6e6e" stroke-width="2"/>
<text x="500" y="222" text-anchor="middle" font-family="Segoe UI, Arial, sans-serif" font-size="11" fill="#1a2332" font-weight="700">Speech binds</text>
<line x1="500" y1="387" x2="681" y2="303" stroke="#0d6e6e" stroke-width="2"/>
<rect x="606" y="281" width="150" height="44" rx="12" fill="#ffffff" stroke="#0d6e6e" stroke-width="2"/>
<text x="681" y="308" text-anchor="middle" font-family="Segoe UI, Arial, sans-serif" font-size="11" fill="#1a2332" font-weight="700">Mithaq heavy</text>
<line x1="500" y1="387" x2="681" y2="471" stroke="#0d6e6e" stroke-width="2"/>
<rect x="606" y="449" width="150" height="44" rx="12" fill="#ffffff" stroke="#0d6e6e" stroke-width="2"/>
<text x="681" y="476" text-anchor="middle" font-family="Segoe UI, Arial, sans-serif" font-size="11" fill="#1a2332" font-weight="700">Wad divine</text>
<line x1="500" y1="387" x2="500" y2="557" stroke="#0d6e6e" stroke-width="2"/>
<rect x="425" y="535" width="150" height="44" rx="12" fill="#ffffff" stroke="#0d6e6e" stroke-width="2"/>
<text x="500" y="562" text-anchor="middle" font-family="Segoe UI, Arial, sans-serif" font-size="11" fill="#1a2332" font-weight="700">Amanah trust</text>
<line x1="500" y1="387" x2="319" y2="471" stroke="#0d6e6e" stroke-width="2"/>
<rect x="244" y="449" width="150" height="44" rx="12" fill="#ffffff" stroke="#0d6e6e" stroke-width="2"/>
<text x="319" y="476" text-anchor="middle" font-family="Segoe UI, Arial, sans-serif" font-size="11" fill="#1a2332" font-weight="700">Bayah loyalty</text>
<line x1="500" y1="387" x2="319" y2="302" stroke="#0d6e6e" stroke-width="2"/>
<rect x="244" y="280" width="150" height="44" rx="12" fill="#ffffff" stroke="#0d6e6e" stroke-width="2"/>
<text x="319" y="307" text-anchor="middle" font-family="Segoe UI, Arial, sans-serif" font-size="11" fill="#1a2332" font-weight="700">Hisab sure</text><rect x="0" y="628" width="1000" height="72" rx="0" fill="#1a2332"/><text x="60" y="665" text-anchor="start" font-family="Segoe UI, Arial, sans-serif" font-size="11" fill="#ffffff" font-weight="700">Axioms and Architecture</text><text x="940" y="665" text-anchor="end" font-family="Segoe UI, Arial, sans-serif" font-size="11" fill="#b8860b" font-weight="700">Plate 209</text>
</svg>
