<svg xmlns="http://www.w3.org/2000/svg" viewBox="0 0 800 620" width="800" height="620" font-family="Georgia, 'Noto Serif', serif">
<defs><marker id="ar" viewBox="0 0 10 10" refX="9" refY="5" markerWidth="7" markerHeight="7" orient="auto-start-reverse"><path d="M 0 0 L 10 5 L 0 10 z" fill="#2d2d2d"/></marker></defs>
<rect x="0" y="0" width="800" height="620" fill="#faf8f3"/>
<rect x="0" y="0" width="800" height="7" fill="#4a4a68"/>
<text x="400" y="46" text-anchor="middle" font-size="11.0" font-weight="normal" fill="#777777">CRISIS, DURESS &amp; HARD CASES</text>
<text x="400" y="78" text-anchor="middle" font-size="24.0" font-weight="bold" fill="#2d2d2d">Rebuilding the Bank&#x27;s Name After the Breach</text>
<rect x="81" y="200" width="140" height="150" rx="12" fill="#4a4a68" opacity="0.55"/>
<rect x="131.2" y="222.7" width="39.7" height="54.6" rx="3.1" fill="#faf8f3"/><rect x="138.6" y="232.6" width="24.8" height="3.1" fill="#4a4a68" opacity="0.85"/><rect x="138.6" y="243.2" width="24.8" height="3.1" fill="#4a4a68" opacity="0.85"/><rect x="138.6" y="253.7" width="24.8" height="3.1" fill="#4a4a68" opacity="0.85"/><rect x="138.6" y="264.3" width="24.8" height="3.1" fill="#4a4a68" opacity="0.85"/>
<text x="151" y="302" text-anchor="middle" font-size="12.5" font-weight="bold" fill="#faf8f3">Full disclosure</text>
<line x1="225" y1="275" x2="241" y2="275" stroke="#2d2d2d" stroke-width="2" marker-end="url(#ar)"/>
<rect x="247" y="200" width="140" height="150" rx="12" fill="#4a4a68" opacity="0.70"/>
<ellipse cx="317.0" cy="266.1" rx="24.8" ry="8.1" fill="#faf8f3" opacity="0.60"/><ellipse cx="317.0" cy="252.5" rx="24.8" ry="8.1" fill="#faf8f3" opacity="0.80"/><ellipse cx="317.0" cy="238.8" rx="24.8" ry="8.1" fill="#faf8f3" opacity="1.00"/>
<text x="317" y="302" text-anchor="middle" font-size="12.5" font-weight="bold" fill="#faf8f3">Restitution paid</text>
<line x1="391" y1="275" x2="407" y2="275" stroke="#2d2d2d" stroke-width="2" marker-end="url(#ar)"/>
<rect x="413" y="200" width="140" height="150" rx="12" fill="#4a4a68" opacity="0.85"/>
<circle cx="483.0" cy="250.0" r="27.3" fill="none" stroke="#faf8f3" stroke-width="5.6"/><line x1="483.0" y1="250.0" x2="483.0" y2="233.9" stroke="#faf8f3" stroke-width="4.3"/><line x1="483.0" y1="250.0" x2="495.4" y2="256.2" stroke="#faf8f3" stroke-width="4.3"/>
<text x="483" y="302" text-anchor="middle" font-size="12.5" font-weight="bold" fill="#faf8f3">Years of kept</text>
<text x="483" y="317" text-anchor="middle" font-size="12.5" font-weight="bold" fill="#faf8f3">word</text>
<line x1="557" y1="275" x2="573" y2="275" stroke="#2d2d2d" stroke-width="2" marker-end="url(#ar)"/>
<rect x="579" y="200" width="140" height="150" rx="12" fill="#4a4a68" opacity="1.00"/>
<path d="M 649.0 274.8 C 610.6 251.2 626.7 222.7 649.0 241.3 C 671.3 222.7 687.4 251.2 649.0 274.8 Z" fill="#faf8f3"/>
<text x="649" y="302" text-anchor="middle" font-size="12.5" font-weight="bold" fill="#faf8f3">Trust slowly</text>
<text x="649" y="317" text-anchor="middle" font-size="12.5" font-weight="bold" fill="#faf8f3">returns</text>
<text x="400" y="392" text-anchor="middle" font-size="12.5" font-weight="normal" fill="#777777">No shortcut past demonstrated fidelity</text>
<line x1="90" y1="516" x2="710" y2="516" stroke="#c9c2b4" stroke-width="1"/>
<text x="400" y="540" text-anchor="middle" font-size="13.0" font-weight="normal" fill="#2d2d2d">Trust broken at scale is not restored by an apology alone; it takes disclosure,</text>
<text x="400" y="559" text-anchor="middle" font-size="13.0" font-weight="normal" fill="#2d2d2d">restitution, and years of visibly kept small promises.</text>
<text x="400" y="602" text-anchor="middle" font-size="12.0" font-weight="bold" fill="#4a4a68">GLOSSARY.md — amanah restored only through demonstrated fidelity</text>
</svg>
