<svg xmlns="http://www.w3.org/2000/svg" viewBox="0 0 800 620" width="800" height="620" font-family="Georgia, 'Noto Serif', serif">
<defs><marker id="ar" viewBox="0 0 10 10" refX="9" refY="5" markerWidth="7" markerHeight="7" orient="auto-start-reverse"><path d="M 0 0 L 10 5 L 0 10 z" fill="#2d2d2d"/></marker></defs>
<rect x="0" y="0" width="800" height="620" fill="#faf8f3"/>
<rect x="0" y="0" width="800" height="7" fill="#a45c40"/>
<text x="400" y="46" text-anchor="middle" font-size="11.0" font-weight="normal" fill="#777777">CRISIS, DURESS &amp; HARD CASES</text>
<text x="400" y="78" text-anchor="middle" font-size="24.0" font-weight="bold" fill="#2d2d2d">The Instructions Spoken With His Last Breath</text>
<rect x="81" y="200" width="140" height="150" rx="12" fill="#a45c40" opacity="0.55"/>
<circle cx="151.0" cy="231.4" r="12.4" fill="#faf8f3"/><path d="M 128.7 282.2 a 22.3 28.5 0 0 1 44.6 0 Z" fill="#faf8f3"/>
<text x="151" y="302" text-anchor="middle" font-size="12.5" font-weight="bold" fill="#faf8f3">Final words</text>
<line x1="225" y1="275" x2="241" y2="275" stroke="#2d2d2d" stroke-width="2" marker-end="url(#ar)"/>
<rect x="247" y="200" width="140" height="150" rx="12" fill="#a45c40" opacity="0.70"/>
<circle cx="317.0" cy="231.4" r="12.4" fill="#faf8f3"/><path d="M 294.7 282.2 a 22.3 28.5 0 0 1 44.6 0 Z" fill="#faf8f3"/>
<text x="317" y="302" text-anchor="middle" font-size="12.5" font-weight="bold" fill="#faf8f3">Witnesses present</text>
<line x1="391" y1="275" x2="407" y2="275" stroke="#2d2d2d" stroke-width="2" marker-end="url(#ar)"/>
<rect x="413" y="200" width="140" height="150" rx="12" fill="#a45c40" opacity="0.85"/>
<rect x="463.2" y="222.7" width="39.7" height="54.6" rx="3.1" fill="#faf8f3"/><rect x="470.6" y="232.6" width="24.8" height="3.1" fill="#a45c40" opacity="0.85"/><rect x="470.6" y="243.2" width="24.8" height="3.1" fill="#a45c40" opacity="0.85"/><rect x="470.6" y="253.7" width="24.8" height="3.1" fill="#a45c40" opacity="0.85"/><rect x="470.6" y="264.3" width="24.8" height="3.1" fill="#a45c40" opacity="0.85"/>
<text x="483" y="302" text-anchor="middle" font-size="12.5" font-weight="bold" fill="#faf8f3">Instructions</text>
<text x="483" y="317" text-anchor="middle" font-size="12.5" font-weight="bold" fill="#faf8f3">recorded</text>
<line x1="557" y1="275" x2="573" y2="275" stroke="#2d2d2d" stroke-width="2" marker-end="url(#ar)"/>
<rect x="579" y="200" width="140" height="150" rx="12" fill="#a45c40" opacity="1.00"/>
<path d="M 618.0 258.7 L 642.8 240.1 L 655.2 240.1 L 680.0 258.7 L 670.1 268.6 L 649.0 253.7 L 627.9 268.6 Z" fill="#faf8f3"/>
<text x="649" y="302" text-anchor="middle" font-size="12.5" font-weight="bold" fill="#faf8f3">Heirs carry it</text>
<text x="649" y="317" text-anchor="middle" font-size="12.5" font-weight="bold" fill="#faf8f3">out</text>
<text x="400" y="392" text-anchor="middle" font-size="12.5" font-weight="normal" fill="#777777">Distorting a bequest after witnessing is a sin</text>
<line x1="90" y1="516" x2="710" y2="516" stroke="#c9c2b4" stroke-width="1"/>
<text x="400" y="540" text-anchor="middle" font-size="13.0" font-weight="normal" fill="#2d2d2d">Instructions given on a deathbed carry the full weight of a covenant witnessed at its</text>
<text x="400" y="559" text-anchor="middle" font-size="13.0" font-weight="normal" fill="#2d2d2d">most solemn hour — the living are bound to carry them out.</text>
<text x="400" y="602" text-anchor="middle" font-size="12.0" font-weight="bold" fill="#a45c40">Q2:180-182 — the bequest, witnessed and honoured</text>
</svg>
