<svg xmlns="http://www.w3.org/2000/svg" viewBox="0 0 800 620" width="800" height="620" font-family="Georgia, 'Noto Serif', serif">
<defs><marker id="ar" viewBox="0 0 10 10" refX="9" refY="5" markerWidth="7" markerHeight="7" orient="auto-start-reverse"><path d="M 0 0 L 10 5 L 0 10 z" fill="#2d2d2d"/></marker></defs>
<rect x="0" y="0" width="800" height="620" fill="#faf8f3"/>
<rect x="0" y="0" width="800" height="7" fill="#a45c40"/>
<text x="400" y="46" text-anchor="middle" font-size="11.0" font-weight="normal" fill="#777777">DIGITAL &amp; TECHNOLOGY</text>
<text x="400" y="78" text-anchor="middle" font-size="24.0" font-weight="bold" fill="#2d2d2d">The Coin Pitched as a Sure Thing</text>
<rect x="70" y="130" width="310" height="316" rx="14" fill="#ffffff" stroke="#a33b2a" stroke-width="2" opacity="0.95"/>
<text x="225" y="162" text-anchor="middle" font-size="15.0" font-weight="bold" fill="#a33b2a">✗  Reckless</text>
<ellipse cx="225.0" cy="278.0" rx="40.0" ry="13.0" fill="#a33b2a" opacity="0.60"/><ellipse cx="225.0" cy="256.0" rx="40.0" ry="13.0" fill="#a33b2a" opacity="0.80"/><ellipse cx="225.0" cy="234.0" rx="40.0" ry="13.0" fill="#a33b2a" opacity="1.00"/>
<text x="225" y="336" text-anchor="middle" font-size="13.0" font-weight="normal" fill="#2d2d2d">Sold as a sure thing</text>
<text x="225" y="361" text-anchor="middle" font-size="11.5" font-weight="normal" fill="#777777">speculation dressed as fact</text>
<rect x="420" y="130" width="310" height="316" rx="14" fill="#ffffff" stroke="#2e6f40" stroke-width="2" opacity="0.95"/>
<text x="575" y="162" text-anchor="middle" font-size="15.0" font-weight="bold" fill="#2e6f40">✓  Honest</text>
<ellipse cx="575.0" cy="278.0" rx="40.0" ry="13.0" fill="#2e6f40" opacity="0.60"/><ellipse cx="575.0" cy="256.0" rx="40.0" ry="13.0" fill="#2e6f40" opacity="0.80"/><ellipse cx="575.0" cy="234.0" rx="40.0" ry="13.0" fill="#2e6f40" opacity="1.00"/>
<text x="575" y="336" text-anchor="middle" font-size="13.0" font-weight="normal" fill="#2d2d2d">Risk stated plainly</text>
<text x="575" y="361" text-anchor="middle" font-size="11.5" font-weight="normal" fill="#777777">informed choice left to them</text>
<line x1="400" y1="140" x2="400" y2="436" stroke="#c9c2b4" stroke-dasharray="5 5"/>
<line x1="90" y1="516" x2="710" y2="516" stroke="#c9c2b4" stroke-width="1"/>
<text x="400" y="540" text-anchor="middle" font-size="13.0" font-weight="normal" fill="#2d2d2d">Talking a friend into a volatile coin as a guaranteed win trades their savings on your</text>
<text x="400" y="559" text-anchor="middle" font-size="13.0" font-weight="normal" fill="#2d2d2d">confidence, not on truth you actually possess.</text>
<text x="400" y="602" text-anchor="middle" font-size="12.0" font-weight="bold" fill="#a45c40">Q4:29 — wealth not consumed unjustly</text>
</svg>
