<svg xmlns="http://www.w3.org/2000/svg" viewBox="0 0 800 620" width="800" height="620" font-family="Georgia, 'Noto Serif', serif">
<defs><marker id="ar" viewBox="0 0 10 10" refX="9" refY="5" markerWidth="7" markerHeight="7" orient="auto-start-reverse"><path d="M 0 0 L 10 5 L 0 10 z" fill="#2d2d2d"/></marker></defs>
<rect x="0" y="0" width="800" height="620" fill="#faf8f3"/>
<rect x="0" y="0" width="800" height="7" fill="#a45c40"/>
<text x="400" y="46" text-anchor="middle" font-size="11.0" font-weight="normal" fill="#777777">EDUCATION &amp; KNOWLEDGE</text>
<text x="400" y="78" text-anchor="middle" font-size="24.0" font-weight="bold" fill="#2d2d2d">The Answer You Knew and Withheld</text>
<rect x="70" y="130" width="310" height="316" rx="14" fill="#ffffff" stroke="#a33b2a" stroke-width="2" opacity="0.95"/>
<text x="225" y="162" text-anchor="middle" font-size="15.0" font-weight="bold" fill="#a33b2a">✗  Withheld</text>
<path d="M 203.0 246.0 L 203.0 226.0 a 22.0 22.0 0 0 1 44.0 0 L 247.0 246.0" fill="none" stroke="#a33b2a" stroke-width="9.0"/><rect x="191.0" y="246.0" width="68.0" height="48.0" rx="6.0" fill="#a33b2a"/>
<text x="225" y="336" text-anchor="middle" font-size="13.0" font-weight="normal" fill="#2d2d2d">Sat on the answer out of spite</text>
<text x="225" y="361" text-anchor="middle" font-size="11.5" font-weight="normal" fill="#777777">knowledge kept back</text>
<rect x="420" y="130" width="310" height="316" rx="14" fill="#ffffff" stroke="#2e6f40" stroke-width="2" opacity="0.95"/>
<text x="575" y="162" text-anchor="middle" font-size="15.0" font-weight="bold" fill="#2e6f40">✓  Shared</text>
<path d="M 575.0 218.0 C 545.0 202.0 523.0 212.0 523.0 218.0 L 523.0 286.0 C 523.0 280.0 545.0 272.0 575.0 286.0 C 605.0 272.0 627.0 280.0 627.0 286.0 L 627.0 218.0 C 627.0 212.0 605.0 202.0 575.0 218.0 Z" fill="#2e6f40"/><line x1="575.0" y1="218.0" x2="575.0" y2="286.0" stroke="#ffffff" stroke-width="3.5"/>
<text x="575" y="336" text-anchor="middle" font-size="13.0" font-weight="normal" fill="#2d2d2d">Answered plainly when asked</text>
<text x="575" y="361" text-anchor="middle" font-size="11.5" font-weight="normal" fill="#777777">knowledge set free</text>
<line x1="400" y1="140" x2="400" y2="436" stroke="#c9c2b4" stroke-dasharray="5 5"/>
<line x1="90" y1="516" x2="710" y2="516" stroke="#c9c2b4" stroke-width="1"/>
<text x="400" y="540" text-anchor="middle" font-size="13.0" font-weight="normal" fill="#2d2d2d">Refusing to answer a sincere question you can answer, out of rivalry or spite, is</text>
<text x="400" y="559" text-anchor="middle" font-size="13.0" font-weight="normal" fill="#2d2d2d">concealment of what should have been given freely.</text>
<text x="400" y="602" text-anchor="middle" font-size="12.0" font-weight="bold" fill="#a45c40">Q2:159 — those who conceal what We sent down</text>
</svg>
