<svg xmlns="http://www.w3.org/2000/svg" viewBox="0 0 800 620" width="800" height="620" font-family="Georgia, 'Noto Serif', serif">
<defs><marker id="ar" viewBox="0 0 10 10" refX="9" refY="5" markerWidth="7" markerHeight="7" orient="auto-start-reverse"><path d="M 0 0 L 10 5 L 0 10 z" fill="#2d2d2d"/></marker></defs>
<rect x="0" y="0" width="800" height="620" fill="#faf8f3"/>
<rect x="0" y="0" width="800" height="7" fill="#4a4a68"/>
<text x="400" y="46" text-anchor="middle" font-size="11.0" font-weight="normal" fill="#777777">EDUCATION &amp; KNOWLEDGE</text>
<text x="400" y="78" text-anchor="middle" font-size="24.0" font-weight="bold" fill="#2d2d2d">The Four Students Who Cheated Together</text>
<rect x="188" y="161" width="200" height="128" rx="12" fill="#ffffff" stroke="#4a4a68" stroke-width="1.8"/>
<rect x="269.6" y="184.6" width="36.8" height="36.8" fill="#4a4a68"/><rect x="275.1" y="190.1" width="5.1" height="5.1" fill="#ffffff" opacity="0.8"/><rect x="285.2" y="190.1" width="5.1" height="5.1" fill="#ffffff" opacity="0.8"/><rect x="295.4" y="190.1" width="5.1" height="5.1" fill="#ffffff" opacity="0.8"/><rect x="275.1" y="200.2" width="5.1" height="5.1" fill="#ffffff" opacity="0.8"/><rect x="285.2" y="200.2" width="5.1" height="5.1" fill="#ffffff" opacity="0.8"/><rect x="295.4" y="200.2" width="5.1" height="5.1" fill="#ffffff" opacity="0.8"/><rect x="275.1" y="210.4" width="5.1" height="5.1" fill="#ffffff" opacity="0.8"/><rect x="285.2" y="210.4" width="5.1" height="5.1" fill="#ffffff" opacity="0.8"/><rect x="295.4" y="210.4" width="5.1" height="5.1" fill="#ffffff" opacity="0.8"/>
<text x="288" y="249" text-anchor="middle" font-size="12.0" font-weight="bold" fill="#2d2d2d">Trust in the</text>
<text x="288" y="263" text-anchor="middle" font-size="12.0" font-weight="bold" fill="#2d2d2d">institution</text>
<rect x="412" y="161" width="200" height="128" rx="12" fill="#ffffff" stroke="#4a4a68" stroke-width="1.8"/>
<circle cx="512.0" cy="192.2" r="7.2" fill="#4a4a68"/><path d="M 499.1 221.7 a 12.9 16.5 0 0 1 25.8 0 Z" fill="#4a4a68"/><g opacity="0.55"><circle cx="488.1" cy="196.7" r="6.1" fill="#4a4a68"/><path d="M 477.2 221.5 a 10.9 14.0 0 0 1 21.9 0 Z" fill="#4a4a68"/></g><g opacity="0.55"><circle cx="535.9" cy="196.7" r="6.1" fill="#4a4a68"/><path d="M 525.0 221.5 a 10.9 14.0 0 0 1 21.9 0 Z" fill="#4a4a68"/></g>
<text x="512" y="249" text-anchor="middle" font-size="12.0" font-weight="bold" fill="#2d2d2d">Fairness to honest</text>
<text x="512" y="263" text-anchor="middle" font-size="12.0" font-weight="bold" fill="#2d2d2d">peers</text>
<rect x="188" y="311" width="200" height="128" rx="12" fill="#ffffff" stroke="#4a4a68" stroke-width="1.8"/>
<path d="M 288.0 337.4 C 274.2 330.0 264.1 334.6 264.1 337.4 L 264.1 368.6 C 264.1 365.9 274.2 362.2 288.0 368.6 C 301.8 362.2 311.9 365.9 311.9 368.6 L 311.9 337.4 C 311.9 334.6 301.8 330.0 288.0 337.4 Z" fill="#4a4a68"/><line x1="288.0" y1="337.4" x2="288.0" y2="368.6" stroke="#ffffff" stroke-width="1.6"/>
<text x="288" y="399" text-anchor="middle" font-size="12.0" font-weight="bold" fill="#2d2d2d">Integrity of the</text>
<text x="288" y="413" text-anchor="middle" font-size="12.0" font-weight="bold" fill="#2d2d2d">subject</text>
<rect x="412" y="311" width="200" height="128" rx="12" fill="#ffffff" stroke="#4a4a68" stroke-width="1.8"/>
<rect x="497.3" y="332.8" width="29.4" height="40.5" rx="2.3" fill="#4a4a68"/><rect x="502.8" y="340.1" width="18.4" height="2.3" fill="#ffffff" opacity="0.85"/><rect x="502.8" y="347.9" width="18.4" height="2.3" fill="#ffffff" opacity="0.85"/><rect x="502.8" y="355.8" width="18.4" height="2.3" fill="#ffffff" opacity="0.85"/><rect x="502.8" y="363.6" width="18.4" height="2.3" fill="#ffffff" opacity="0.85"/>
<text x="512" y="399" text-anchor="middle" font-size="12.0" font-weight="bold" fill="#2d2d2d">Truth of the grade</text>
<text x="512" y="413" text-anchor="middle" font-size="12.0" font-weight="bold" fill="#2d2d2d">earned</text>
<line x1="90" y1="516" x2="710" y2="516" stroke="#c9c2b4" stroke-width="1"/>
<text x="400" y="540" text-anchor="middle" font-size="13.0" font-weight="normal" fill="#2d2d2d">A shared exam-cheating ring is not one betrayal but four: of the institution, the honest</text>
<text x="400" y="559" text-anchor="middle" font-size="13.0" font-weight="normal" fill="#2d2d2d">classmates, the subject itself, and the student&#x27;s own claimed grade.</text>
<text x="400" y="602" text-anchor="middle" font-size="12.0" font-weight="bold" fill="#4a4a68">Q83:1-3 — woe to the cheaters</text>
</svg>
