<svg xmlns="http://www.w3.org/2000/svg" viewBox="0 0 800 620" width="800" height="620" font-family="Georgia, 'Noto Serif', serif">
<defs><marker id="ar" viewBox="0 0 10 10" refX="9" refY="5" markerWidth="7" markerHeight="7" orient="auto-start-reverse"><path d="M 0 0 L 10 5 L 0 10 z" fill="#2d2d2d"/></marker></defs>
<rect x="0" y="0" width="800" height="620" fill="#faf8f3"/>
<rect x="0" y="0" width="800" height="7" fill="#a45c40"/>
<text x="400" y="46" text-anchor="middle" font-size="11.0" font-weight="normal" fill="#777777">EDUCATION &amp; KNOWLEDGE</text>
<text x="400" y="78" text-anchor="middle" font-size="24.0" font-weight="bold" fill="#2d2d2d">The Notes You Passed Off as Yours</text>
<rect x="70" y="130" width="310" height="316" rx="14" fill="#ffffff" stroke="#a33b2a" stroke-width="2" opacity="0.95"/>
<text x="225" y="162" text-anchor="middle" font-size="15.0" font-weight="bold" fill="#a33b2a">✗  Plagiarised</text>
<rect x="193.0" y="208.0" width="64.0" height="88.0" rx="5.0" fill="#a33b2a"/><rect x="205.0" y="224.0" width="40.0" height="5.0" fill="#ffffff" opacity="0.85"/><rect x="205.0" y="241.0" width="40.0" height="5.0" fill="#ffffff" opacity="0.85"/><rect x="205.0" y="258.0" width="40.0" height="5.0" fill="#ffffff" opacity="0.85"/><rect x="205.0" y="275.0" width="40.0" height="5.0" fill="#ffffff" opacity="0.85"/>
<text x="225" y="336" text-anchor="middle" font-size="13.0" font-weight="normal" fill="#2d2d2d">Submitted another&#x27;s work as</text>
<text x="225" y="353" text-anchor="middle" font-size="13.0" font-weight="normal" fill="#2d2d2d">your own</text>
<text x="225" y="378" text-anchor="middle" font-size="11.5" font-weight="normal" fill="#777777">truth mixed with falsehood</text>
<rect x="420" y="130" width="310" height="316" rx="14" fill="#ffffff" stroke="#2e6f40" stroke-width="2" opacity="0.95"/>
<text x="575" y="162" text-anchor="middle" font-size="15.0" font-weight="bold" fill="#2e6f40">✓  Cited</text>
<path d="M 575.0 218.0 C 545.0 202.0 523.0 212.0 523.0 218.0 L 523.0 286.0 C 523.0 280.0 545.0 272.0 575.0 286.0 C 605.0 272.0 627.0 280.0 627.0 286.0 L 627.0 218.0 C 627.0 212.0 605.0 202.0 575.0 218.0 Z" fill="#2e6f40"/><line x1="575.0" y1="218.0" x2="575.0" y2="286.0" stroke="#ffffff" stroke-width="3.5"/>
<text x="575" y="336" text-anchor="middle" font-size="13.0" font-weight="normal" fill="#2d2d2d">Credited every borrowed idea</text>
<text x="575" y="361" text-anchor="middle" font-size="11.5" font-weight="normal" fill="#777777">the record stays honest</text>
<line x1="400" y1="140" x2="400" y2="436" stroke="#c9c2b4" stroke-dasharray="5 5"/>
<line x1="90" y1="516" x2="710" y2="516" stroke="#c9c2b4" stroke-width="1"/>
<text x="400" y="540" text-anchor="middle" font-size="13.0" font-weight="normal" fill="#2d2d2d">Copying a classmate&#x27;s paper and submitting it as your own breaks the trust of honest</text>
<text x="400" y="559" text-anchor="middle" font-size="13.0" font-weight="normal" fill="#2d2d2d">work; citing what you borrowed keeps the record true.</text>
<text x="400" y="602" text-anchor="middle" font-size="12.0" font-weight="bold" fill="#a45c40">Q2:42 — do not mix truth with falsehood</text>
</svg>
