<svg xmlns="http://www.w3.org/2000/svg" viewBox="0 0 800 620" width="800" height="620" font-family="Georgia, 'Noto Serif', serif">
<defs><marker id="ar" viewBox="0 0 10 10" refX="9" refY="5" markerWidth="7" markerHeight="7" orient="auto-start-reverse"><path d="M 0 0 L 10 5 L 0 10 z" fill="#2d2d2d"/></marker></defs>
<rect x="0" y="0" width="800" height="620" fill="#faf8f3"/>
<rect x="0" y="0" width="800" height="7" fill="#0f5257"/>
<text x="400" y="46" text-anchor="middle" font-size="11.0" font-weight="normal" fill="#777777">FAMILY &amp; PERSONAL LIFE</text>
<text x="400" y="78" text-anchor="middle" font-size="24.0" font-weight="bold" fill="#2d2d2d">Tranquility, Not Convenience</text>
<line x1="400.0" y1="216.0" x2="400.0" y2="180.0" stroke="#0f5257" stroke-width="2" opacity="0.6"/>
<circle cx="400.0" cy="140.0" r="38" fill="#ffffff" stroke="#0f5257" stroke-width="2"/>
<path d="M 400.0 152.0 C 375.2 136.8 385.6 118.4 400.0 130.4 C 414.4 118.4 424.8 136.8 400.0 152.0 Z" fill="#0f5257"/>
<text x="400" y="196" text-anchor="middle" font-size="12.0" font-weight="normal" fill="#2d2d2d">Tranquility</text>
<line x1="457.2" y1="315.0" x2="488.3" y2="333.0" stroke="#0f5257" stroke-width="2" opacity="0.6"/>
<circle cx="523.0" cy="353.0" r="38" fill="#ffffff" stroke="#0f5257" stroke-width="2"/>
<path d="M 523.0 365.0 C 498.2 349.8 508.6 331.4 523.0 343.4 C 537.4 331.4 547.8 349.8 523.0 365.0 Z" fill="#0f5257"/>
<text x="523" y="409" text-anchor="middle" font-size="12.0" font-weight="normal" fill="#2d2d2d">Affection</text>
<line x1="342.8" y1="315.0" x2="311.7" y2="333.0" stroke="#0f5257" stroke-width="2" opacity="0.6"/>
<circle cx="277.0" cy="353.0" r="38" fill="#ffffff" stroke="#0f5257" stroke-width="2"/>
<path d="M 277.0 330.6 C 290.6 347.4 291.4 366.6 277.0 366.6 C 262.6 366.6 263.4 347.4 277.0 330.6 Z" fill="#0f5257"/>
<text x="277" y="409" text-anchor="middle" font-size="12.0" font-weight="normal" fill="#2d2d2d">Mercy</text>
<circle cx="400" cy="282" r="62" fill="#0f5257"/>
<text x="400" y="284" text-anchor="middle" font-size="14.0" font-weight="bold" fill="#faf8f3">Marriage&#x27;s</text>
<text x="400" y="300" text-anchor="middle" font-size="14.0" font-weight="bold" fill="#faf8f3">stated</text>
<text x="400" y="316" text-anchor="middle" font-size="14.0" font-weight="bold" fill="#faf8f3">purpose</text>
<line x1="90" y1="516" x2="710" y2="516" stroke="#c9c2b4" stroke-width="1"/>
<text x="400" y="540" text-anchor="middle" font-size="13.0" font-weight="normal" fill="#2d2d2d">Marriage is framed as a sign of design: mates given so that spouses find tranquility,</text>
<text x="400" y="559" text-anchor="middle" font-size="13.0" font-weight="normal" fill="#2d2d2d">with affection and mercy placed between them.</text>
<text x="400" y="602" text-anchor="middle" font-size="12.0" font-weight="bold" fill="#0f5257">Q30:21</text>
</svg>
