<svg xmlns="http://www.w3.org/2000/svg" viewBox="0 0 800 620" width="800" height="620" font-family="Georgia, 'Noto Serif', serif">
<defs><marker id="ar" viewBox="0 0 10 10" refX="9" refY="5" markerWidth="7" markerHeight="7" orient="auto-start-reverse"><path d="M 0 0 L 10 5 L 0 10 z" fill="#2d2d2d"/></marker></defs>
<rect x="0" y="0" width="800" height="620" fill="#faf8f3"/>
<rect x="0" y="0" width="800" height="7" fill="#4a4a68"/>
<text x="400" y="46" text-anchor="middle" font-size="11.0" font-weight="normal" fill="#777777">HEALTH, BODY &amp; MEDICINE</text>
<text x="400" y="78" text-anchor="middle" font-size="24.0" font-weight="bold" fill="#2d2d2d">The Ramp No One Built</text>
<rect x="188" y="161" width="200" height="128" rx="12" fill="#ffffff" stroke="#4a4a68" stroke-width="1.8"/>
<rect x="269.6" y="184.6" width="36.8" height="36.8" fill="#4a4a68"/><rect x="275.1" y="190.1" width="5.1" height="5.1" fill="#ffffff" opacity="0.8"/><rect x="285.2" y="190.1" width="5.1" height="5.1" fill="#ffffff" opacity="0.8"/><rect x="295.4" y="190.1" width="5.1" height="5.1" fill="#ffffff" opacity="0.8"/><rect x="275.1" y="200.2" width="5.1" height="5.1" fill="#ffffff" opacity="0.8"/><rect x="285.2" y="200.2" width="5.1" height="5.1" fill="#ffffff" opacity="0.8"/><rect x="295.4" y="200.2" width="5.1" height="5.1" fill="#ffffff" opacity="0.8"/><rect x="275.1" y="210.4" width="5.1" height="5.1" fill="#ffffff" opacity="0.8"/><rect x="285.2" y="210.4" width="5.1" height="5.1" fill="#ffffff" opacity="0.8"/><rect x="295.4" y="210.4" width="5.1" height="5.1" fill="#ffffff" opacity="0.8"/>
<text x="288" y="249" text-anchor="middle" font-size="12.0" font-weight="bold" fill="#2d2d2d">Access to worship</text>
<rect x="412" y="161" width="200" height="128" rx="12" fill="#ffffff" stroke="#4a4a68" stroke-width="1.8"/>
<path d="M 489.0 203.0 L 512.0 182.3 L 535.0 203.0 Z" fill="#4a4a68"/><rect x="495.4" y="203.0" width="33.1" height="21.2" fill="#4a4a68" opacity="0.85"/>
<text x="512" y="249" text-anchor="middle" font-size="12.0" font-weight="bold" fill="#2d2d2d">Access to home</text>
<rect x="188" y="311" width="200" height="128" rx="12" fill="#ffffff" stroke="#4a4a68" stroke-width="1.8"/>
<path d="M 288.0 371.4 C 259.5 353.9 271.4 332.8 288.0 346.6 C 304.6 332.8 316.5 353.9 288.0 371.4 Z" fill="#4a4a68"/>
<text x="288" y="399" text-anchor="middle" font-size="12.0" font-weight="bold" fill="#2d2d2d">Access to care</text>
<rect x="412" y="311" width="200" height="128" rx="12" fill="#ffffff" stroke="#4a4a68" stroke-width="1.8"/>
<circle cx="512.0" cy="342.2" r="7.2" fill="#4a4a68"/><path d="M 499.1 371.7 a 12.9 16.5 0 0 1 25.8 0 Z" fill="#4a4a68"/><g opacity="0.55"><circle cx="488.1" cy="346.7" r="6.1" fill="#4a4a68"/><path d="M 477.2 371.5 a 10.9 14.0 0 0 1 21.9 0 Z" fill="#4a4a68"/></g><g opacity="0.55"><circle cx="535.9" cy="346.7" r="6.1" fill="#4a4a68"/><path d="M 525.0 371.5 a 10.9 14.0 0 0 1 21.9 0 Z" fill="#4a4a68"/></g>
<text x="512" y="399" text-anchor="middle" font-size="12.0" font-weight="bold" fill="#2d2d2d">Access to community</text>
<line x1="90" y1="516" x2="710" y2="516" stroke="#c9c2b4" stroke-width="1"/>
<text x="400" y="540" text-anchor="middle" font-size="13.0" font-weight="normal" fill="#2d2d2d">A disabled worshipper&#x27;s access to the mosque, the clinic, and the street is a communal</text>
<text x="400" y="559" text-anchor="middle" font-size="13.0" font-weight="normal" fill="#2d2d2d">debt, not a matter of charity extended when convenient.</text>
<text x="400" y="602" text-anchor="middle" font-size="12.0" font-weight="bold" fill="#4a4a68">hadith — la darar wa la dirar (no harm, no reciprocating harm)</text>
</svg>
