<svg xmlns="http://www.w3.org/2000/svg" viewBox="0 0 800 620" width="800" height="620" font-family="Georgia, 'Noto Serif', serif">
<defs><marker id="ar" viewBox="0 0 10 10" refX="9" refY="5" markerWidth="7" markerHeight="7" orient="auto-start-reverse"><path d="M 0 0 L 10 5 L 0 10 z" fill="#2d2d2d"/></marker></defs>
<rect x="0" y="0" width="800" height="620" fill="#faf8f3"/>
<rect x="0" y="0" width="800" height="7" fill="#2e6f40"/>
<text x="400" y="46" text-anchor="middle" font-size="11.0" font-weight="normal" fill="#777777">JUSTICE &amp; ACCOUNTABILITY</text>
<text x="400" y="78" text-anchor="middle" font-size="24.0" font-weight="bold" fill="#2d2d2d">The Final Audit of Every Covenant</text>
<rect x="81" y="200" width="140" height="150" rx="12" fill="#2e6f40" opacity="0.55"/>
<rect x="131.2" y="222.7" width="39.7" height="54.6" rx="3.1" fill="#faf8f3"/><rect x="138.6" y="232.6" width="24.8" height="3.1" fill="#2e6f40" opacity="0.85"/><rect x="138.6" y="243.2" width="24.8" height="3.1" fill="#2e6f40" opacity="0.85"/><rect x="138.6" y="253.7" width="24.8" height="3.1" fill="#2e6f40" opacity="0.85"/><rect x="138.6" y="264.3" width="24.8" height="3.1" fill="#2e6f40" opacity="0.85"/>
<text x="151" y="302" text-anchor="middle" font-size="12.5" font-weight="bold" fill="#faf8f3">Covenant made</text>
<line x1="225" y1="275" x2="241" y2="275" stroke="#2d2d2d" stroke-width="2" marker-end="url(#ar)"/>
<rect x="247" y="200" width="140" height="150" rx="12" fill="#2e6f40" opacity="0.70"/>
<circle cx="317.0" cy="250.0" r="27.3" fill="none" stroke="#faf8f3" stroke-width="5.6"/><line x1="317.0" y1="250.0" x2="317.0" y2="233.9" stroke="#faf8f3" stroke-width="4.3"/><line x1="317.0" y1="250.0" x2="329.4" y2="256.2" stroke="#faf8f3" stroke-width="4.3"/>
<text x="317" y="302" text-anchor="middle" font-size="12.5" font-weight="bold" fill="#faf8f3">Time passes</text>
<line x1="391" y1="275" x2="407" y2="275" stroke="#2d2d2d" stroke-width="2" marker-end="url(#ar)"/>
<rect x="413" y="200" width="140" height="150" rx="12" fill="#2e6f40" opacity="0.85"/>
<line x1="483.0" y1="222.7" x2="483.0" y2="274.8" stroke="#faf8f3" stroke-width="3.7"/><line x1="455.7" y1="228.9" x2="510.3" y2="228.9" stroke="#faf8f3" stroke-width="3.7"/><path d="M 444.6 243.8 L 466.9 243.8 L 455.7 258.7 Z" fill="#faf8f3"/><path d="M 499.1 243.8 L 521.4 243.8 L 510.3 258.7 Z" fill="#faf8f3"/><rect x="468.1" y="274.8" width="29.8" height="5.0" fill="#faf8f3"/>
<text x="483" y="302" text-anchor="middle" font-size="12.5" font-weight="bold" fill="#faf8f3">Deeds weighed</text>
<line x1="557" y1="275" x2="573" y2="275" stroke="#2d2d2d" stroke-width="2" marker-end="url(#ar)"/>
<rect x="579" y="200" width="140" height="150" rx="12" fill="#2e6f40" opacity="1.00"/>
<polygon points="649.0,221.5 655.9,240.5 676.1,241.2 660.2,253.6 665.8,273.1 649.0,261.8 632.2,273.1 637.8,253.6 621.9,241.2 642.1,240.5" fill="#faf8f3"/>
<text x="649" y="302" text-anchor="middle" font-size="12.5" font-weight="bold" fill="#faf8f3">Every pledge</text>
<text x="649" y="317" text-anchor="middle" font-size="12.5" font-weight="bold" fill="#faf8f3">asked</text>
<text x="400" y="392" text-anchor="middle" font-size="12.5" font-weight="normal" fill="#777777">inna l-ʿahda kāna masʾūlan — the covenant will be asked about</text>
<line x1="90" y1="516" x2="710" y2="516" stroke="#c9c2b4" stroke-width="1"/>
<text x="400" y="540" text-anchor="middle" font-size="13.0" font-weight="normal" fill="#2d2d2d">The reckoning is described as a settling of accounts where every covenant kept or broken</text>
<text x="400" y="559" text-anchor="middle" font-size="13.0" font-weight="normal" fill="#2d2d2d">is asked about, none forgotten for being small.</text>
<text x="400" y="602" text-anchor="middle" font-size="12.0" font-weight="bold" fill="#2e6f40">Q17:34</text>
</svg>
