<svg xmlns="http://www.w3.org/2000/svg" viewBox="0 0 800 620" width="800" height="620" font-family="Georgia, 'Noto Serif', serif">
<defs><marker id="ar" viewBox="0 0 10 10" refX="9" refY="5" markerWidth="7" markerHeight="7" orient="auto-start-reverse"><path d="M 0 0 L 10 5 L 0 10 z" fill="#2d2d2d"/></marker></defs>
<rect x="0" y="0" width="800" height="620" fill="#faf8f3"/>
<rect x="0" y="0" width="800" height="7" fill="#2e6f40"/>
<text x="400" y="46" text-anchor="middle" font-size="11.0" font-weight="normal" fill="#777777">JUSTICE &amp; ACCOUNTABILITY</text>
<text x="400" y="78" text-anchor="middle" font-size="24.0" font-weight="bold" fill="#2d2d2d">The Ledger No One Kept</text>
<path d="M 250 150 L 550 150 L 550 300 C 550 372 486 420 400 440 C 314 420 250 372 250 300 Z" fill="#2e6f40" opacity="0.10" stroke="#2e6f40" stroke-width="2.5"/>
<text x="400" y="176" text-anchor="middle" font-size="13.0" font-weight="bold" fill="#2e6f40">held for the reckoning</text>
<circle cx="335" cy="232" r="31" fill="#ffffff" stroke="#2e6f40" stroke-width="1.5"/>
<rect x="324.1" y="215.0" width="21.8" height="29.9" rx="1.7" fill="#2e6f40"/><rect x="328.2" y="220.5" width="13.6" height="1.7" fill="#ffffff" opacity="0.85"/><rect x="328.2" y="226.3" width="13.6" height="1.7" fill="#ffffff" opacity="0.85"/><rect x="328.2" y="232.0" width="13.6" height="1.7" fill="#ffffff" opacity="0.85"/><rect x="328.2" y="237.8" width="13.6" height="1.7" fill="#ffffff" opacity="0.85"/>
<text x="335" y="282" text-anchor="middle" font-size="11.5" font-weight="normal" fill="#2d2d2d">The agreement</text>
<circle cx="465" cy="232" r="31" fill="#ffffff" stroke="#2e6f40" stroke-width="1.5"/>
<circle cx="465.0" cy="230.0" r="15.0" fill="none" stroke="#2e6f40" stroke-width="3.1"/><line x1="465.0" y1="230.0" x2="465.0" y2="221.2" stroke="#2e6f40" stroke-width="2.4"/><line x1="465.0" y1="230.0" x2="471.8" y2="233.4" stroke="#2e6f40" stroke-width="2.4"/>
<text x="465" y="282" text-anchor="middle" font-size="11.5" font-weight="normal" fill="#2d2d2d">The dates</text>
<circle cx="335" cy="328" r="31" fill="#ffffff" stroke="#2e6f40" stroke-width="1.5"/>
<circle cx="335.0" cy="315.8" r="6.8" fill="#2e6f40"/><path d="M 322.8 343.7 a 12.2 15.6 0 0 1 24.5 0 Z" fill="#2e6f40"/>
<text x="335" y="378" text-anchor="middle" font-size="11.5" font-weight="normal" fill="#2d2d2d">The witnesses</text>
<text x="400" y="480" text-anchor="middle" font-size="13.0" font-weight="bold" fill="#2d2d2d">documentation protects the weaker party most</text>
<line x1="90" y1="516" x2="710" y2="516" stroke="#c9c2b4" stroke-width="1"/>
<text x="400" y="540" text-anchor="middle" font-size="13.0" font-weight="normal" fill="#2d2d2d">Without records, a dispute becomes he-said-she-said. Writing terms down is itself part</text>
<text x="400" y="559" text-anchor="middle" font-size="13.0" font-weight="normal" fill="#2d2d2d">of guarding the trust between parties.</text>
<text x="400" y="602" text-anchor="middle" font-size="12.0" font-weight="bold" fill="#2e6f40">Q2:282</text>
</svg>
