<svg xmlns="http://www.w3.org/2000/svg" viewBox="0 0 800 620" width="800" height="620" font-family="Georgia, 'Noto Serif', serif">
<defs><marker id="ar" viewBox="0 0 10 10" refX="9" refY="5" markerWidth="7" markerHeight="7" orient="auto-start-reverse"><path d="M 0 0 L 10 5 L 0 10 z" fill="#2d2d2d"/></marker></defs>
<rect x="0" y="0" width="800" height="620" fill="#faf8f3"/>
<rect x="0" y="0" width="800" height="7" fill="#2e6f40"/>
<text x="400" y="46" text-anchor="middle" font-size="11.0" font-weight="normal" fill="#777777">JUSTICE &amp; ACCOUNTABILITY</text>
<text x="400" y="78" text-anchor="middle" font-size="24.0" font-weight="bold" fill="#2d2d2d">The Case Left to Grow Cold</text>
<rect x="70" y="130" width="310" height="316" rx="14" fill="#ffffff" stroke="#a33b2a" stroke-width="2" opacity="0.95"/>
<text x="225" y="162" text-anchor="middle" font-size="15.0" font-weight="bold" fill="#a33b2a">✗  Stalled</text>
<circle cx="225.0" cy="252.0" r="44.0" fill="none" stroke="#a33b2a" stroke-width="9.0"/><line x1="225.0" y1="252.0" x2="225.0" y2="226.0" stroke="#a33b2a" stroke-width="7.0"/><line x1="225.0" y1="252.0" x2="245.0" y2="262.0" stroke="#a33b2a" stroke-width="7.0"/>
<text x="225" y="336" text-anchor="middle" font-size="13.0" font-weight="normal" fill="#2d2d2d">Case shelved for years</text>
<text x="225" y="361" text-anchor="middle" font-size="11.5" font-weight="normal" fill="#777777">harm compounds</text>
<rect x="420" y="130" width="310" height="316" rx="14" fill="#ffffff" stroke="#2e6f40" stroke-width="2" opacity="0.95"/>
<text x="575" y="162" text-anchor="middle" font-size="15.0" font-weight="bold" fill="#2e6f40">✓  Timely</text>
<line x1="575.0" y1="208.0" x2="575.0" y2="292.0" stroke="#2e6f40" stroke-width="6.0"/><line x1="531.0" y1="218.0" x2="619.0" y2="218.0" stroke="#2e6f40" stroke-width="6.0"/><path d="M 513.0 242.0 L 549.0 242.0 L 531.0 266.0 Z" fill="#2e6f40"/><path d="M 601.0 242.0 L 637.0 242.0 L 619.0 266.0 Z" fill="#2e6f40"/><rect x="551.0" y="292.0" width="48.0" height="8.0" fill="#2e6f40"/>
<text x="575" y="336" text-anchor="middle" font-size="13.0" font-weight="normal" fill="#2d2d2d">Case resolved promptly</text>
<text x="575" y="361" text-anchor="middle" font-size="11.5" font-weight="normal" fill="#777777">harm is checked</text>
<line x1="400" y1="140" x2="400" y2="436" stroke="#c9c2b4" stroke-dasharray="5 5"/>
<line x1="90" y1="516" x2="710" y2="516" stroke="#c9c2b4" stroke-width="1"/>
<text x="400" y="540" text-anchor="middle" font-size="13.0" font-weight="normal" fill="#2d2d2d">Justice delayed past reason is its own harm to the wronged party, even if the eventual</text>
<text x="400" y="559" text-anchor="middle" font-size="13.0" font-weight="normal" fill="#2d2d2d">verdict is correct.</text>
<text x="400" y="602" text-anchor="middle" font-size="12.0" font-weight="bold" fill="#2e6f40">Q17:34</text>
</svg>
