<svg xmlns="http://www.w3.org/2000/svg" viewBox="0 0 800 620" width="800" height="620" font-family="Georgia, 'Noto Serif', serif">
<defs><marker id="ar" viewBox="0 0 10 10" refX="9" refY="5" markerWidth="7" markerHeight="7" orient="auto-start-reverse"><path d="M 0 0 L 10 5 L 0 10 z" fill="#2d2d2d"/></marker></defs>
<rect x="0" y="0" width="800" height="620" fill="#faf8f3"/>
<rect x="0" y="0" width="800" height="7" fill="#4a4a68"/>
<text x="400" y="46" text-anchor="middle" font-size="11.0" font-weight="normal" fill="#777777">SPEECH, MEDIA &amp; TESTIMONY</text>
<text x="400" y="78" text-anchor="middle" font-size="24.0" font-weight="bold" fill="#2d2d2d">Speaking for the Committee It Never Elected</text>
<text x="400" y="106" text-anchor="middle" font-size="24.0" font-weight="bold" fill="#2d2d2d">You To</text>
<line x1="400.0" y1="216.0" x2="400.0" y2="180.0" stroke="#4a4a68" stroke-width="2" opacity="0.6"/>
<circle cx="400.0" cy="140.0" r="38" fill="#ffffff" stroke="#4a4a68" stroke-width="2"/>
<circle cx="400.0" cy="126.6" r="6.2" fill="#4a4a68"/><path d="M 388.8 152.2 a 11.2 14.4 0 0 1 22.5 0 Z" fill="#4a4a68"/><g opacity="0.55"><circle cx="379.2" cy="130.5" r="5.3" fill="#4a4a68"/><path d="M 369.7 152.1 a 9.5 12.1 0 0 1 19.0 0 Z" fill="#4a4a68"/></g><g opacity="0.55"><circle cx="420.8" cy="130.5" r="5.3" fill="#4a4a68"/><path d="M 411.3 152.1 a 9.5 12.1 0 0 1 19.0 0 Z" fill="#4a4a68"/></g>
<text x="400" y="196" text-anchor="middle" font-size="12.0" font-weight="normal" fill="#2d2d2d">No vote taken</text>
<line x1="466.0" y1="282.0" x2="502.0" y2="282.0" stroke="#4a4a68" stroke-width="2" opacity="0.6"/>
<circle cx="542.0" cy="282.0" r="38" fill="#ffffff" stroke="#4a4a68" stroke-width="2"/>
<rect x="530.8" y="259.6" width="22.4" height="36.8" rx="3.6" fill="#4a4a68"/><rect x="534.0" y="264.4" width="16.0" height="23.2" fill="#ffffff" opacity="0.9"/>
<text x="542" y="338" text-anchor="middle" font-size="12.0" font-weight="normal" fill="#2d2d2d">Statement issued</text>
<line x1="400.0" y1="348.0" x2="400.0" y2="384.0" stroke="#4a4a68" stroke-width="2" opacity="0.6"/>
<circle cx="400.0" cy="424.0" r="38" fill="#ffffff" stroke="#4a4a68" stroke-width="2"/>
<path d="M 400.0 400.8 L 416.0 408.0 L 416.0 424.0 C 416.0 433.6 408.0 438.4 400.0 440.8 C 392.0 438.4 384.0 433.6 384.0 424.0 L 384.0 408.0 Z" fill="#4a4a68"/>
<text x="400" y="480" text-anchor="middle" font-size="12.0" font-weight="normal" fill="#2d2d2d">Trust misused</text>
<line x1="334.0" y1="282.0" x2="298.0" y2="282.0" stroke="#4a4a68" stroke-width="2" opacity="0.6"/>
<circle cx="258.0" cy="282.0" r="38" fill="#ffffff" stroke="#4a4a68" stroke-width="2"/>
<circle cx="258.0" cy="266.0" r="8.0" fill="#4a4a68"/><path d="M 243.6 298.8 a 14.4 18.4 0 0 1 28.8 0 Z" fill="#4a4a68"/>
<text x="258" y="338" text-anchor="middle" font-size="12.0" font-weight="normal" fill="#2d2d2d">Group unheard</text>
<circle cx="400" cy="282" r="62" fill="#4a4a68"/>
<text x="400" y="284" text-anchor="middle" font-size="14.0" font-weight="bold" fill="#faf8f3">Unmandated</text>
<text x="400" y="300" text-anchor="middle" font-size="14.0" font-weight="bold" fill="#faf8f3">spokesperson</text>
<line x1="90" y1="516" x2="710" y2="516" stroke="#c9c2b4" stroke-width="1"/>
<text x="400" y="540" text-anchor="middle" font-size="13.0" font-weight="normal" fill="#2d2d2d">Claiming to speak for a group without their mandate borrows their voice without their</text>
<text x="400" y="559" text-anchor="middle" font-size="13.0" font-weight="normal" fill="#2d2d2d">consent, a small usurpation of collective trust.</text>
<text x="400" y="602" text-anchor="middle" font-size="12.0" font-weight="bold" fill="#4a4a68">Q4:58</text>
</svg>
