<svg xmlns="http://www.w3.org/2000/svg" viewBox="0 0 800 620" width="800" height="620" font-family="Georgia, 'Noto Serif', serif">
<defs><marker id="ar" viewBox="0 0 10 10" refX="9" refY="5" markerWidth="7" markerHeight="7" orient="auto-start-reverse"><path d="M 0 0 L 10 5 L 0 10 z" fill="#2d2d2d"/></marker></defs>
<rect x="0" y="0" width="800" height="620" fill="#faf8f3"/>
<rect x="0" y="0" width="800" height="7" fill="#a45c40"/>
<text x="400" y="46" text-anchor="middle" font-size="11.0" font-weight="normal" fill="#777777">SPEECH, MEDIA &amp; TESTIMONY</text>
<text x="400" y="78" text-anchor="middle" font-size="24.0" font-weight="bold" fill="#2d2d2d">Writing Down What Was Actually Said</text>
<rect x="81" y="200" width="140" height="150" rx="12" fill="#a45c40" opacity="0.55"/>
<circle cx="151.0" cy="231.4" r="12.4" fill="#faf8f3"/><path d="M 128.7 282.2 a 22.3 28.5 0 0 1 44.6 0 Z" fill="#faf8f3"/>
<text x="151" y="302" text-anchor="middle" font-size="12.5" font-weight="bold" fill="#faf8f3">Terms agreed</text>
<line x1="225" y1="275" x2="241" y2="275" stroke="#2d2d2d" stroke-width="2" marker-end="url(#ar)"/>
<rect x="247" y="200" width="140" height="150" rx="12" fill="#a45c40" opacity="0.70"/>
<rect x="297.2" y="222.7" width="39.7" height="54.6" rx="3.1" fill="#faf8f3"/><rect x="304.6" y="232.6" width="24.8" height="3.1" fill="#a45c40" opacity="0.85"/><rect x="304.6" y="243.2" width="24.8" height="3.1" fill="#a45c40" opacity="0.85"/><rect x="304.6" y="253.7" width="24.8" height="3.1" fill="#a45c40" opacity="0.85"/><rect x="304.6" y="264.3" width="24.8" height="3.1" fill="#a45c40" opacity="0.85"/>
<text x="317" y="302" text-anchor="middle" font-size="12.5" font-weight="bold" fill="#faf8f3">Scribe writes</text>
<line x1="391" y1="275" x2="407" y2="275" stroke="#2d2d2d" stroke-width="2" marker-end="url(#ar)"/>
<rect x="413" y="200" width="140" height="150" rx="12" fill="#a45c40" opacity="0.85"/>
<circle cx="483.0" cy="235.5" r="9.7" fill="#faf8f3"/><path d="M 465.6 275.1 a 17.4 22.2 0 0 1 34.8 0 Z" fill="#faf8f3"/><g opacity="0.55"><circle cx="450.8" cy="241.4" r="8.2" fill="#faf8f3"/><path d="M 436.0 275.0 a 14.7 18.8 0 0 1 29.5 0 Z" fill="#faf8f3"/></g><g opacity="0.55"><circle cx="515.2" cy="241.4" r="8.2" fill="#faf8f3"/><path d="M 500.5 275.0 a 14.7 18.8 0 0 1 29.5 0 Z" fill="#faf8f3"/></g>
<text x="483" y="302" text-anchor="middle" font-size="12.5" font-weight="bold" fill="#faf8f3">Witnesses sign</text>
<line x1="557" y1="275" x2="573" y2="275" stroke="#2d2d2d" stroke-width="2" marker-end="url(#ar)"/>
<rect x="579" y="200" width="140" height="150" rx="12" fill="#a45c40" opacity="1.00"/>
<path d="M 635.4 246.3 L 635.4 233.9 a 13.6 13.6 0 0 1 27.3 0 L 662.6 246.3" fill="none" stroke="#faf8f3" stroke-width="5.6"/><rect x="627.9" y="246.3" width="42.2" height="29.8" rx="3.7" fill="#faf8f3"/>
<text x="649" y="302" text-anchor="middle" font-size="12.5" font-weight="bold" fill="#faf8f3">Record kept</text>
<text x="400" y="392" text-anchor="middle" font-size="12.5" font-weight="normal" fill="#777777">the longest ayah in the Quran concerns this duty</text>
<line x1="90" y1="516" x2="710" y2="516" stroke="#c9c2b4" stroke-width="1"/>
<text x="400" y="540" text-anchor="middle" font-size="13.0" font-weight="normal" fill="#2d2d2d">A debt agreed by word alone should still be recorded and witnessed. Memory fades; the</text>
<text x="400" y="559" text-anchor="middle" font-size="13.0" font-weight="normal" fill="#2d2d2d">covenant needs a durable trace.</text>
<text x="400" y="602" text-anchor="middle" font-size="12.0" font-weight="bold" fill="#a45c40">Q2:282</text>
</svg>
