<svg xmlns="http://www.w3.org/2000/svg" viewBox="0 0 800 620" width="800" height="620" font-family="Georgia, 'Noto Serif', serif">
<defs><marker id="ar" viewBox="0 0 10 10" refX="9" refY="5" markerWidth="7" markerHeight="7" orient="auto-start-reverse"><path d="M 0 0 L 10 5 L 0 10 z" fill="#2d2d2d"/></marker></defs>
<rect x="0" y="0" width="800" height="620" fill="#faf8f3"/>
<rect x="0" y="0" width="800" height="7" fill="#a45c40"/>
<text x="400" y="46" text-anchor="middle" font-size="11.0" font-weight="normal" fill="#777777">TRAVEL, MIGRATION &amp; HOSPITALITY</text>
<text x="400" y="78" text-anchor="middle" font-size="24.0" font-weight="bold" fill="#2d2d2d">The Money Wired Home Every Month</text>
<line x1="400" y1="170" x2="400" y2="380" stroke="#a45c40" stroke-width="7"/>
<rect x="330" y="380" width="140" height="14" rx="4" fill="#a45c40"/>
<line x1="200" y1="200" x2="600" y2="200" stroke="#a45c40" stroke-width="6"/>
<circle cx="400" cy="200" r="13" fill="#2d2d2d"/>
<line x1="215" y1="200" x2="215" y2="252" stroke="#a45c40" stroke-width="2"/>
<path d="M 143 252 L 287 252 L 261 306 L 169 306 Z" fill="#ffffff" stroke="#a45c40" stroke-width="2"/>
<ellipse cx="215.0" cy="289.4" rx="17.6" ry="5.7" fill="#a45c40" opacity="0.60"/><ellipse cx="215.0" cy="279.8" rx="17.6" ry="5.7" fill="#a45c40" opacity="0.80"/><ellipse cx="215.0" cy="270.1" rx="17.6" ry="5.7" fill="#a45c40" opacity="1.00"/>
<text x="215" y="336" text-anchor="middle" font-size="13.5" font-weight="bold" fill="#2d2d2d">Wages earned abroad</text>
<text x="215" y="352" text-anchor="middle" font-size="11.5" font-weight="normal" fill="#777777">what was promised home</text>
<line x1="585" y1="200" x2="585" y2="252" stroke="#a45c40" stroke-width="2"/>
<path d="M 513 252 L 657 252 L 631 306 L 539 306 Z" fill="#ffffff" stroke="#a45c40" stroke-width="2"/>
<path d="M 563.0 278.0 L 585.0 258.2 L 607.0 278.0 Z" fill="#a45c40"/><rect x="569.2" y="278.0" width="31.7" height="20.2" fill="#a45c40" opacity="0.85"/>
<text x="585" y="336" text-anchor="middle" font-size="13.5" font-weight="bold" fill="#2d2d2d">Family relying on it</text>
<text x="585" y="352" text-anchor="middle" font-size="11.5" font-weight="normal" fill="#777777">what they were counting on</text>
<text x="400" y="424" text-anchor="middle" font-size="12.5" font-weight="normal" fill="#777777">the promise made at departure still binds</text>
<line x1="90" y1="516" x2="710" y2="516" stroke="#c9c2b4" stroke-width="1"/>
<text x="400" y="540" text-anchor="middle" font-size="13.0" font-weight="normal" fill="#2d2d2d">A remittance promised to family back home is a debt of care, not a leftover; spending it</text>
<text x="400" y="559" text-anchor="middle" font-size="13.0" font-weight="normal" fill="#2d2d2d">away first breaks a quiet vow.</text>
<text x="400" y="602" text-anchor="middle" font-size="12.0" font-weight="bold" fill="#a45c40">Q17:34 — fulfil the covenant</text>
</svg>
