<svg xmlns="http://www.w3.org/2000/svg" viewBox="0 0 800 620" width="800" height="620" font-family="Georgia, 'Noto Serif', serif">
<defs><marker id="ar" viewBox="0 0 10 10" refX="9" refY="5" markerWidth="7" markerHeight="7" orient="auto-start-reverse"><path d="M 0 0 L 10 5 L 0 10 z" fill="#2d2d2d"/></marker></defs>
<rect x="0" y="0" width="800" height="620" fill="#faf8f3"/>
<rect x="0" y="0" width="800" height="7" fill="#a45c40"/>
<text x="400" y="46" text-anchor="middle" font-size="11.0" font-weight="normal" fill="#777777">TRAVEL, MIGRATION &amp; HOSPITALITY</text>
<text x="400" y="78" text-anchor="middle" font-size="24.0" font-weight="bold" fill="#2d2d2d">The New Family on Your Street</text>
<line x1="400.0" y1="216.0" x2="400.0" y2="180.0" stroke="#a45c40" stroke-width="2" opacity="0.6"/>
<circle cx="400.0" cy="140.0" r="38" fill="#ffffff" stroke="#a45c40" stroke-width="2"/>
<path d="M 380.0 141.6 L 396.0 129.6 L 404.0 129.6 L 420.0 141.6 L 413.6 148.0 L 400.0 138.4 L 386.4 148.0 Z" fill="#a45c40"/>
<text x="400" y="196" text-anchor="middle" font-size="12.0" font-weight="normal" fill="#2d2d2d">Greeted</text>
<line x1="466.0" y1="282.0" x2="502.0" y2="282.0" stroke="#a45c40" stroke-width="2" opacity="0.6"/>
<circle cx="542.0" cy="282.0" r="38" fill="#ffffff" stroke="#a45c40" stroke-width="2"/>
<path d="M 542.0 258.8 L 558.0 266.0 L 558.0 282.0 C 558.0 291.6 550.0 296.4 542.0 298.8 C 534.0 296.4 526.0 291.6 526.0 282.0 L 526.0 266.0 Z" fill="#a45c40"/>
<text x="542" y="338" text-anchor="middle" font-size="12.0" font-weight="normal" fill="#2d2d2d">Protected</text>
<line x1="400.0" y1="348.0" x2="400.0" y2="384.0" stroke="#a45c40" stroke-width="2" opacity="0.6"/>
<circle cx="400.0" cy="424.0" r="38" fill="#ffffff" stroke="#a45c40" stroke-width="2"/>
<path d="M 400.0 436.0 C 375.2 420.8 385.6 402.4 400.0 414.4 C 414.4 402.4 424.8 420.8 400.0 436.0 Z" fill="#a45c40"/>
<text x="400" y="480" text-anchor="middle" font-size="12.0" font-weight="normal" fill="#2d2d2d">Included</text>
<line x1="334.0" y1="282.0" x2="298.0" y2="282.0" stroke="#a45c40" stroke-width="2" opacity="0.6"/>
<circle cx="258.0" cy="282.0" r="38" fill="#ffffff" stroke="#a45c40" stroke-width="2"/>
<path d="M 238.0 278.0 L 258.0 260.0 L 278.0 278.0 Z" fill="#a45c40"/><rect x="243.6" y="278.0" width="28.8" height="18.4" fill="#a45c40" opacity="0.85"/>
<text x="258" y="338" text-anchor="middle" font-size="12.0" font-weight="normal" fill="#2d2d2d">Not shunned</text>
<circle cx="400" cy="282" r="62" fill="#a45c40"/>
<text x="400" y="284" text-anchor="middle" font-size="14.0" font-weight="bold" fill="#faf8f3">the stranger</text>
<text x="400" y="300" text-anchor="middle" font-size="14.0" font-weight="bold" fill="#faf8f3">next door</text>
<line x1="90" y1="516" x2="710" y2="516" stroke="#c9c2b4" stroke-width="1"/>
<text x="400" y="540" text-anchor="middle" font-size="13.0" font-weight="normal" fill="#2d2d2d">A stranger newly settled in your neighborhood carries the same claim as any neighbour:</text>
<text x="400" y="559" text-anchor="middle" font-size="13.0" font-weight="normal" fill="#2d2d2d">greeting, help, and protection from harm.</text>
<text x="400" y="602" text-anchor="middle" font-size="12.0" font-weight="bold" fill="#a45c40">Q4:36 — the neighbour who is a stranger</text>
</svg>
