<svg xmlns="http://www.w3.org/2000/svg" viewBox="0 0 800 620" width="800" height="620" font-family="Georgia, 'Noto Serif', serif">
<defs><marker id="ar" viewBox="0 0 10 10" refX="9" refY="5" markerWidth="7" markerHeight="7" orient="auto-start-reverse"><path d="M 0 0 L 10 5 L 0 10 z" fill="#2d2d2d"/></marker></defs>
<rect x="0" y="0" width="800" height="620" fill="#faf8f3"/>
<rect x="0" y="0" width="800" height="7" fill="#2e6f40"/>
<text x="400" y="46" text-anchor="middle" font-size="11.0" font-weight="normal" fill="#777777">WEALTH, CHARITY &amp; DEBT</text>
<text x="400" y="78" text-anchor="middle" font-size="24.0" font-weight="bold" fill="#2d2d2d">The Loan You Forgot You Owed</text>
<rect x="81" y="200" width="140" height="150" rx="12" fill="#2e6f40" opacity="0.55"/>
<ellipse cx="151.0" cy="266.1" rx="24.8" ry="8.1" fill="#faf8f3" opacity="0.60"/><ellipse cx="151.0" cy="252.5" rx="24.8" ry="8.1" fill="#faf8f3" opacity="0.80"/><ellipse cx="151.0" cy="238.8" rx="24.8" ry="8.1" fill="#faf8f3" opacity="1.00"/>
<text x="151" y="302" text-anchor="middle" font-size="12.5" font-weight="bold" fill="#faf8f3">Debt taken</text>
<line x1="225" y1="275" x2="241" y2="275" stroke="#2d2d2d" stroke-width="2" marker-end="url(#ar)"/>
<rect x="247" y="200" width="140" height="150" rx="12" fill="#2e6f40" opacity="0.70"/>
<circle cx="317.0" cy="250.0" r="27.3" fill="none" stroke="#faf8f3" stroke-width="5.6"/><line x1="317.0" y1="250.0" x2="317.0" y2="233.9" stroke="#faf8f3" stroke-width="4.3"/><line x1="317.0" y1="250.0" x2="329.4" y2="256.2" stroke="#faf8f3" stroke-width="4.3"/>
<text x="317" y="302" text-anchor="middle" font-size="12.5" font-weight="bold" fill="#faf8f3">Years pass</text>
<line x1="391" y1="275" x2="407" y2="275" stroke="#2d2d2d" stroke-width="2" marker-end="url(#ar)"/>
<rect x="413" y="200" width="140" height="150" rx="12" fill="#2e6f40" opacity="0.85"/>
<path d="M 483.0 228.9 C 464.4 219.0 450.8 225.2 450.8 228.9 L 450.8 271.1 C 450.8 267.4 464.4 262.4 483.0 271.1 C 501.6 262.4 515.2 267.4 515.2 271.1 L 515.2 228.9 C 515.2 225.2 501.6 219.0 483.0 228.9 Z" fill="#faf8f3"/><line x1="483.0" y1="228.9" x2="483.0" y2="271.1" stroke="#2e6f40" stroke-width="2.2"/>
<text x="483" y="302" text-anchor="middle" font-size="12.5" font-weight="bold" fill="#faf8f3">Claim remembered</text>
<line x1="557" y1="275" x2="573" y2="275" stroke="#2d2d2d" stroke-width="2" marker-end="url(#ar)"/>
<rect x="579" y="200" width="140" height="150" rx="12" fill="#2e6f40" opacity="1.00"/>
<path d="M 618.0 258.7 L 642.8 240.1 L 655.2 240.1 L 680.0 258.7 L 670.1 268.6 L 649.0 253.7 L 627.9 268.6 Z" fill="#faf8f3"/>
<text x="649" y="302" text-anchor="middle" font-size="12.5" font-weight="bold" fill="#faf8f3">Debt settled</text>
<text x="400" y="392" text-anchor="middle" font-size="12.5" font-weight="normal" fill="#777777">amanah returned, even long delayed</text>
<line x1="90" y1="516" x2="710" y2="516" stroke="#c9c2b4" stroke-width="1"/>
<text x="400" y="540" text-anchor="middle" font-size="13.0" font-weight="normal" fill="#2d2d2d">Forgetting a debt does not erase it; the claim survives in the ledger kept by God even</text>
<text x="400" y="559" text-anchor="middle" font-size="13.0" font-weight="normal" fill="#2d2d2d">after human memory fails. It must still be sought out and repaid.</text>
<text x="400" y="602" text-anchor="middle" font-size="12.0" font-weight="bold" fill="#2e6f40">Q4:58 — trusts returned to their owners</text>
</svg>
