<svg xmlns="http://www.w3.org/2000/svg" viewBox="0 0 800 620" width="800" height="620" font-family="Georgia, 'Noto Serif', serif">
<defs><marker id="ar" viewBox="0 0 10 10" refX="9" refY="5" markerWidth="7" markerHeight="7" orient="auto-start-reverse"><path d="M 0 0 L 10 5 L 0 10 z" fill="#2d2d2d"/></marker></defs>
<rect x="0" y="0" width="800" height="620" fill="#faf8f3"/>
<rect x="0" y="0" width="800" height="7" fill="#a45c40"/>
<text x="400" y="46" text-anchor="middle" font-size="11.0" font-weight="normal" fill="#777777">WEALTH, CHARITY &amp; DEBT</text>
<text x="400" y="78" text-anchor="middle" font-size="24.0" font-weight="bold" fill="#2d2d2d">Crowdfunding a Stranger&#x27;s Surgery</text>
<rect x="81" y="200" width="140" height="150" rx="12" fill="#a45c40" opacity="0.55"/>
<circle cx="151.0" cy="235.5" r="9.7" fill="#faf8f3"/><path d="M 133.6 275.1 a 17.4 22.2 0 0 1 34.8 0 Z" fill="#faf8f3"/><g opacity="0.55"><circle cx="118.8" cy="241.4" r="8.2" fill="#faf8f3"/><path d="M 104.0 275.0 a 14.7 18.8 0 0 1 29.5 0 Z" fill="#faf8f3"/></g><g opacity="0.55"><circle cx="183.2" cy="241.4" r="8.2" fill="#faf8f3"/><path d="M 168.5 275.0 a 14.7 18.8 0 0 1 29.5 0 Z" fill="#faf8f3"/></g>
<text x="151" y="302" text-anchor="middle" font-size="12.5" font-weight="bold" fill="#faf8f3">Need shared</text>
<line x1="225" y1="275" x2="241" y2="275" stroke="#2d2d2d" stroke-width="2" marker-end="url(#ar)"/>
<rect x="247" y="200" width="140" height="150" rx="12" fill="#a45c40" opacity="0.70"/>
<ellipse cx="317.0" cy="266.1" rx="24.8" ry="8.1" fill="#faf8f3" opacity="0.60"/><ellipse cx="317.0" cy="252.5" rx="24.8" ry="8.1" fill="#faf8f3" opacity="0.80"/><ellipse cx="317.0" cy="238.8" rx="24.8" ry="8.1" fill="#faf8f3" opacity="1.00"/>
<text x="317" y="302" text-anchor="middle" font-size="12.5" font-weight="bold" fill="#faf8f3">Many give</text>
<line x1="391" y1="275" x2="407" y2="275" stroke="#2d2d2d" stroke-width="2" marker-end="url(#ar)"/>
<rect x="413" y="200" width="140" height="150" rx="12" fill="#a45c40" opacity="0.85"/>
<path d="M 452.0 258.7 L 476.8 240.1 L 489.2 240.1 L 514.0 258.7 L 504.1 268.6 L 483.0 253.7 L 461.9 268.6 Z" fill="#faf8f3"/>
<text x="483" y="302" text-anchor="middle" font-size="12.5" font-weight="bold" fill="#faf8f3">Fund collects</text>
<line x1="557" y1="275" x2="573" y2="275" stroke="#2d2d2d" stroke-width="2" marker-end="url(#ar)"/>
<rect x="579" y="200" width="140" height="150" rx="12" fill="#a45c40" opacity="1.00"/>
<circle cx="649.0" cy="231.4" r="12.4" fill="#faf8f3"/><path d="M 626.7 282.2 a 22.3 28.5 0 0 1 44.6 0 Z" fill="#faf8f3"/>
<text x="649" y="302" text-anchor="middle" font-size="12.5" font-weight="bold" fill="#faf8f3">Recipient helped</text>
<text x="400" y="392" text-anchor="middle" font-size="12.5" font-weight="normal" fill="#777777">spent secretly or openly, the giving is still weighed</text>
<line x1="90" y1="516" x2="710" y2="516" stroke="#c9c2b4" stroke-width="1"/>
<text x="400" y="540" text-anchor="middle" font-size="13.0" font-weight="normal" fill="#2d2d2d">Pooling small gifts from many strangers for one need is sadaqah scaled up. Each giver&#x27;s</text>
<text x="400" y="559" text-anchor="middle" font-size="13.0" font-weight="normal" fill="#2d2d2d">intention and the fund&#x27;s honesty both remain answerable to God.</text>
<text x="400" y="602" text-anchor="middle" font-size="12.0" font-weight="bold" fill="#a45c40">Q2:274</text>
</svg>
