<svg xmlns="http://www.w3.org/2000/svg" viewBox="0 0 800 620" width="800" height="620" font-family="Georgia, 'Noto Serif', serif">
<defs><marker id="ar" viewBox="0 0 10 10" refX="9" refY="5" markerWidth="7" markerHeight="7" orient="auto-start-reverse"><path d="M 0 0 L 10 5 L 0 10 z" fill="#2d2d2d"/></marker></defs>
<rect x="0" y="0" width="800" height="620" fill="#faf8f3"/>
<rect x="0" y="0" width="800" height="7" fill="#0f5257"/>
<text x="400" y="46" text-anchor="middle" font-size="11.0" font-weight="normal" fill="#777777">WORSHIP &amp; DISCIPLINE</text>
<text x="400" y="78" text-anchor="middle" font-size="24.0" font-weight="bold" fill="#2d2d2d">Five Times a Day, Same Pledge</text>
<path d="M 454.5 156.2 A 128 128 0 0 1 515.8 217.5" fill="none" stroke="#0f5257" stroke-width="2.5" opacity="0.65"/>
<polygon points="519.6,225.6 510.3,215.2 517.6,211.8" fill="#0f5257" opacity="0.9"/>
<path d="M 515.8 326.5 A 128 128 0 0 1 454.5 387.8" fill="none" stroke="#0f5257" stroke-width="2.5" opacity="0.65"/>
<polygon points="446.4,391.6 456.8,382.3 460.2,389.6" fill="#0f5257" opacity="0.9"/>
<path d="M 345.5 387.8 A 128 128 0 0 1 284.2 326.5" fill="none" stroke="#0f5257" stroke-width="2.5" opacity="0.65"/>
<polygon points="280.4,318.4 289.7,328.8 282.4,332.2" fill="#0f5257" opacity="0.9"/>
<path d="M 284.2 217.5 A 128 128 0 0 1 345.5 156.2" fill="none" stroke="#0f5257" stroke-width="2.5" opacity="0.65"/>
<polygon points="353.6,152.4 343.2,161.7 339.8,154.4" fill="#0f5257" opacity="0.9"/>
<circle cx="400.0" cy="144.0" r="46" fill="#0f5257"/>
<path d="M 406.1 120.0 a 16.7 16.7 0 1 0 0.01 31.9 a 13.7 13.7 0 1 1 -0.01 -31.9 Z" fill="#faf8f3"/>
<text x="400" y="170" text-anchor="middle" font-size="10.5" font-weight="normal" fill="#faf8f3">Fajr</text>
<circle cx="528.0" cy="272.0" r="46" fill="#0f5257"/>
<path d="M 534.1 248.0 a 16.7 16.7 0 1 0 0.01 31.9 a 13.7 13.7 0 1 1 -0.01 -31.9 Z" fill="#faf8f3"/>
<text x="528" y="298" text-anchor="middle" font-size="10.5" font-weight="normal" fill="#faf8f3">Dhuhr</text>
<circle cx="400.0" cy="400.0" r="46" fill="#0f5257"/>
<path d="M 406.1 376.0 a 16.7 16.7 0 1 0 0.01 31.9 a 13.7 13.7 0 1 1 -0.01 -31.9 Z" fill="#faf8f3"/>
<text x="400" y="426" text-anchor="middle" font-size="10.5" font-weight="normal" fill="#faf8f3">Asr</text>
<circle cx="272.0" cy="272.0" r="46" fill="#0f5257"/>
<path d="M 278.1 248.0 a 16.7 16.7 0 1 0 0.01 31.9 a 13.7 13.7 0 1 1 -0.01 -31.9 Z" fill="#faf8f3"/>
<text x="272" y="298" text-anchor="middle" font-size="10.5" font-weight="normal" fill="#faf8f3">Maghrib</text>
<text x="400" y="276" text-anchor="middle" font-size="13.5" font-weight="bold" fill="#2d2d2d">renewal of the</text>
<text x="400" y="292" text-anchor="middle" font-size="13.5" font-weight="bold" fill="#2d2d2d">pledge</text>
<line x1="90" y1="516" x2="710" y2="516" stroke="#c9c2b4" stroke-width="1"/>
<text x="400" y="540" text-anchor="middle" font-size="13.0" font-weight="normal" fill="#2d2d2d">Prayer is not one covenant kept once; it is the pact renewed on a fixed schedule,</text>
<text x="400" y="559" text-anchor="middle" font-size="13.0" font-weight="normal" fill="#2d2d2d">whether you feel it or not.</text>
<text x="400" y="602" text-anchor="middle" font-size="12.0" font-weight="bold" fill="#0f5257">Q17:34</text>
</svg>
