<svg xmlns="http://www.w3.org/2000/svg" viewBox="0 0 800 620" width="800" height="620" font-family="Georgia, 'Noto Serif', serif">
<defs><marker id="ar" viewBox="0 0 10 10" refX="9" refY="5" markerWidth="7" markerHeight="7" orient="auto-start-reverse"><path d="M 0 0 L 10 5 L 0 10 z" fill="#2d2d2d"/></marker></defs>
<rect x="0" y="0" width="800" height="620" fill="#faf8f3"/>
<rect x="0" y="0" width="800" height="7" fill="#a45c40"/>
<text x="400" y="46" text-anchor="middle" font-size="11.0" font-weight="normal" fill="#777777">WORSHIP &amp; DISCIPLINE</text>
<text x="400" y="78" text-anchor="middle" font-size="24.0" font-weight="bold" fill="#2d2d2d">Ten Days Set Aside for Itikaf</text>
<path d="M 250 150 L 550 150 L 550 300 C 550 372 486 420 400 440 C 314 420 250 372 250 300 Z" fill="#a45c40" opacity="0.10" stroke="#a45c40" stroke-width="2.5"/>
<text x="400" y="176" text-anchor="middle" font-size="13.0" font-weight="bold" fill="#a45c40">time set apart</text>
<circle cx="335" cy="232" r="31" fill="#ffffff" stroke="#a45c40" stroke-width="1.5"/>
<circle cx="335.0" cy="230.0" r="15.0" fill="none" stroke="#a45c40" stroke-width="3.1"/><line x1="335.0" y1="230.0" x2="335.0" y2="221.2" stroke="#a45c40" stroke-width="2.4"/><line x1="335.0" y1="230.0" x2="341.8" y2="233.4" stroke="#a45c40" stroke-width="2.4"/>
<text x="335" y="282" text-anchor="middle" font-size="11.5" font-weight="normal" fill="#2d2d2d">Ten nights</text>
<circle cx="465" cy="232" r="31" fill="#ffffff" stroke="#a45c40" stroke-width="1.5"/>
<path d="M 448.0 230.0 L 465.0 214.7 L 482.0 230.0 Z" fill="#a45c40"/><rect x="452.8" y="230.0" width="24.5" height="15.6" fill="#a45c40" opacity="0.85"/>
<text x="465" y="282" text-anchor="middle" font-size="11.5" font-weight="normal" fill="#2d2d2d">Mosque only</text>
<circle cx="335" cy="328" r="31" fill="#ffffff" stroke="#a45c40" stroke-width="1.5"/>
<path d="M 335.0 314.4 C 324.8 309.0 317.3 312.4 317.3 314.4 L 317.3 337.6 C 317.3 335.5 324.8 332.8 335.0 337.6 C 345.2 332.8 352.7 335.5 352.7 337.6 L 352.7 314.4 C 352.7 312.4 345.2 309.0 335.0 314.4 Z" fill="#a45c40"/><line x1="335.0" y1="314.4" x2="335.0" y2="337.6" stroke="#ffffff" stroke-width="1.2"/>
<text x="335" y="378" text-anchor="middle" font-size="11.5" font-weight="normal" fill="#2d2d2d">Focused worship</text>
<text x="400" y="480" text-anchor="middle" font-size="13.0" font-weight="bold" fill="#2d2d2d">The retreat is kept by staying, not by intention alone</text>
<line x1="90" y1="516" x2="710" y2="516" stroke="#c9c2b4" stroke-width="1"/>
<text x="400" y="540" text-anchor="middle" font-size="13.0" font-weight="normal" fill="#2d2d2d">A retreat commitment is a covenant with a hard edge — a fixed span of time, deliberately</text>
<text x="400" y="559" text-anchor="middle" font-size="13.0" font-weight="normal" fill="#2d2d2d">walled off and kept for its purpose.</text>
<text x="400" y="602" text-anchor="middle" font-size="12.0" font-weight="bold" fill="#a45c40">Q2:187 — do not approach them while you are in retreat in the mosques</text>
</svg>
