<svg xmlns="http://www.w3.org/2000/svg" viewBox="0 0 800 620" width="800" height="620" font-family="Georgia, 'Noto Serif', serif">
<defs><marker id="ar" viewBox="0 0 10 10" refX="9" refY="5" markerWidth="7" markerHeight="7" orient="auto-start-reverse"><path d="M 0 0 L 10 5 L 0 10 z" fill="#2d2d2d"/></marker></defs>
<rect x="0" y="0" width="800" height="620" fill="#faf8f3"/>
<rect x="0" y="0" width="800" height="7" fill="#a45c40"/>
<text x="400" y="46" text-anchor="middle" font-size="11.0" font-weight="normal" fill="#777777">WORK &amp; THE PROFESSIONS</text>
<text x="400" y="78" text-anchor="middle" font-size="24.0" font-weight="bold" fill="#2d2d2d">The Line the Translator Added</text>
<line x1="400" y1="170" x2="400" y2="380" stroke="#a45c40" stroke-width="7"/>
<rect x="330" y="380" width="140" height="14" rx="4" fill="#a45c40"/>
<line x1="200" y1="200" x2="600" y2="200" stroke="#a45c40" stroke-width="6"/>
<circle cx="400" cy="200" r="13" fill="#2d2d2d"/>
<line x1="215" y1="200" x2="215" y2="252" stroke="#a45c40" stroke-width="2"/>
<path d="M 143 252 L 287 252 L 261 306 L 169 306 Z" fill="#ffffff" stroke="#a45c40" stroke-width="2"/>
<rect x="200.9" y="258.6" width="28.2" height="38.7" rx="2.2" fill="#a45c40"/><rect x="206.2" y="265.7" width="17.6" height="2.2" fill="#faf8f3" opacity="0.85"/><rect x="206.2" y="273.2" width="17.6" height="2.2" fill="#faf8f3" opacity="0.85"/><rect x="206.2" y="280.6" width="17.6" height="2.2" fill="#faf8f3" opacity="0.85"/><rect x="206.2" y="288.1" width="17.6" height="2.2" fill="#faf8f3" opacity="0.85"/>
<text x="215" y="336" text-anchor="middle" font-size="13.5" font-weight="bold" fill="#2d2d2d">Words spoken</text>
<text x="215" y="352" text-anchor="middle" font-size="11.5" font-weight="normal" fill="#777777">what was actually said</text>
<line x1="585" y1="200" x2="585" y2="252" stroke="#a45c40" stroke-width="2"/>
<path d="M 513 252 L 657 252 L 631 306 L 539 306 Z" fill="#ffffff" stroke="#a45c40" stroke-width="2"/>
<path d="M 585.0 263.0 C 571.8 256.0 562.1 260.4 562.1 263.0 L 562.1 293.0 C 562.1 290.3 571.8 286.8 585.0 293.0 C 598.2 286.8 607.9 290.3 607.9 293.0 L 607.9 263.0 C 607.9 260.4 598.2 256.0 585.0 263.0 Z" fill="#a45c40"/><line x1="585.0" y1="263.0" x2="585.0" y2="293.0" stroke="#faf8f3" stroke-width="1.5"/>
<text x="585" y="336" text-anchor="middle" font-size="13.5" font-weight="bold" fill="#2d2d2d">Words rendered</text>
<text x="585" y="352" text-anchor="middle" font-size="11.5" font-weight="normal" fill="#777777">what fidelity requires</text>
<text x="400" y="424" text-anchor="middle" font-size="12.5" font-weight="normal" fill="#777777">the translator&#x27;s mouth is on loan, not her own</text>
<line x1="90" y1="516" x2="710" y2="516" stroke="#c9c2b4" stroke-width="1"/>
<text x="400" y="540" text-anchor="middle" font-size="13.0" font-weight="normal" fill="#2d2d2d">A translator who softens, sharpens, or inserts meaning has substituted her own voice for</text>
<text x="400" y="559" text-anchor="middle" font-size="13.0" font-weight="normal" fill="#2d2d2d">the speaker&#x27;s — a betrayal of fidelity, not a service.</text>
<text x="400" y="602" text-anchor="middle" font-size="12.0" font-weight="bold" fill="#a45c40">Q4:58</text>
</svg>
