<svg xmlns="http://www.w3.org/2000/svg" viewBox="0 0 800 620" width="800" height="620" font-family="Georgia, 'Noto Serif', serif">
<defs><marker id="ar" viewBox="0 0 10 10" refX="9" refY="5" markerWidth="7" markerHeight="7" orient="auto-start-reverse"><path d="M 0 0 L 10 5 L 0 10 z" fill="#2d2d2d"/></marker></defs>
<rect x="0" y="0" width="800" height="620" fill="#faf8f3"/>
<rect x="0" y="0" width="800" height="7" fill="#a45c40"/>
<text x="400" y="46" text-anchor="middle" font-size="11.0" font-weight="normal" fill="#777777">WORK &amp; THE PROFESSIONS</text>
<text x="400" y="78" text-anchor="middle" font-size="24.0" font-weight="bold" fill="#2d2d2d">The Junior She Never Trained</text>
<line x1="400.0" y1="216.0" x2="400.0" y2="180.0" stroke="#a45c40" stroke-width="2" opacity="0.6"/>
<circle cx="400.0" cy="140.0" r="38" fill="#ffffff" stroke="#a45c40" stroke-width="2"/>
<path d="M 400.0 122.4 C 388.0 116.0 379.2 120.0 379.2 122.4 L 379.2 149.6 C 379.2 147.2 388.0 144.0 400.0 149.6 C 412.0 144.0 420.8 147.2 420.8 149.6 L 420.8 122.4 C 420.8 120.0 412.0 116.0 400.0 122.4 Z" fill="#a45c40"/><line x1="400.0" y1="122.4" x2="400.0" y2="149.6" stroke="#ffffff" stroke-width="1.4"/>
<text x="400" y="196" text-anchor="middle" font-size="12.0" font-weight="normal" fill="#2d2d2d">Teaching</text>
<line x1="466.0" y1="282.0" x2="502.0" y2="282.0" stroke="#a45c40" stroke-width="2" opacity="0.6"/>
<circle cx="542.0" cy="282.0" r="38" fill="#ffffff" stroke="#a45c40" stroke-width="2"/>
<path d="M 522.0 283.6 L 538.0 271.6 L 546.0 271.6 L 562.0 283.6 L 555.6 290.0 L 542.0 280.4 L 528.4 290.0 Z" fill="#a45c40"/>
<text x="542" y="338" text-anchor="middle" font-size="12.0" font-weight="normal" fill="#2d2d2d">Correction</text>
<line x1="400.0" y1="348.0" x2="400.0" y2="384.0" stroke="#a45c40" stroke-width="2" opacity="0.6"/>
<circle cx="400.0" cy="424.0" r="38" fill="#ffffff" stroke="#a45c40" stroke-width="2"/>
<circle cx="400.0" cy="420.0" r="17.6" fill="none" stroke="#a45c40" stroke-width="3.6"/><line x1="400.0" y1="420.0" x2="400.0" y2="409.6" stroke="#a45c40" stroke-width="2.8"/><line x1="400.0" y1="420.0" x2="408.0" y2="424.0" stroke="#a45c40" stroke-width="2.8"/>
<text x="400" y="480" text-anchor="middle" font-size="12.0" font-weight="normal" fill="#2d2d2d">Patience</text>
<line x1="334.0" y1="282.0" x2="298.0" y2="282.0" stroke="#a45c40" stroke-width="2" opacity="0.6"/>
<circle cx="258.0" cy="282.0" r="38" fill="#ffffff" stroke="#a45c40" stroke-width="2"/>
<circle cx="258.0" cy="266.0" r="8.0" fill="#a45c40"/><path d="M 243.6 298.8 a 14.4 18.4 0 0 1 28.8 0 Z" fill="#a45c40"/>
<text x="258" y="338" text-anchor="middle" font-size="12.0" font-weight="normal" fill="#2d2d2d">Advocacy</text>
<circle cx="400" cy="282" r="62" fill="#a45c40"/>
<text x="400" y="284" text-anchor="middle" font-size="14.0" font-weight="bold" fill="#faf8f3">Knowledge as</text>
<text x="400" y="300" text-anchor="middle" font-size="14.0" font-weight="bold" fill="#faf8f3">amanah</text>
<line x1="90" y1="516" x2="710" y2="516" stroke="#c9c2b4" stroke-width="1"/>
<text x="400" y="540" text-anchor="middle" font-size="13.0" font-weight="normal" fill="#2d2d2d">Mentorship is a covenant of transmission: knowledge held in trust is meant to be passed</text>
<text x="400" y="559" text-anchor="middle" font-size="13.0" font-weight="normal" fill="#2d2d2d">on, not hoarded to stay indispensable.</text>
<text x="400" y="602" text-anchor="middle" font-size="12.0" font-weight="bold" fill="#a45c40">Q23:8</text>
</svg>
