<svg xmlns="http://www.w3.org/2000/svg" viewBox="0 0 800 620" width="800" height="620" font-family="Georgia, 'Noto Serif', serif">
<defs><marker id="ar" viewBox="0 0 10 10" refX="9" refY="5" markerWidth="7" markerHeight="7" orient="auto-start-reverse"><path d="M 0 0 L 10 5 L 0 10 z" fill="#2d2d2d"/></marker></defs>
<rect x="0" y="0" width="800" height="620" fill="#faf8f3"/>
<rect x="0" y="0" width="800" height="7" fill="#2e6f40"/>
<text x="400" y="46" text-anchor="middle" font-size="11.0" font-weight="normal" fill="#777777">WORK &amp; THE PROFESSIONS</text>
<text x="400" y="78" text-anchor="middle" font-size="24.0" font-weight="bold" fill="#2d2d2d">The Bridge He Signed Off On</text>
<rect x="81" y="200" width="140" height="150" rx="12" fill="#2e6f40" opacity="0.55"/>
<rect x="131.2" y="222.7" width="39.7" height="54.6" rx="3.1" fill="#faf8f3"/><rect x="138.6" y="232.6" width="24.8" height="3.1" fill="#2e6f40" opacity="0.85"/><rect x="138.6" y="243.2" width="24.8" height="3.1" fill="#2e6f40" opacity="0.85"/><rect x="138.6" y="253.7" width="24.8" height="3.1" fill="#2e6f40" opacity="0.85"/><rect x="138.6" y="264.3" width="24.8" height="3.1" fill="#2e6f40" opacity="0.85"/>
<text x="151" y="302" text-anchor="middle" font-size="12.5" font-weight="bold" fill="#faf8f3">Design done</text>
<line x1="225" y1="275" x2="241" y2="275" stroke="#2d2d2d" stroke-width="2" marker-end="url(#ar)"/>
<rect x="247" y="200" width="140" height="150" rx="12" fill="#2e6f40" opacity="0.70"/>
<path d="M 317.0 220.2 L 341.8 231.4 L 341.8 256.2 C 341.8 271.1 329.4 278.5 317.0 282.2 C 304.6 278.5 292.2 271.1 292.2 256.2 L 292.2 231.4 Z" fill="#faf8f3"/>
<text x="317" y="302" text-anchor="middle" font-size="12.5" font-weight="bold" fill="#faf8f3">Load tested</text>
<line x1="391" y1="275" x2="407" y2="275" stroke="#2d2d2d" stroke-width="2" marker-end="url(#ar)"/>
<rect x="413" y="200" width="140" height="150" rx="12" fill="#2e6f40" opacity="0.85"/>
<path d="M 452.0 258.7 L 476.8 240.1 L 489.2 240.1 L 514.0 258.7 L 504.1 268.6 L 483.0 253.7 L 461.9 268.6 Z" fill="#faf8f3"/>
<text x="483" y="302" text-anchor="middle" font-size="12.5" font-weight="bold" fill="#faf8f3">Sign attests</text>
<line x1="557" y1="275" x2="573" y2="275" stroke="#2d2d2d" stroke-width="2" marker-end="url(#ar)"/>
<rect x="579" y="200" width="140" height="150" rx="12" fill="#2e6f40" opacity="1.00"/>
<line x1="649.0" y1="222.7" x2="649.0" y2="274.8" stroke="#faf8f3" stroke-width="3.7"/><line x1="621.7" y1="228.9" x2="676.3" y2="228.9" stroke="#faf8f3" stroke-width="3.7"/><path d="M 610.6 243.8 L 632.9 243.8 L 621.7 258.7 Z" fill="#faf8f3"/><path d="M 665.1 243.8 L 687.4 243.8 L 676.3 258.7 Z" fill="#faf8f3"/><rect x="634.1" y="274.8" width="29.8" height="5.0" fill="#faf8f3"/>
<text x="649" y="302" text-anchor="middle" font-size="12.5" font-weight="bold" fill="#faf8f3">Reckoning</text>
<text x="400" y="392" text-anchor="middle" font-size="12.5" font-weight="normal" fill="#777777">the signature is a witnessed pledge, not paperwork</text>
<line x1="90" y1="516" x2="710" y2="516" stroke="#c9c2b4" stroke-width="1"/>
<text x="400" y="540" text-anchor="middle" font-size="13.0" font-weight="normal" fill="#2d2d2d">An engineer&#x27;s signature is a testimony before people and before Allah that the structure</text>
<text x="400" y="559" text-anchor="middle" font-size="13.0" font-weight="normal" fill="#2d2d2d">is sound. That claim will be asked about.</text>
<text x="400" y="602" text-anchor="middle" font-size="12.0" font-weight="bold" fill="#2e6f40">Q23:8</text>
</svg>
