<svg xmlns="http://www.w3.org/2000/svg" viewBox="0 0 800 620" width="800" height="620" font-family="'Noto Nastaliq Urdu', 'Urdu Typesetting', serif">
<defs><style>text{font-family:'Noto Nastaliq Urdu', 'Urdu Typesetting', serif;direction:rtl;unicode-bidi:isolate;}text.lat{font-family:Georgia, 'Noto Serif', serif;direction:ltr;}</style><marker id="ar" viewBox="0 0 10 10" refX="9" refY="5" markerWidth="7" markerHeight="7" orient="auto-start-reverse"><path d="M 0 0 L 10 5 L 0 10 z" fill="#2d2d2d"/></marker></defs>
<rect x="0" y="0" width="800" height="620" fill="#faf8f3"/>
<rect x="0" y="0" width="800" height="7" fill="#0f5257"/>
<text class="ur" x="400" y="46" text-anchor="middle" font-size="12.8" font-weight="normal" fill="#777777">عہد و میثاق: بنیادی تصور</text>
<text class="ur" x="400" y="84" text-anchor="middle" font-size="27.8" font-weight="bold" fill="#2d2d2d">چھ میثاقی محور</text>
<line x1="400.0" y1="216.0" x2="400.0" y2="180.0" stroke="#0f5257" stroke-width="2" opacity="0.6"/>
<circle cx="400.0" cy="140.0" r="38" fill="#ffffff" stroke="#0f5257" stroke-width="2"/>
<polygon points="400.0,117.6 404.5,129.9 417.5,130.3 407.2,138.3 410.8,150.9 400.0,143.6 389.2,150.9 392.8,138.3 382.5,130.3 395.5,129.9" fill="#0f5257"/>
<text class="ur" x="400" y="196" text-anchor="middle" font-size="13.9" font-weight="normal" fill="#2d2d2d">اللہ و انسانیت</text>
<line x1="457.2" y1="249.0" x2="488.3" y2="231.0" stroke="#0f5257" stroke-width="2" opacity="0.6"/>
<circle cx="523.0" cy="211.0" r="38" fill="#ffffff" stroke="#0f5257" stroke-width="2"/>
<path d="M 523.0 193.4 C 511.0 187.0 502.2 191.0 502.2 193.4 L 502.2 220.6 C 502.2 218.2 511.0 215.0 523.0 220.6 C 535.0 215.0 543.8 218.2 543.8 220.6 L 543.8 193.4 C 543.8 191.0 535.0 187.0 523.0 193.4 Z" fill="#0f5257"/><line x1="523.0" y1="193.4" x2="523.0" y2="220.6" stroke="#ffffff" stroke-width="1.4"/>
<text class="ur" x="523" y="267" text-anchor="middle" font-size="13.9" font-weight="normal" fill="#2d2d2d">اللہ و انبیاء</text>
<line x1="457.2" y1="315.0" x2="488.3" y2="333.0" stroke="#0f5257" stroke-width="2" opacity="0.6"/>
<circle cx="523.0" cy="353.0" r="38" fill="#ffffff" stroke="#0f5257" stroke-width="2"/>
<line x1="523.0" y1="331.4" x2="523.0" y2="365.0" stroke="#0f5257" stroke-width="2.4"/><line x1="505.4" y1="335.4" x2="540.6" y2="335.4" stroke="#0f5257" stroke-width="2.4"/><path d="M 498.2 345.0 L 512.6 345.0 L 505.4 354.6 Z" fill="#0f5257"/><path d="M 533.4 345.0 L 547.8 345.0 L 540.6 354.6 Z" fill="#0f5257"/><rect x="513.4" y="365.0" width="19.2" height="3.2" fill="#0f5257"/>
<text class="ur" x="523" y="409" text-anchor="middle" font-size="13.9" font-weight="normal" fill="#2d2d2d">اہلِ کتاب</text>
<line x1="400.0" y1="348.0" x2="400.0" y2="384.0" stroke="#0f5257" stroke-width="2" opacity="0.6"/>
<circle cx="400.0" cy="424.0" r="38" fill="#ffffff" stroke="#0f5257" stroke-width="2"/>
<circle cx="400.0" cy="410.6" r="6.2" fill="#0f5257"/><path d="M 388.8 436.2 a 11.2 14.4 0 0 1 22.5 0 Z" fill="#0f5257"/><g opacity="0.55"><circle cx="379.2" cy="414.5" r="5.3" fill="#0f5257"/><path d="M 369.7 436.1 a 9.5 12.1 0 0 1 19.0 0 Z" fill="#0f5257"/></g><g opacity="0.55"><circle cx="420.8" cy="414.5" r="5.3" fill="#0f5257"/><path d="M 411.3 436.1 a 9.5 12.1 0 0 1 19.0 0 Z" fill="#0f5257"/></g>
<text class="ur" x="400" y="480" text-anchor="middle" font-size="13.9" font-weight="normal" fill="#2d2d2d">بیعت و امت</text>
<line x1="342.8" y1="315.0" x2="311.7" y2="333.0" stroke="#0f5257" stroke-width="2" opacity="0.6"/>
<circle cx="277.0" cy="353.0" r="38" fill="#ffffff" stroke="#0f5257" stroke-width="2"/>
<path d="M 257.0 354.6 L 273.0 342.6 L 281.0 342.6 L 297.0 354.6 L 290.6 361.0 L 277.0 351.4 L 263.4 361.0 Z" fill="#0f5257"/>
<text class="ur" x="277" y="409" text-anchor="middle" font-size="13.9" font-weight="normal" fill="#2d2d2d">باہمی معاملات</text>
<line x1="342.8" y1="249.0" x2="311.7" y2="231.0" stroke="#0f5257" stroke-width="2" opacity="0.6"/>
<circle cx="277.0" cy="211.0" r="38" fill="#ffffff" stroke="#0f5257" stroke-width="2"/>
<circle cx="277.0" cy="207.0" r="17.6" fill="none" stroke="#0f5257" stroke-width="3.6"/><line x1="277.0" y1="207.0" x2="277.0" y2="196.6" stroke="#0f5257" stroke-width="2.8"/><line x1="277.0" y1="207.0" x2="285.0" y2="211.0" stroke="#0f5257" stroke-width="2.8"/>
<text class="ur" x="277" y="267" text-anchor="middle" font-size="13.9" font-weight="normal" fill="#2d2d2d">اخروی جواب دہی</text>
<circle cx="400" cy="282" r="62" fill="#0f5257"/>
<text class="ur" x="400" y="284" text-anchor="middle" font-size="16.2" font-weight="bold" fill="#faf8f3">عہد و</text>
<text class="ur" x="400" y="311" text-anchor="middle" font-size="16.2" font-weight="bold" fill="#faf8f3">میثاق</text>
<line x1="90" y1="492" x2="710" y2="492" stroke="#c9c2b4" stroke-width="1"/>
<text class="ur" x="400" y="526" text-anchor="middle" font-size="15.1" font-weight="normal" fill="#2d2d2d">وہ چھ رشتہ جاتی محور جن پر یہ کتاب مرتب ہے، خود عہد و میثاق کی اصطلاحات سے پھوٹتے</text>
<text class="ur" x="400" y="553" text-anchor="middle" font-size="15.1" font-weight="normal" fill="#2d2d2d">ہیں۔</text>
<text class="lat" x="400" y="602" text-anchor="middle" font-size="12.0" font-weight="bold" fill="#0f5257">Q7:172</text>
</svg>
