<svg xmlns="http://www.w3.org/2000/svg" viewBox="0 0 800 620" width="800" height="620" font-family="'Noto Nastaliq Urdu', 'Urdu Typesetting', serif">
<defs><style>text{font-family:'Noto Nastaliq Urdu', 'Urdu Typesetting', serif;direction:rtl;unicode-bidi:isolate;}text.lat{font-family:Georgia, 'Noto Serif', serif;direction:ltr;}</style><marker id="ar" viewBox="0 0 10 10" refX="9" refY="5" markerWidth="7" markerHeight="7" orient="auto-start-reverse"><path d="M 0 0 L 10 5 L 0 10 z" fill="#2d2d2d"/></marker></defs>
<rect x="0" y="0" width="800" height="620" fill="#faf8f3"/>
<rect x="0" y="0" width="800" height="7" fill="#6b4c9a"/>
<text class="ur" x="400" y="46" text-anchor="middle" font-size="12.8" font-weight="normal" fill="#777777">قرآنی بنیادیں</text>
<text class="ur" x="400" y="84" text-anchor="middle" font-size="27.8" font-weight="bold" fill="#2d2d2d">بنی اسرائیل: پاسداریٔ عہد یا خلاف</text>
<text class="ur" x="400" y="131" text-anchor="middle" font-size="27.8" font-weight="bold" fill="#2d2d2d">ورزی</text>
<path d="M 130.0 233.7 C 102.4 219.0 82.2 228.2 82.2 233.7 L 82.2 296.3 C 82.2 290.8 102.4 283.4 130.0 296.3 C 157.6 283.4 177.8 290.8 177.8 296.3 L 177.8 233.7 C 177.8 228.2 157.6 219.0 130.0 233.7 Z" fill="#6b4c9a"/><line x1="130.0" y1="233.7" x2="130.0" y2="296.3" stroke="#faf8f3" stroke-width="3.2"/>
<text class="ur" x="130" y="332" text-anchor="middle" font-size="14.5" font-weight="normal" fill="#2d2d2d">میثاق دیا گیا</text>
<line x1="180" y1="265" x2="298" y2="265" stroke="#2d2d2d" stroke-width="2" marker-end="url(#ar)"/>
<path d="M 400 161 L 504 265 L 400 369 L 296 265 Z" fill="#ffffff" stroke="#6b4c9a" stroke-width="2.5"/>
<text class="ur" x="400" y="258" text-anchor="middle" font-size="14.5" font-weight="bold" fill="#6b4c9a">کیا اسے پورا</text>
<text class="ur" x="400" y="282" text-anchor="middle" font-size="14.5" font-weight="bold" fill="#6b4c9a">کیا گیا؟</text>
<line x1="510" y1="236" x2="596" y2="210" stroke="#2e6f40" stroke-width="2" marker-end="url(#ar)"/>
<rect x="600" y="180" width="150" height="62" rx="10" fill="#2e6f40" opacity="0.9"/>
<text class="ur" x="675" y="204" text-anchor="middle" font-size="13.9" font-weight="bold" fill="#faf8f3">عہد پورا کرو</text>
<text class="ur" x="675" y="172" text-anchor="middle" font-size="12.2" font-weight="normal" fill="#777777">yes</text>
<line x1="510" y1="296" x2="596" y2="352" stroke="#a33b2a" stroke-width="2" marker-end="url(#ar)"/>
<rect x="600" y="322" width="150" height="62" rx="10" fill="#a33b2a" opacity="0.9"/>
<text class="ur" x="675" y="346" text-anchor="middle" font-size="13.9" font-weight="bold" fill="#faf8f3">سخت دل — لعنت</text>
<text class="ur" x="675" y="314" text-anchor="middle" font-size="12.2" font-weight="normal" fill="#777777">no</text>
<line x1="90" y1="492" x2="710" y2="492" stroke="#c9c2b4" stroke-width="1"/>
<text class="ur" x="400" y="526" text-anchor="middle" font-size="15.1" font-weight="normal" fill="#2d2d2d">بنی اسرائیل کے میثاق کی واضح شرائط تھیں؛ قرآن مطالبہ اور تاریخی خلاف ورزی دونوں</text>
<text class="ur" x="400" y="553" text-anchor="middle" font-size="15.1" font-weight="normal" fill="#2d2d2d">بیان کرتا ہے۔</text>
<text class="lat" x="400" y="602" text-anchor="middle" font-size="12.0" font-weight="bold" fill="#6b4c9a">Q2:83-84, Q5:12-13</text>
</svg>
