<svg xmlns="http://www.w3.org/2000/svg" viewBox="0 0 800 620" width="800" height="620" font-family="'Noto Nastaliq Urdu', 'Urdu Typesetting', serif">
<defs><style>text{font-family:'Noto Nastaliq Urdu', 'Urdu Typesetting', serif;direction:rtl;unicode-bidi:isolate;}text.lat{font-family:Georgia, 'Noto Serif', serif;direction:ltr;}</style><marker id="ar" viewBox="0 0 10 10" refX="9" refY="5" markerWidth="7" markerHeight="7" orient="auto-start-reverse"><path d="M 0 0 L 10 5 L 0 10 z" fill="#2d2d2d"/></marker></defs>
<rect x="0" y="0" width="800" height="620" fill="#faf8f3"/>
<rect x="0" y="0" width="800" height="7" fill="#4a4a68"/>
<text class="ur" x="400" y="46" text-anchor="middle" font-size="12.8" font-weight="normal" fill="#777777">حدیث و سنت میں عہد</text>
<text class="ur" x="400" y="84" text-anchor="middle" font-size="27.8" font-weight="bold" fill="#2d2d2d">بیعتِ عبادہ کی شرائط</text>
<line x1="400.0" y1="216.0" x2="400.0" y2="180.0" stroke="#4a4a68" stroke-width="2" opacity="0.6"/>
<circle cx="400.0" cy="140.0" r="38" fill="#ffffff" stroke="#4a4a68" stroke-width="2"/>
<polygon points="400.0,117.6 404.5,129.9 417.5,130.3 407.2,138.3 410.8,150.9 400.0,143.6 389.2,150.9 392.8,138.3 382.5,130.3 395.5,129.9" fill="#4a4a68"/>
<text class="ur" x="400" y="196" text-anchor="middle" font-size="13.9" font-weight="normal" fill="#2d2d2d">شرک نہ کرنا</text>
<line x1="457.2" y1="249.0" x2="488.3" y2="231.0" stroke="#4a4a68" stroke-width="2" opacity="0.6"/>
<circle cx="523.0" cy="211.0" r="38" fill="#ffffff" stroke="#4a4a68" stroke-width="2"/>
<path d="M 514.2 204.6 L 514.2 196.6 a 8.8 8.8 0 0 1 17.6 0 L 531.8 204.6" fill="none" stroke="#4a4a68" stroke-width="3.6"/><rect x="509.4" y="204.6" width="27.2" height="19.2" rx="2.4" fill="#4a4a68"/>
<text class="ur" x="523" y="267" text-anchor="middle" font-size="13.9" font-weight="normal" fill="#2d2d2d">چوری نہ کرنا</text>
<line x1="457.2" y1="315.0" x2="488.3" y2="333.0" stroke="#4a4a68" stroke-width="2" opacity="0.6"/>
<circle cx="523.0" cy="353.0" r="38" fill="#ffffff" stroke="#4a4a68" stroke-width="2"/>
<path d="M 523.0 365.0 C 498.2 349.8 508.6 331.4 523.0 343.4 C 537.4 331.4 547.8 349.8 523.0 365.0 Z" fill="#4a4a68"/>
<text class="ur" x="523" y="409" text-anchor="middle" font-size="13.9" font-weight="normal" fill="#2d2d2d">زنا نہ کرنا</text>
<line x1="400.0" y1="348.0" x2="400.0" y2="384.0" stroke="#4a4a68" stroke-width="2" opacity="0.6"/>
<circle cx="400.0" cy="424.0" r="38" fill="#ffffff" stroke="#4a4a68" stroke-width="2"/>
<circle cx="400.0" cy="408.0" r="8.0" fill="#4a4a68"/><path d="M 385.6 440.8 a 14.4 18.4 0 0 1 28.8 0 Z" fill="#4a4a68"/>
<text class="ur" x="400" y="480" text-anchor="middle" font-size="13.9" font-weight="normal" fill="#2d2d2d">بچوں کا قتل نہ</text>
<line x1="342.8" y1="315.0" x2="311.7" y2="333.0" stroke="#4a4a68" stroke-width="2" opacity="0.6"/>
<circle cx="277.0" cy="353.0" r="38" fill="#ffffff" stroke="#4a4a68" stroke-width="2"/>
<rect x="264.2" y="331.4" width="25.6" height="35.2" rx="2.0" fill="#4a4a68"/><rect x="269.0" y="337.8" width="16.0" height="2.0" fill="#ffffff" opacity="0.85"/><rect x="269.0" y="344.6" width="16.0" height="2.0" fill="#ffffff" opacity="0.85"/><rect x="269.0" y="351.4" width="16.0" height="2.0" fill="#ffffff" opacity="0.85"/><rect x="269.0" y="358.2" width="16.0" height="2.0" fill="#ffffff" opacity="0.85"/>
<text class="ur" x="277" y="409" text-anchor="middle" font-size="13.9" font-weight="normal" fill="#2d2d2d">بہتان نہ لگانا</text>
<line x1="342.8" y1="249.0" x2="311.7" y2="231.0" stroke="#4a4a68" stroke-width="2" opacity="0.6"/>
<circle cx="277.0" cy="211.0" r="38" fill="#ffffff" stroke="#4a4a68" stroke-width="2"/>
<path d="M 257.0 212.6 L 273.0 200.6 L 281.0 200.6 L 297.0 212.6 L 290.6 219.0 L 277.0 209.4 L 263.4 219.0 Z" fill="#4a4a68"/>
<text class="ur" x="277" y="267" text-anchor="middle" font-size="13.9" font-weight="normal" fill="#2d2d2d">معروف میں</text>
<text class="ur" x="277" y="290" text-anchor="middle" font-size="13.9" font-weight="normal" fill="#2d2d2d">اطاعت</text>
<circle cx="400" cy="282" r="62" fill="#4a4a68"/>
<text class="ur" x="400" y="284" text-anchor="middle" font-size="16.2" font-weight="bold" fill="#faf8f3">بیعتِ رسول</text>
<line x1="90" y1="492" x2="710" y2="492" stroke="#c9c2b4" stroke-width="1"/>
<text class="ur" x="400" y="526" text-anchor="middle" font-size="15.1" font-weight="normal" fill="#2d2d2d">نبی کریم نے بیعت لینے سے پہلے جو اخلاقی شرائط رکھیں وہ گنوائی گئیں۔</text>
<text class="lat" x="400" y="602" text-anchor="middle" font-size="12.0" font-weight="bold" fill="#4a4a68">Bukhari, Kitab al-Iman; Muslim, Kitab al-Hudud</text>
</svg>
