<svg xmlns="http://www.w3.org/2000/svg" viewBox="0 0 800 620" width="800" height="620" font-family="'Noto Nastaliq Urdu', 'Urdu Typesetting', serif">
<defs><style>text{font-family:'Noto Nastaliq Urdu', 'Urdu Typesetting', serif;direction:rtl;unicode-bidi:isolate;}text.lat{font-family:Georgia, 'Noto Serif', serif;direction:ltr;}</style><marker id="ar" viewBox="0 0 10 10" refX="9" refY="5" markerWidth="7" markerHeight="7" orient="auto-start-reverse"><path d="M 0 0 L 10 5 L 0 10 z" fill="#2d2d2d"/></marker></defs>
<rect x="0" y="0" width="800" height="620" fill="#faf8f3"/>
<rect x="0" y="0" width="800" height="7" fill="#a45c40"/>
<text class="ur" x="400" y="46" text-anchor="middle" font-size="12.8" font-weight="normal" fill="#777777">حدیث و سنت میں عہد</text>
<text class="ur" x="400" y="84" text-anchor="middle" font-size="27.8" font-weight="bold" fill="#2d2d2d">منافق کی نشانیاں</text>
<rect x="188" y="161" width="200" height="128" rx="12" fill="#ffffff" stroke="#a45c40" stroke-width="1.8"/>
<rect x="275.1" y="181.8" width="25.8" height="42.3" rx="4.1" fill="#a45c40"/><rect x="278.8" y="187.4" width="18.4" height="26.7" fill="#ffffff" opacity="0.9"/>
<text class="ur" x="288" y="249" text-anchor="middle" font-size="13.9" font-weight="bold" fill="#2d2d2d">بولے تو جھوٹ</text>
<rect x="412" y="161" width="200" height="128" rx="12" fill="#ffffff" stroke="#a45c40" stroke-width="1.8"/>
<path d="M 489.0 209.4 L 507.4 195.6 L 516.6 195.6 L 535.0 209.4 L 527.6 216.8 L 512.0 205.8 L 496.4 216.8 Z" fill="#a45c40"/>
<text class="ur" x="512" y="249" text-anchor="middle" font-size="13.9" font-weight="bold" fill="#2d2d2d">وعدہ خلافی کرے</text>
<rect x="188" y="311" width="200" height="128" rx="12" fill="#ffffff" stroke="#a45c40" stroke-width="1.8"/>
<path d="M 277.9 350.2 L 277.9 341.0 a 10.1 10.1 0 0 1 20.2 0 L 298.1 350.2" fill="none" stroke="#a45c40" stroke-width="4.1"/><rect x="272.4" y="350.2" width="31.3" height="22.1" rx="2.8" fill="#a45c40"/>
<text class="ur" x="288" y="399" text-anchor="middle" font-size="13.9" font-weight="bold" fill="#2d2d2d">امانت میں خیانت</text>
<rect x="412" y="311" width="200" height="128" rx="12" fill="#ffffff" stroke="#a45c40" stroke-width="1.8"/>
<line x1="512.0" y1="332.8" x2="512.0" y2="371.4" stroke="#a45c40" stroke-width="2.8"/><line x1="491.8" y1="337.4" x2="532.2" y2="337.4" stroke="#a45c40" stroke-width="2.8"/><path d="M 483.5 348.4 L 500.0 348.4 L 491.8 359.4 Z" fill="#a45c40"/><path d="M 524.0 348.4 L 540.5 348.4 L 532.2 359.4 Z" fill="#a45c40"/><rect x="501.0" y="371.4" width="22.1" height="3.7" fill="#a45c40"/>
<text class="ur" x="512" y="399" text-anchor="middle" font-size="13.9" font-weight="bold" fill="#2d2d2d">جھگڑے میں بدعہدی</text>
<line x1="90" y1="492" x2="710" y2="492" stroke="#c9c2b4" stroke-width="1"/>
<text class="ur" x="400" y="526" text-anchor="middle" font-size="15.1" font-weight="normal" fill="#2d2d2d">نبی کریم نے نفاق کی تین نشانیاں بتائیں — ہر ایک عہد شکنی کی صورت۔</text>
<text class="lat" x="400" y="602" text-anchor="middle" font-size="12.0" font-weight="bold" fill="#a45c40">Bukhari, Kitab al-Iman; Muslim, Kitab al-Iman</text>
</svg>
