<svg xmlns="http://www.w3.org/2000/svg" viewBox="0 0 800 620" width="800" height="620" font-family="'Noto Nastaliq Urdu', 'Urdu Typesetting', serif">
<defs><style>text{font-family:'Noto Nastaliq Urdu', 'Urdu Typesetting', serif;direction:rtl;unicode-bidi:isolate;}text.lat{font-family:Georgia, 'Noto Serif', serif;direction:ltr;}</style><marker id="ar" viewBox="0 0 10 10" refX="9" refY="5" markerWidth="7" markerHeight="7" orient="auto-start-reverse"><path d="M 0 0 L 10 5 L 0 10 z" fill="#2d2d2d"/></marker></defs>
<rect x="0" y="0" width="800" height="620" fill="#faf8f3"/>
<rect x="0" y="0" width="800" height="7" fill="#b8860b"/>
<text class="ur" x="400" y="46" text-anchor="middle" font-size="12.8" font-weight="normal" fill="#777777">سیرتِ نبوی: معاہدات کا عملی نمونہ</text>
<text class="ur" x="400" y="84" text-anchor="middle" font-size="27.8" font-weight="bold" fill="#2d2d2d">عہدِ نبوی کا وسیع ہوتا دائرہ</text>
<rect x="-2" y="200" width="140" height="150" rx="12" fill="#b8860b" opacity="0.55"/>
<path d="M 37.0 258.7 L 61.8 240.1 L 74.2 240.1 L 99.0 258.7 L 89.1 268.6 L 68.0 253.7 L 46.9 268.6 Z" fill="#faf8f3"/>
<text class="ur" x="68" y="302" text-anchor="middle" font-size="14.5" font-weight="bold" fill="#faf8f3">حلف الفضول</text>
<line x1="142" y1="275" x2="158" y2="275" stroke="#2d2d2d" stroke-width="2" marker-end="url(#ar)"/>
<rect x="164" y="200" width="140" height="150" rx="12" fill="#b8860b" opacity="0.66"/>
<circle cx="234.0" cy="235.5" r="9.7" fill="#faf8f3"/><path d="M 216.6 275.1 a 17.4 22.2 0 0 1 34.8 0 Z" fill="#faf8f3"/><g opacity="0.55"><circle cx="201.8" cy="241.4" r="8.2" fill="#faf8f3"/><path d="M 187.0 275.0 a 14.7 18.8 0 0 1 29.5 0 Z" fill="#faf8f3"/></g><g opacity="0.55"><circle cx="266.2" cy="241.4" r="8.2" fill="#faf8f3"/><path d="M 251.5 275.0 a 14.7 18.8 0 0 1 29.5 0 Z" fill="#faf8f3"/></g>
<text class="ur" x="234" y="302" text-anchor="middle" font-size="14.5" font-weight="bold" fill="#faf8f3">دو بیعتیں</text>
<text class="ur" x="234" y="326" text-anchor="middle" font-size="14.5" font-weight="bold" fill="#faf8f3">عقبہ</text>
<line x1="308" y1="275" x2="324" y2="275" stroke="#2d2d2d" stroke-width="2" marker-end="url(#ar)"/>
<rect x="330" y="200" width="140" height="150" rx="12" fill="#b8860b" opacity="0.78"/>
<rect x="380.2" y="222.7" width="39.7" height="54.6" rx="3.1" fill="#faf8f3"/><rect x="387.6" y="232.6" width="24.8" height="3.1" fill="#b8860b" opacity="0.85"/><rect x="387.6" y="243.2" width="24.8" height="3.1" fill="#b8860b" opacity="0.85"/><rect x="387.6" y="253.7" width="24.8" height="3.1" fill="#b8860b" opacity="0.85"/><rect x="387.6" y="264.3" width="24.8" height="3.1" fill="#b8860b" opacity="0.85"/>
<text class="ur" x="400" y="302" text-anchor="middle" font-size="14.5" font-weight="bold" fill="#faf8f3">میثاقِ مدینہ</text>
<line x1="474" y1="275" x2="490" y2="275" stroke="#2d2d2d" stroke-width="2" marker-end="url(#ar)"/>
<rect x="496" y="200" width="140" height="150" rx="12" fill="#b8860b" opacity="0.89"/>
<rect x="562.3" y="253.7" width="7.4" height="24.8" fill="#faf8f3"/><circle cx="566.0" cy="238.8" r="18.6" fill="#faf8f3"/><circle cx="551.1" cy="251.2" r="12.4" fill="#faf8f3" opacity="0.85"/><circle cx="580.9" cy="251.2" r="12.4" fill="#faf8f3" opacity="0.85"/>
<text class="ur" x="566" y="302" text-anchor="middle" font-size="14.5" font-weight="bold" fill="#faf8f3">رضوان و</text>
<text class="ur" x="566" y="326" text-anchor="middle" font-size="14.5" font-weight="bold" fill="#faf8f3">حدیبیہ</text>
<line x1="640" y1="275" x2="656" y2="275" stroke="#2d2d2d" stroke-width="2" marker-end="url(#ar)"/>
<rect x="662" y="200" width="140" height="150" rx="12" fill="#b8860b" opacity="1.00"/>
<polygon points="732.0,221.5 738.9,240.5 759.1,241.2 743.2,253.6 748.8,273.1 732.0,261.8 715.2,273.1 720.8,253.6 704.9,241.2 725.1,240.5" fill="#faf8f3"/>
<text class="ur" x="732" y="302" text-anchor="middle" font-size="14.5" font-weight="bold" fill="#faf8f3">خطبہ حجۃ</text>
<text class="ur" x="732" y="326" text-anchor="middle" font-size="14.5" font-weight="bold" fill="#faf8f3">الوداع</text>
<text class="ur" x="400" y="392" text-anchor="middle" font-size="14.5" font-weight="normal" fill="#777777">اخلاقی عہد سے میثاقی چارٹر تک</text>
<line x1="90" y1="492" x2="710" y2="492" stroke="#c9c2b4" stroke-width="1"/>
<text class="ur" x="400" y="526" text-anchor="middle" font-size="15.1" font-weight="normal" fill="#2d2d2d">نبوت سے پہلے کے اخلاقی عہد سے لے کر عوامی میثاقی چارٹر تک — نبی کریم کی زندگی کے ہر</text>
<text class="ur" x="400" y="553" text-anchor="middle" font-size="15.1" font-weight="normal" fill="#2d2d2d">مرحلے پر عہد کا دائرہ وسیع ہوتا گیا۔</text>
<text class="lat" x="400" y="602" text-anchor="middle" font-size="12.0" font-weight="bold" fill="#b8860b">Q48:10; Q48:18</text>
</svg>
