<svg xmlns="http://www.w3.org/2000/svg" viewBox="0 0 800 620" width="800" height="620" font-family="'Noto Nastaliq Urdu', 'Urdu Typesetting', serif">
<defs><style>text{font-family:'Noto Nastaliq Urdu', 'Urdu Typesetting', serif;direction:rtl;unicode-bidi:isolate;}text.lat{font-family:Georgia, 'Noto Serif', serif;direction:ltr;}</style><marker id="ar" viewBox="0 0 10 10" refX="9" refY="5" markerWidth="7" markerHeight="7" orient="auto-start-reverse"><path d="M 0 0 L 10 5 L 0 10 z" fill="#2d2d2d"/></marker></defs>
<rect x="0" y="0" width="800" height="620" fill="#faf8f3"/>
<rect x="0" y="0" width="800" height="7" fill="#4a4a68"/>
<text class="ur" x="400" y="46" text-anchor="middle" font-size="12.8" font-weight="normal" fill="#777777">سیرتِ نبوی: معاہدات کا عملی نمونہ</text>
<text class="ur" x="400" y="84" text-anchor="middle" font-size="27.8" font-weight="bold" fill="#2d2d2d">میثاقِ مدینہ: ایک مملکت، متعدد</text>
<text class="ur" x="400" y="131" text-anchor="middle" font-size="27.8" font-weight="bold" fill="#2d2d2d">مذاہب</text>
<line x1="400.0" y1="216.0" x2="400.0" y2="180.0" stroke="#4a4a68" stroke-width="2" opacity="0.6"/>
<circle cx="400.0" cy="140.0" r="38" fill="#ffffff" stroke="#4a4a68" stroke-width="2"/>
<circle cx="400.0" cy="126.6" r="6.2" fill="#4a4a68"/><path d="M 388.8 152.2 a 11.2 14.4 0 0 1 22.5 0 Z" fill="#4a4a68"/><g opacity="0.55"><circle cx="379.2" cy="130.5" r="5.3" fill="#4a4a68"/><path d="M 369.7 152.1 a 9.5 12.1 0 0 1 19.0 0 Z" fill="#4a4a68"/></g><g opacity="0.55"><circle cx="420.8" cy="130.5" r="5.3" fill="#4a4a68"/><path d="M 411.3 152.1 a 9.5 12.1 0 0 1 19.0 0 Z" fill="#4a4a68"/></g>
<text class="ur" x="400" y="196" text-anchor="middle" font-size="13.9" font-weight="normal" fill="#2d2d2d">مہاجرین</text>
<line x1="462.8" y1="261.6" x2="497.0" y2="250.5" stroke="#4a4a68" stroke-width="2" opacity="0.6"/>
<circle cx="535.1" cy="238.1" r="38" fill="#ffffff" stroke="#4a4a68" stroke-width="2"/>
<path d="M 515.1 234.1 L 535.1 216.1 L 555.1 234.1 Z" fill="#4a4a68"/><rect x="520.7" y="234.1" width="28.8" height="18.4" fill="#4a4a68" opacity="0.85"/>
<text class="ur" x="535" y="294" text-anchor="middle" font-size="13.9" font-weight="normal" fill="#2d2d2d">انصار کے قبائل</text>
<line x1="438.8" y1="335.4" x2="460.0" y2="364.5" stroke="#4a4a68" stroke-width="2" opacity="0.6"/>
<circle cx="483.5" cy="396.9" r="38" fill="#ffffff" stroke="#4a4a68" stroke-width="2"/>
<path d="M 483.5 379.3 C 471.5 372.9 462.7 376.9 462.7 379.3 L 462.7 406.5 C 462.7 404.1 471.5 400.9 483.5 406.5 C 495.5 400.9 504.3 404.1 504.3 406.5 L 504.3 379.3 C 504.3 376.9 495.5 372.9 483.5 379.3 Z" fill="#4a4a68"/><line x1="483.5" y1="379.3" x2="483.5" y2="406.5" stroke="#ffffff" stroke-width="1.4"/>
<text class="ur" x="483" y="453" text-anchor="middle" font-size="13.9" font-weight="normal" fill="#2d2d2d">یہودی قبائل</text>
<line x1="361.2" y1="335.4" x2="340.0" y2="364.5" stroke="#4a4a68" stroke-width="2" opacity="0.6"/>
<circle cx="316.5" cy="396.9" r="38" fill="#ffffff" stroke="#4a4a68" stroke-width="2"/>
<path d="M 316.5 373.7 L 332.5 380.9 L 332.5 396.9 C 332.5 406.5 324.5 411.3 316.5 413.7 C 308.5 411.3 300.5 406.5 300.5 396.9 L 300.5 380.9 Z" fill="#4a4a68"/>
<text class="ur" x="317" y="453" text-anchor="middle" font-size="13.9" font-weight="normal" fill="#2d2d2d">باہمی دفاع</text>
<line x1="337.2" y1="261.6" x2="303.0" y2="250.5" stroke="#4a4a68" stroke-width="2" opacity="0.6"/>
<circle cx="264.9" cy="238.1" r="38" fill="#ffffff" stroke="#4a4a68" stroke-width="2"/>
<line x1="264.9" y1="216.5" x2="264.9" y2="250.1" stroke="#4a4a68" stroke-width="2.4"/><line x1="247.3" y1="220.5" x2="282.5" y2="220.5" stroke="#4a4a68" stroke-width="2.4"/><path d="M 240.1 230.1 L 254.5 230.1 L 247.3 239.7 Z" fill="#4a4a68"/><path d="M 275.3 230.1 L 289.7 230.1 L 282.5 239.7 Z" fill="#4a4a68"/><rect x="255.3" y="250.1" width="19.2" height="3.2" fill="#4a4a68"/>
<text class="ur" x="265" y="294" text-anchor="middle" font-size="13.9" font-weight="normal" fill="#2d2d2d">نبی ثالث کے</text>
<text class="ur" x="265" y="318" text-anchor="middle" font-size="13.9" font-weight="normal" fill="#2d2d2d">طور پر</text>
<circle cx="400" cy="282" r="62" fill="#4a4a68"/>
<text class="ur" x="400" y="284" text-anchor="middle" font-size="16.2" font-weight="bold" fill="#faf8f3">صحیفۂ</text>
<text class="ur" x="400" y="311" text-anchor="middle" font-size="16.2" font-weight="bold" fill="#faf8f3">مدینہ</text>
<line x1="90" y1="492" x2="710" y2="492" stroke="#c9c2b4" stroke-width="1"/>
<text class="ur" x="400" y="526" text-anchor="middle" font-size="15.1" font-weight="normal" fill="#2d2d2d">اس میثاق نے مہاجرین، انصار اور یہودی قبائل کو ایک سیاسی امت میں باندھا: دفاع مشترک،</text>
<text class="ur" x="400" y="553" text-anchor="middle" font-size="15.1" font-weight="normal" fill="#2d2d2d">مذاہب جدا۔</text>
<text class="lat" x="400" y="602" text-anchor="middle" font-size="12.0" font-weight="bold" fill="#4a4a68">sira material via Ibn Ishaq/Ibn Hisham</text>
</svg>
