<svg xmlns="http://www.w3.org/2000/svg" viewBox="0 0 800 620" width="800" height="620" font-family="'Noto Nastaliq Urdu', 'Urdu Typesetting', serif">
<defs><style>text{font-family:'Noto Nastaliq Urdu', 'Urdu Typesetting', serif;direction:rtl;unicode-bidi:isolate;}text.lat{font-family:Georgia, 'Noto Serif', serif;direction:ltr;}</style><marker id="ar" viewBox="0 0 10 10" refX="9" refY="5" markerWidth="7" markerHeight="7" orient="auto-start-reverse"><path d="M 0 0 L 10 5 L 0 10 z" fill="#2d2d2d"/></marker></defs>
<rect x="0" y="0" width="800" height="620" fill="#faf8f3"/>
<rect x="0" y="0" width="800" height="7" fill="#a45c40"/>
<text class="ur" x="400" y="46" text-anchor="middle" font-size="12.8" font-weight="normal" fill="#777777">اسلامی علوم میں عہد کا مقام</text>
<text class="ur" x="400" y="84" text-anchor="middle" font-size="27.8" font-weight="bold" fill="#2d2d2d">عہد شکنی اور ایمان: تین کلامی مؤقف</text>
<rect x="164" y="200" width="140" height="150" rx="12" fill="#a45c40" opacity="0.55"/>
<path d="M 234.0 220.2 L 258.8 231.4 L 258.8 256.2 C 258.8 271.1 246.4 278.5 234.0 282.2 C 221.6 278.5 209.2 271.1 209.2 256.2 L 209.2 231.4 Z" fill="#faf8f3"/>
<text class="ur" x="234" y="302" text-anchor="middle" font-size="14.5" font-weight="bold" fill="#faf8f3">خارجی: خروجِ</text>
<text class="ur" x="234" y="326" text-anchor="middle" font-size="14.5" font-weight="bold" fill="#faf8f3">ایمان</text>
<line x1="308" y1="275" x2="324" y2="275" stroke="#2d2d2d" stroke-width="2" marker-end="url(#ar)"/>
<rect x="330" y="200" width="140" height="150" rx="12" fill="#a45c40" opacity="0.78"/>
<line x1="400.0" y1="222.7" x2="400.0" y2="274.8" stroke="#faf8f3" stroke-width="3.7"/><line x1="372.7" y1="228.9" x2="427.3" y2="228.9" stroke="#faf8f3" stroke-width="3.7"/><path d="M 361.6 243.8 L 383.9 243.8 L 372.7 258.7 Z" fill="#faf8f3"/><path d="M 416.1 243.8 L 438.4 243.8 L 427.3 258.7 Z" fill="#faf8f3"/><rect x="385.1" y="274.8" width="29.8" height="5.0" fill="#faf8f3"/>
<text class="ur" x="400" y="302" text-anchor="middle" font-size="14.5" font-weight="bold" fill="#faf8f3">سنی: ایمان</text>
<text class="ur" x="400" y="326" text-anchor="middle" font-size="14.5" font-weight="bold" fill="#faf8f3">کمزور</text>
<line x1="474" y1="275" x2="490" y2="275" stroke="#2d2d2d" stroke-width="2" marker-end="url(#ar)"/>
<rect x="496" y="200" width="140" height="150" rx="12" fill="#a45c40" opacity="1.00"/>
<path d="M 566.0 274.8 C 527.6 251.2 543.7 222.7 566.0 241.3 C 588.3 222.7 604.4 251.2 566.0 274.8 Z" fill="#faf8f3"/>
<text class="ur" x="566" y="302" text-anchor="middle" font-size="14.5" font-weight="bold" fill="#faf8f3">مرجئی: بےاثر</text>
<text class="ur" x="400" y="392" text-anchor="middle" font-size="14.5" font-weight="normal" fill="#777777">سنی کلام درمیانی موقف پر متفق ہوا</text>
<line x1="90" y1="492" x2="710" y2="492" stroke="#c9c2b4" stroke-width="1"/>
<text class="ur" x="400" y="526" text-anchor="middle" font-size="15.1" font-weight="normal" fill="#2d2d2d">عہد شکنی ایمان پر کیا اثر ڈالتی ہے: خارجی سختی، اشعری/ماتریدی تدریج، اور مرجئی کم</text>
<text class="ur" x="400" y="553" text-anchor="middle" font-size="15.1" font-weight="normal" fill="#2d2d2d">اہمیتی۔</text>
<text class="lat" x="400" y="602" text-anchor="middle" font-size="12.0" font-weight="bold" fill="#a45c40">Q9:75-77</text>
</svg>
