<svg xmlns="http://www.w3.org/2000/svg" viewBox="0 0 800 620" width="800" height="620" font-family="'Noto Nastaliq Urdu', 'Urdu Typesetting', serif">
<defs><style>text{font-family:'Noto Nastaliq Urdu', 'Urdu Typesetting', serif;direction:rtl;unicode-bidi:isolate;}text.lat{font-family:Georgia, 'Noto Serif', serif;direction:ltr;}</style><marker id="ar" viewBox="0 0 10 10" refX="9" refY="5" markerWidth="7" markerHeight="7" orient="auto-start-reverse"><path d="M 0 0 L 10 5 L 0 10 z" fill="#2d2d2d"/></marker></defs>
<rect x="0" y="0" width="800" height="620" fill="#faf8f3"/>
<rect x="0" y="0" width="800" height="7" fill="#0f5257"/>
<text class="ur" x="400" y="46" text-anchor="middle" font-size="12.8" font-weight="normal" fill="#777777">اسلامی علوم میں عہد کا مقام</text>
<text class="ur" x="400" y="84" text-anchor="middle" font-size="27.8" font-weight="bold" fill="#2d2d2d">الست: ایک آیت، تین تعبیریں</text>
<line x1="400.0" y1="216.0" x2="400.0" y2="180.0" stroke="#0f5257" stroke-width="2" opacity="0.6"/>
<circle cx="400.0" cy="140.0" r="38" fill="#ffffff" stroke="#0f5257" stroke-width="2"/>
<path d="M 400.0 122.4 C 388.0 116.0 379.2 120.0 379.2 122.4 L 379.2 149.6 C 379.2 147.2 388.0 144.0 400.0 149.6 C 412.0 144.0 420.8 147.2 420.8 149.6 L 420.8 122.4 C 420.8 120.0 412.0 116.0 400.0 122.4 Z" fill="#0f5257"/><line x1="400.0" y1="122.4" x2="400.0" y2="149.6" stroke="#ffffff" stroke-width="1.4"/>
<text class="ur" x="400" y="196" text-anchor="middle" font-size="13.9" font-weight="normal" fill="#2d2d2d">لفظی اجتماع</text>
<line x1="457.2" y1="315.0" x2="488.3" y2="333.0" stroke="#0f5257" stroke-width="2" opacity="0.6"/>
<circle cx="523.0" cy="353.0" r="38" fill="#ffffff" stroke="#0f5257" stroke-width="2"/>
<polygon points="523.0,330.6 527.4,342.9 540.5,343.3 530.2,351.3 533.8,363.9 523.0,356.6 512.2,363.9 515.7,351.3 505.5,343.3 518.5,342.9" fill="#0f5257"/>
<text class="ur" x="523" y="409" text-anchor="middle" font-size="13.9" font-weight="normal" fill="#2d2d2d">فطرت کا</text>
<text class="ur" x="523" y="432" text-anchor="middle" font-size="13.9" font-weight="normal" fill="#2d2d2d">استعارہ</text>
<line x1="342.8" y1="315.0" x2="311.7" y2="333.0" stroke="#0f5257" stroke-width="2" opacity="0.6"/>
<circle cx="277.0" cy="353.0" r="38" fill="#ffffff" stroke="#0f5257" stroke-width="2"/>
<path d="M 277.0 365.0 C 252.2 349.8 262.6 331.4 277.0 343.4 C 291.4 331.4 301.8 349.8 277.0 365.0 Z" fill="#0f5257"/>
<text class="ur" x="277" y="409" text-anchor="middle" font-size="13.9" font-weight="normal" fill="#2d2d2d">تصوفی ذکر</text>
<circle cx="400" cy="282" r="62" fill="#0f5257"/>
<text class="ur" x="400" y="284" text-anchor="middle" font-size="16.2" font-weight="bold" fill="#faf8f3">آیتِ الست</text>
<text class="ur" x="400" y="311" text-anchor="middle" font-size="16.2" font-weight="bold" fill="#faf8f3">۷:۱۷۲</text>
<line x1="90" y1="492" x2="710" y2="492" stroke="#c9c2b4" stroke-width="1"/>
<text class="ur" x="400" y="526" text-anchor="middle" font-size="15.1" font-weight="normal" fill="#2d2d2d">آیت ۷:۱۷۲ کو روایتی تفسیر لفظی، عقلی تفسیر استعاراتی، اور تصوف تجرباتی طور پر پڑھتا</text>
<text class="ur" x="400" y="553" text-anchor="middle" font-size="15.1" font-weight="normal" fill="#2d2d2d">ہے۔</text>
<text class="lat" x="400" y="602" text-anchor="middle" font-size="12.0" font-weight="bold" fill="#0f5257">Q7:172</text>
</svg>
