<svg xmlns="http://www.w3.org/2000/svg" viewBox="0 0 800 620" width="800" height="620" font-family="'Noto Nastaliq Urdu', 'Urdu Typesetting', serif">
<defs><style>text{font-family:'Noto Nastaliq Urdu', 'Urdu Typesetting', serif;direction:rtl;unicode-bidi:isolate;}text.lat{font-family:Georgia, 'Noto Serif', serif;direction:ltr;}</style><marker id="ar" viewBox="0 0 10 10" refX="9" refY="5" markerWidth="7" markerHeight="7" orient="auto-start-reverse"><path d="M 0 0 L 10 5 L 0 10 z" fill="#2d2d2d"/></marker></defs>
<rect x="0" y="0" width="800" height="620" fill="#faf8f3"/>
<rect x="0" y="0" width="800" height="7" fill="#a45c40"/>
<text class="ur" x="400" y="46" text-anchor="middle" font-size="12.8" font-weight="normal" fill="#777777">اسلامی علوم میں عہد کا مقام</text>
<text class="ur" x="400" y="84" text-anchor="middle" font-size="27.8" font-weight="bold" fill="#2d2d2d">چار مسالک، ایک آیت: کفارۂ یمین</text>
<rect x="188" y="161" width="200" height="128" rx="12" fill="#ffffff" stroke="#a45c40" stroke-width="1.8"/>
<ellipse cx="288.0" cy="215.0" rx="18.4" ry="6.0" fill="#a45c40" opacity="0.60"/><ellipse cx="288.0" cy="204.8" rx="18.4" ry="6.0" fill="#a45c40" opacity="0.80"/><ellipse cx="288.0" cy="194.7" rx="18.4" ry="6.0" fill="#a45c40" opacity="1.00"/>
<text class="ur" x="288" y="249" text-anchor="middle" font-size="13.9" font-weight="bold" fill="#2d2d2d">حنفی: نقد جائز</text>
<rect x="412" y="161" width="200" height="128" rx="12" fill="#ffffff" stroke="#a45c40" stroke-width="1.8"/>
<circle cx="512.0" cy="189.2" r="9.2" fill="#a45c40"/><path d="M 495.4 226.9 a 16.6 21.2 0 0 1 33.1 0 Z" fill="#a45c40"/>
<text class="ur" x="512" y="249" text-anchor="middle" font-size="13.9" font-weight="bold" fill="#2d2d2d">مالکی: کھانا لازم</text>
<rect x="188" y="311" width="200" height="128" rx="12" fill="#ffffff" stroke="#a45c40" stroke-width="1.8"/>
<path d="M 288.0 337.4 C 274.2 330.0 264.1 334.6 264.1 337.4 L 264.1 368.6 C 264.1 365.9 274.2 362.2 288.0 368.6 C 301.8 362.2 311.9 365.9 311.9 368.6 L 311.9 337.4 C 311.9 334.6 301.8 330.0 288.0 337.4 Z" fill="#a45c40"/><line x1="288.0" y1="337.4" x2="288.0" y2="368.6" stroke="#ffffff" stroke-width="1.6"/>
<text class="ur" x="288" y="399" text-anchor="middle" font-size="13.9" font-weight="bold" fill="#2d2d2d">شافعی: ایک مُد</text>
<text class="ur" x="288" y="422" text-anchor="middle" font-size="13.9" font-weight="bold" fill="#2d2d2d">غلہ</text>
<rect x="412" y="311" width="200" height="128" rx="12" fill="#ffffff" stroke="#a45c40" stroke-width="1.8"/>
<path d="M 489.0 359.4 L 507.4 345.6 L 516.6 345.6 L 535.0 359.4 L 527.6 366.8 L 512.0 355.8 L 496.4 366.8 Z" fill="#a45c40"/>
<text class="ur" x="512" y="399" text-anchor="middle" font-size="13.9" font-weight="bold" fill="#2d2d2d">حنبلی: غلام آزادی</text>
<line x1="90" y1="492" x2="710" y2="492" stroke="#c9c2b4" stroke-width="1"/>
<text class="ur" x="400" y="526" text-anchor="middle" font-size="15.1" font-weight="normal" fill="#2d2d2d">ایک ہی قرآنی حکم (۵:۸۹) پر چار مسالک کا قسم توڑنے والے کے کفارے میں فقہی اختلاف۔</text>
<text class="lat" x="400" y="602" text-anchor="middle" font-size="12.0" font-weight="bold" fill="#a45c40">Q5:89</text>
</svg>
