<svg xmlns="http://www.w3.org/2000/svg" viewBox="0 0 800 620" width="800" height="620" font-family="'Noto Nastaliq Urdu', 'Urdu Typesetting', serif">
<defs><style>text{font-family:'Noto Nastaliq Urdu', 'Urdu Typesetting', serif;direction:rtl;unicode-bidi:isolate;}text.lat{font-family:Georgia, 'Noto Serif', serif;direction:ltr;}</style><marker id="ar" viewBox="0 0 10 10" refX="9" refY="5" markerWidth="7" markerHeight="7" orient="auto-start-reverse"><path d="M 0 0 L 10 5 L 0 10 z" fill="#2d2d2d"/></marker></defs>
<rect x="0" y="0" width="800" height="620" fill="#faf8f3"/>
<rect x="0" y="0" width="800" height="7" fill="#a45c40"/>
<text class="ur" x="400" y="46" text-anchor="middle" font-size="12.8" font-weight="normal" fill="#777777">شہری زندگی و قانون</text>
<text class="ur" x="400" y="84" text-anchor="middle" font-size="27.8" font-weight="bold" fill="#2d2d2d">سنسان سڑک پر تیز رفتاری</text>
<circle cx="215.0" cy="214.6" r="23.6" fill="#a45c40"/><path d="M 172.5 311.4 a 42.5 54.3 0 0 1 85.0 0 Z" fill="#a45c40"/>
<text class="ur" x="215" y="348" text-anchor="middle" font-size="18.6" font-weight="bold" fill="#2d2d2d">ڈرائیور</text>
<text class="ur" x="215" y="372" text-anchor="middle" font-size="13.3" font-weight="normal" fill="#777777">بن دیکھے مانتا ہے</text>
<rect x="537.8" y="202.8" width="94.4" height="94.4" fill="#a45c40"/><rect x="552.0" y="217.0" width="13.0" height="13.0" fill="#faf8f3" opacity="0.8"/><rect x="577.9" y="217.0" width="13.0" height="13.0" fill="#faf8f3" opacity="0.8"/><rect x="603.9" y="217.0" width="13.0" height="13.0" fill="#faf8f3" opacity="0.8"/><rect x="552.0" y="242.9" width="13.0" height="13.0" fill="#faf8f3" opacity="0.8"/><rect x="577.9" y="242.9" width="13.0" height="13.0" fill="#faf8f3" opacity="0.8"/><rect x="603.9" y="242.9" width="13.0" height="13.0" fill="#faf8f3" opacity="0.8"/><rect x="552.0" y="268.9" width="13.0" height="13.0" fill="#faf8f3" opacity="0.8"/><rect x="577.9" y="268.9" width="13.0" height="13.0" fill="#faf8f3" opacity="0.8"/><rect x="603.9" y="268.9" width="13.0" height="13.0" fill="#faf8f3" opacity="0.8"/>
<text class="ur" x="585" y="348" text-anchor="middle" font-size="18.6" font-weight="bold" fill="#2d2d2d">جائز اختیار</text>
<text class="ur" x="585" y="372" text-anchor="middle" font-size="13.3" font-weight="normal" fill="#777777">قاعدہ طے کرتا ہے</text>
<line x1="300" y1="250" x2="490" y2="250" stroke="#a45c40" stroke-width="3" marker-end="url(#ar)"/>
<line x1="500" y1="288" x2="310" y2="288" stroke="#a45c40" stroke-width="2" stroke-dasharray="6 4" opacity="0.7" marker-end="url(#ar)"/>
<text class="ur" x="400" y="312" text-anchor="middle" font-size="12.8" font-weight="normal" fill="#777777">جو حق ہو اسی حد تک</text>
<text class="ur" x="400" y="212" text-anchor="middle" font-size="15.1" font-weight="bold" fill="#a45c40">اولی الامر کی اطاعت</text>
<text class="ur" x="400" y="237" text-anchor="middle" font-size="15.1" font-weight="bold" fill="#a45c40">کرو</text>
<line x1="90" y1="492" x2="710" y2="492" stroke="#c9c2b4" stroke-width="1"/>
<text class="ur" x="400" y="526" text-anchor="middle" font-size="15.1" font-weight="normal" fill="#2d2d2d">بے کیمرا سنسان سڑک پر بھی منصفانہ ٹریفک قانون ماننا اس اللہ کی اطاعت ہے جو جائز</text>
<text class="ur" x="400" y="553" text-anchor="middle" font-size="15.1" font-weight="normal" fill="#2d2d2d">اختیار سے کام لیتا ہے، کیمرے کی نہیں۔</text>
<text class="lat" x="400" y="602" text-anchor="middle" font-size="12.0" font-weight="bold" fill="#a45c40">Q4:59</text>
</svg>
