<svg xmlns="http://www.w3.org/2000/svg" viewBox="0 0 800 620" width="800" height="620" font-family="'Noto Nastaliq Urdu', 'Urdu Typesetting', serif">
<defs><style>text{font-family:'Noto Nastaliq Urdu', 'Urdu Typesetting', serif;direction:rtl;unicode-bidi:isolate;}text.lat{font-family:Georgia, 'Noto Serif', serif;direction:ltr;}</style><marker id="ar" viewBox="0 0 10 10" refX="9" refY="5" markerWidth="7" markerHeight="7" orient="auto-start-reverse"><path d="M 0 0 L 10 5 L 0 10 z" fill="#2d2d2d"/></marker></defs>
<rect x="0" y="0" width="800" height="620" fill="#faf8f3"/>
<rect x="0" y="0" width="800" height="7" fill="#4a4a68"/>
<text class="ur" x="400" y="46" text-anchor="middle" font-size="12.8" font-weight="normal" fill="#777777">شہری زندگی و قانون</text>
<text class="ur" x="400" y="84" text-anchor="middle" font-size="27.8" font-weight="bold" fill="#2d2d2d">شہریت کی تقریب میں کھائی قسم</text>
<rect x="81" y="200" width="140" height="150" rx="12" fill="#4a4a68" opacity="0.55"/>
<rect x="131.2" y="222.7" width="39.7" height="54.6" rx="3.1" fill="#faf8f3"/><rect x="138.6" y="232.6" width="24.8" height="3.1" fill="#4a4a68" opacity="0.85"/><rect x="138.6" y="243.2" width="24.8" height="3.1" fill="#4a4a68" opacity="0.85"/><rect x="138.6" y="253.7" width="24.8" height="3.1" fill="#4a4a68" opacity="0.85"/><rect x="138.6" y="264.3" width="24.8" height="3.1" fill="#4a4a68" opacity="0.85"/>
<text class="ur" x="151" y="302" text-anchor="middle" font-size="14.5" font-weight="bold" fill="#faf8f3">قسم کہی گئی</text>
<line x1="225" y1="275" x2="241" y2="275" stroke="#2d2d2d" stroke-width="2" marker-end="url(#ar)"/>
<rect x="247" y="200" width="140" height="150" rx="12" fill="#4a4a68" opacity="0.70"/>
<path d="M 286.0 258.7 L 310.8 240.1 L 323.2 240.1 L 348.0 258.7 L 338.1 268.6 L 317.0 253.7 L 295.9 268.6 Z" fill="#faf8f3"/>
<text class="ur" x="317" y="302" text-anchor="middle" font-size="14.5" font-weight="bold" fill="#faf8f3">وفاداری کا</text>
<text class="ur" x="317" y="326" text-anchor="middle" font-size="14.5" font-weight="bold" fill="#faf8f3">عہد</text>
<line x1="391" y1="275" x2="407" y2="275" stroke="#2d2d2d" stroke-width="2" marker-end="url(#ar)"/>
<rect x="413" y="200" width="140" height="150" rx="12" fill="#4a4a68" opacity="0.85"/>
<path d="M 483.0 220.2 L 507.8 231.4 L 507.8 256.2 C 507.8 271.1 495.4 278.5 483.0 282.2 C 470.6 278.5 458.2 271.1 458.2 256.2 L 458.2 231.4 Z" fill="#faf8f3"/>
<text class="ur" x="483" y="302" text-anchor="middle" font-size="14.5" font-weight="bold" fill="#faf8f3">فرائض قبول</text>
<line x1="557" y1="275" x2="573" y2="275" stroke="#2d2d2d" stroke-width="2" marker-end="url(#ar)"/>
<rect x="579" y="200" width="140" height="150" rx="12" fill="#4a4a68" opacity="1.00"/>
<polygon points="649.0,221.5 655.9,240.5 676.1,241.2 660.2,253.6 665.8,273.1 649.0,261.8 632.2,273.1 637.8,253.6 621.9,241.2 642.1,240.5" fill="#faf8f3"/>
<text class="ur" x="649" y="302" text-anchor="middle" font-size="14.5" font-weight="bold" fill="#faf8f3">بات نبھائی</text>
<text class="ur" x="400" y="392" text-anchor="middle" font-size="14.5" font-weight="normal" fill="#777777">کھلے عہد کی پابندی نجی میں بھی لازم</text>
<line x1="90" y1="492" x2="710" y2="492" stroke="#c9c2b4" stroke-width="1"/>
<text class="ur" x="400" y="526" text-anchor="middle" font-size="15.1" font-weight="normal" fill="#2d2d2d">شہریت کی قسم وفاداری کا عہد ہے؛ اسے صرف رسمی الفاظ سمجھ کر بھول جانا گواہوں کے</text>
<text class="ur" x="400" y="553" text-anchor="middle" font-size="15.1" font-weight="normal" fill="#2d2d2d">سامنے کیے وعدے کو توڑنا ہے۔</text>
<text class="lat" x="400" y="602" text-anchor="middle" font-size="12.0" font-weight="bold" fill="#4a4a68">Q17:34</text>
</svg>
