<svg xmlns="http://www.w3.org/2000/svg" viewBox="0 0 800 620" width="800" height="620" font-family="'Noto Nastaliq Urdu', 'Urdu Typesetting', serif">
<defs><style>text{font-family:'Noto Nastaliq Urdu', 'Urdu Typesetting', serif;direction:rtl;unicode-bidi:isolate;}text.lat{font-family:Georgia, 'Noto Serif', serif;direction:ltr;}</style><marker id="ar" viewBox="0 0 10 10" refX="9" refY="5" markerWidth="7" markerHeight="7" orient="auto-start-reverse"><path d="M 0 0 L 10 5 L 0 10 z" fill="#2d2d2d"/></marker></defs>
<rect x="0" y="0" width="800" height="620" fill="#faf8f3"/>
<rect x="0" y="0" width="800" height="7" fill="#4a4a68"/>
<text class="ur" x="400" y="46" text-anchor="middle" font-size="12.8" font-weight="normal" fill="#777777">معاشرہ و ماحول</text>
<text class="ur" x="400" y="84" text-anchor="middle" font-size="27.8" font-weight="bold" fill="#2d2d2d">محلے کی مرمت کے لیے کرایہ داروں کی</text>
<text class="ur" x="400" y="131" text-anchor="middle" font-size="27.8" font-weight="bold" fill="#2d2d2d">انجمن</text>
<rect x="81" y="200" width="140" height="150" rx="12" fill="#4a4a68" opacity="0.55"/>
<circle cx="151.0" cy="235.5" r="9.7" fill="#faf8f3"/><path d="M 133.6 275.1 a 17.4 22.2 0 0 1 34.8 0 Z" fill="#faf8f3"/><g opacity="0.55"><circle cx="118.8" cy="241.4" r="8.2" fill="#faf8f3"/><path d="M 104.0 275.0 a 14.7 18.8 0 0 1 29.5 0 Z" fill="#faf8f3"/></g><g opacity="0.55"><circle cx="183.2" cy="241.4" r="8.2" fill="#faf8f3"/><path d="M 168.5 275.0 a 14.7 18.8 0 0 1 29.5 0 Z" fill="#faf8f3"/></g>
<text class="ur" x="151" y="302" text-anchor="middle" font-size="14.5" font-weight="bold" fill="#faf8f3">ہمسائے ملے</text>
<line x1="225" y1="275" x2="241" y2="275" stroke="#2d2d2d" stroke-width="2" marker-end="url(#ar)"/>
<rect x="247" y="200" width="140" height="150" rx="12" fill="#4a4a68" opacity="0.70"/>
<path d="M 286.0 258.7 L 310.8 240.1 L 323.2 240.1 L 348.0 258.7 L 338.1 268.6 L 317.0 253.7 L 295.9 268.6 Z" fill="#faf8f3"/>
<text class="ur" x="317" y="302" text-anchor="middle" font-size="14.5" font-weight="bold" fill="#faf8f3">شوریٰ ہوئی</text>
<line x1="391" y1="275" x2="407" y2="275" stroke="#2d2d2d" stroke-width="2" marker-end="url(#ar)"/>
<rect x="413" y="200" width="140" height="150" rx="12" fill="#4a4a68" opacity="0.85"/>
<rect x="463.2" y="222.7" width="39.7" height="54.6" rx="3.1" fill="#faf8f3"/><rect x="470.6" y="232.6" width="24.8" height="3.1" fill="#4a4a68" opacity="0.85"/><rect x="470.6" y="243.2" width="24.8" height="3.1" fill="#4a4a68" opacity="0.85"/><rect x="470.6" y="253.7" width="24.8" height="3.1" fill="#4a4a68" opacity="0.85"/><rect x="470.6" y="264.3" width="24.8" height="3.1" fill="#4a4a68" opacity="0.85"/>
<text class="ur" x="483" y="302" text-anchor="middle" font-size="14.5" font-weight="bold" fill="#faf8f3">منصوبہ طے</text>
<text class="ur" x="483" y="326" text-anchor="middle" font-size="14.5" font-weight="bold" fill="#faf8f3">پایا</text>
<line x1="557" y1="275" x2="573" y2="275" stroke="#2d2d2d" stroke-width="2" marker-end="url(#ar)"/>
<rect x="579" y="200" width="140" height="150" rx="12" fill="#4a4a68" opacity="1.00"/>
<rect x="624.2" y="225.2" width="49.6" height="49.6" fill="#faf8f3"/><rect x="631.6" y="232.6" width="6.8" height="6.8" fill="#4a4a68" opacity="0.8"/><rect x="645.3" y="232.6" width="6.8" height="6.8" fill="#4a4a68" opacity="0.8"/><rect x="658.9" y="232.6" width="6.8" height="6.8" fill="#4a4a68" opacity="0.8"/><rect x="631.6" y="246.3" width="6.8" height="6.8" fill="#4a4a68" opacity="0.8"/><rect x="645.3" y="246.3" width="6.8" height="6.8" fill="#4a4a68" opacity="0.8"/><rect x="658.9" y="246.3" width="6.8" height="6.8" fill="#4a4a68" opacity="0.8"/><rect x="631.6" y="259.9" width="6.8" height="6.8" fill="#4a4a68" opacity="0.8"/><rect x="645.3" y="259.9" width="6.8" height="6.8" fill="#4a4a68" opacity="0.8"/><rect x="658.9" y="259.9" width="6.8" height="6.8" fill="#4a4a68" opacity="0.8"/>
<text class="ur" x="649" y="302" text-anchor="middle" font-size="14.5" font-weight="bold" fill="#faf8f3">محلہ مرمت ہوا</text>
<text class="ur" x="400" y="392" text-anchor="middle" font-size="14.5" font-weight="normal" fill="#777777">عمل سے پہلے مشاورت، ایک آواز کا فیصلہ نہیں</text>
<line x1="90" y1="492" x2="710" y2="492" stroke="#c9c2b4" stroke-width="1"/>
<text class="ur" x="400" y="526" text-anchor="middle" font-size="15.1" font-weight="normal" fill="#2d2d2d">مقامی انجمن خود ایک چھوٹا عہد ہے — یہ مشترکہ شکایت سے منظم، مشاورتی، جواب دہ عمل کی</text>
<text class="ur" x="400" y="553" text-anchor="middle" font-size="15.1" font-weight="normal" fill="#2d2d2d">طرف بڑھتی ہے۔</text>
<text class="lat" x="400" y="602" text-anchor="middle" font-size="12.0" font-weight="bold" fill="#4a4a68">Q42:38 — their affair is by mutual consultation</text>
</svg>
