<svg xmlns="http://www.w3.org/2000/svg" viewBox="0 0 800 620" width="800" height="620" font-family="'Noto Nastaliq Urdu', 'Urdu Typesetting', serif">
<defs><style>text{font-family:'Noto Nastaliq Urdu', 'Urdu Typesetting', serif;direction:rtl;unicode-bidi:isolate;}text.lat{font-family:Georgia, 'Noto Serif', serif;direction:ltr;}</style><marker id="ar" viewBox="0 0 10 10" refX="9" refY="5" markerWidth="7" markerHeight="7" orient="auto-start-reverse"><path d="M 0 0 L 10 5 L 0 10 z" fill="#2d2d2d"/></marker></defs>
<rect x="0" y="0" width="800" height="620" fill="#faf8f3"/>
<rect x="0" y="0" width="800" height="7" fill="#a45c40"/>
<text class="ur" x="400" y="46" text-anchor="middle" font-size="12.8" font-weight="normal" fill="#777777">ڈیجیٹل دنیا و ٹیکنالوجی</text>
<text class="ur" x="400" y="84" text-anchor="middle" font-size="27.8" font-weight="bold" fill="#2d2d2d">وہ ڈیٹا جو حفاظت کے لیے سونپا گیا</text>
<path d="M 250 150 L 550 150 L 550 300 C 550 372 486 420 400 440 C 314 420 250 372 250 300 Z" fill="#a45c40" opacity="0.10" stroke="#a45c40" stroke-width="2.5"/>
<text class="ur" x="400" y="176" text-anchor="middle" font-size="15.1" font-weight="bold" fill="#a45c40">امانت میں محفوظ</text>
<circle cx="335" cy="232" r="31" fill="#ffffff" stroke="#a45c40" stroke-width="1.5"/>
<circle cx="335.0" cy="219.8" r="6.8" fill="#a45c40"/><path d="M 322.8 247.7 a 12.2 15.6 0 0 1 24.5 0 Z" fill="#a45c40"/>
<text class="ur" x="335" y="282" text-anchor="middle" font-size="13.3" font-weight="normal" fill="#2d2d2d">نام، پتہ</text>
<circle cx="465" cy="232" r="31" fill="#ffffff" stroke="#a45c40" stroke-width="1.5"/>
<rect x="455.5" y="214.4" width="19.0" height="31.3" rx="3.1" fill="#a45c40"/><rect x="458.2" y="218.4" width="13.6" height="19.7" fill="#ffffff" opacity="0.9"/>
<text class="ur" x="465" y="282" text-anchor="middle" font-size="13.3" font-weight="normal" fill="#2d2d2d">پیغامات</text>
<circle cx="335" cy="328" r="31" fill="#ffffff" stroke="#a45c40" stroke-width="1.5"/>
<path d="M 327.5 324.0 L 327.5 317.2 a 7.5 7.5 0 0 1 15.0 0 L 342.5 324.0" fill="none" stroke="#a45c40" stroke-width="3.1"/><rect x="323.4" y="324.0" width="23.1" height="16.3" rx="2.0" fill="#a45c40"/>
<text class="ur" x="335" y="378" text-anchor="middle" font-size="13.3" font-weight="normal" fill="#2d2d2d">پاس ورڈز</text>
<circle cx="465" cy="328" r="31" fill="#ffffff" stroke="#a45c40" stroke-width="1.5"/>
<rect x="454.1" y="311.0" width="21.8" height="29.9" rx="1.7" fill="#a45c40"/><rect x="458.2" y="316.5" width="13.6" height="1.7" fill="#ffffff" opacity="0.85"/><rect x="458.2" y="322.3" width="13.6" height="1.7" fill="#ffffff" opacity="0.85"/><rect x="458.2" y="328.0" width="13.6" height="1.7" fill="#ffffff" opacity="0.85"/><rect x="458.2" y="333.8" width="13.6" height="1.7" fill="#ffffff" opacity="0.85"/>
<text class="ur" x="465" y="378" text-anchor="middle" font-size="13.3" font-weight="normal" fill="#2d2d2d">ریکارڈز</text>
<text class="ur" x="400" y="480" text-anchor="middle" font-size="15.1" font-weight="bold" fill="#2d2d2d">کمپنی امین ہے، صارف کے ڈیٹا کی مالک کبھی نہیں</text>
<line x1="90" y1="492" x2="710" y2="492" stroke="#c9c2b4" stroke-width="1"/>
<text class="ur" x="400" y="526" text-anchor="middle" font-size="15.1" font-weight="normal" fill="#2d2d2d">آپ کے سرورز پر صارف کا ذاتی ڈیٹا امانت ہے، خام مال نہیں۔ آپ اس کے امین ہیں، استحصال</text>
<text class="ur" x="400" y="553" text-anchor="middle" font-size="15.1" font-weight="normal" fill="#2d2d2d">کے مالک نہیں۔</text>
<text class="lat" x="400" y="602" text-anchor="middle" font-size="12.0" font-weight="bold" fill="#a45c40">Q4:58</text>
</svg>
