<svg xmlns="http://www.w3.org/2000/svg" viewBox="0 0 800 620" width="800" height="620" font-family="'Noto Nastaliq Urdu', 'Urdu Typesetting', serif">
<defs><style>text{font-family:'Noto Nastaliq Urdu', 'Urdu Typesetting', serif;direction:rtl;unicode-bidi:isolate;}text.lat{font-family:Georgia, 'Noto Serif', serif;direction:ltr;}</style><marker id="ar" viewBox="0 0 10 10" refX="9" refY="5" markerWidth="7" markerHeight="7" orient="auto-start-reverse"><path d="M 0 0 L 10 5 L 0 10 z" fill="#2d2d2d"/></marker></defs>
<rect x="0" y="0" width="800" height="620" fill="#faf8f3"/>
<rect x="0" y="0" width="800" height="7" fill="#0f5257"/>
<text class="ur" x="400" y="46" text-anchor="middle" font-size="12.8" font-weight="normal" fill="#777777">تعلیم و علم</text>
<text class="ur" x="400" y="84" text-anchor="middle" font-size="27.8" font-weight="bold" fill="#2d2d2d">ایمان جو بچے کو سونپا</text>
<line x1="400.0" y1="216.0" x2="400.0" y2="180.0" stroke="#0f5257" stroke-width="2" opacity="0.6"/>
<circle cx="400.0" cy="140.0" r="38" fill="#ffffff" stroke="#0f5257" stroke-width="2"/>
<path d="M 400.0 152.0 C 375.2 136.8 385.6 118.4 400.0 130.4 C 414.4 118.4 424.8 136.8 400.0 152.0 Z" fill="#0f5257"/>
<text class="ur" x="400" y="196" text-anchor="middle" font-size="13.9" font-weight="normal" fill="#2d2d2d">عقیدہ</text>
<line x1="466.0" y1="282.0" x2="502.0" y2="282.0" stroke="#0f5257" stroke-width="2" opacity="0.6"/>
<circle cx="542.0" cy="282.0" r="38" fill="#ffffff" stroke="#0f5257" stroke-width="2"/>
<path d="M 542.0 264.4 C 530.0 258.0 521.2 262.0 521.2 264.4 L 521.2 291.6 C 521.2 289.2 530.0 286.0 542.0 291.6 C 554.0 286.0 562.8 289.2 562.8 291.6 L 562.8 264.4 C 562.8 262.0 554.0 258.0 542.0 264.4 Z" fill="#0f5257"/><line x1="542.0" y1="264.4" x2="542.0" y2="291.6" stroke="#ffffff" stroke-width="1.4"/>
<text class="ur" x="542" y="338" text-anchor="middle" font-size="13.9" font-weight="normal" fill="#2d2d2d">کتاب</text>
<line x1="400.0" y1="348.0" x2="400.0" y2="384.0" stroke="#0f5257" stroke-width="2" opacity="0.6"/>
<circle cx="400.0" cy="424.0" r="38" fill="#ffffff" stroke="#0f5257" stroke-width="2"/>
<path d="M 380.0 425.6 L 396.0 413.6 L 404.0 413.6 L 420.0 425.6 L 413.6 432.0 L 400.0 422.4 L 386.4 432.0 Z" fill="#0f5257"/>
<text class="ur" x="400" y="480" text-anchor="middle" font-size="13.9" font-weight="normal" fill="#2d2d2d">عمل</text>
<line x1="334.0" y1="282.0" x2="298.0" y2="282.0" stroke="#0f5257" stroke-width="2" opacity="0.6"/>
<circle cx="258.0" cy="282.0" r="38" fill="#ffffff" stroke="#0f5257" stroke-width="2"/>
<circle cx="258.0" cy="266.0" r="8.0" fill="#0f5257"/><path d="M 243.6 298.8 a 14.4 18.4 0 0 1 28.8 0 Z" fill="#0f5257"/>
<text class="ur" x="258" y="338" text-anchor="middle" font-size="13.9" font-weight="normal" fill="#2d2d2d">کردار</text>
<circle cx="400" cy="282" r="62" fill="#0f5257"/>
<text class="ur" x="400" y="284" text-anchor="middle" font-size="16.2" font-weight="bold" fill="#faf8f3">بچہ بطور</text>
<text class="ur" x="400" y="311" text-anchor="middle" font-size="16.2" font-weight="bold" fill="#faf8f3">امانت</text>
<line x1="90" y1="492" x2="710" y2="492" stroke="#c9c2b4" stroke-width="1"/>
<text class="ur" x="400" y="526" text-anchor="middle" font-size="15.1" font-weight="normal" fill="#2d2d2d">بچے کو دین سکھانا اس فطرت کی تکمیل ہے جس پر وہ پیدا ہوا، کوئی بیرونی چیز نہیں؛</text>
<text class="ur" x="400" y="553" text-anchor="middle" font-size="15.1" font-weight="normal" fill="#2d2d2d">ابتدائی عہد نئے دل میں تازہ ہوتا ہے۔</text>
<text class="lat" x="400" y="602" text-anchor="middle" font-size="12.0" font-weight="bold" fill="#0f5257">Q7:172 — کیا میں تمہارا رب نہیں؟ ہاں، ہم گواہ ہیں</text>
</svg>
