<svg xmlns="http://www.w3.org/2000/svg" viewBox="0 0 800 620" width="800" height="620" font-family="'Noto Nastaliq Urdu', 'Urdu Typesetting', serif">
<defs><style>text{font-family:'Noto Nastaliq Urdu', 'Urdu Typesetting', serif;direction:rtl;unicode-bidi:isolate;}text.lat{font-family:Georgia, 'Noto Serif', serif;direction:ltr;}</style><marker id="ar" viewBox="0 0 10 10" refX="9" refY="5" markerWidth="7" markerHeight="7" orient="auto-start-reverse"><path d="M 0 0 L 10 5 L 0 10 z" fill="#2d2d2d"/></marker></defs>
<rect x="0" y="0" width="800" height="620" fill="#faf8f3"/>
<rect x="0" y="0" width="800" height="7" fill="#a45c40"/>
<text class="ur" x="400" y="46" text-anchor="middle" font-size="12.8" font-weight="normal" fill="#777777">تعلیم و علم</text>
<text class="ur" x="400" y="84" text-anchor="middle" font-size="27.8" font-weight="bold" fill="#2d2d2d">نوٹس جو اپنے نام سے پیش کیے</text>
<rect x="70" y="130" width="310" height="316" rx="14" fill="#ffffff" stroke="#a33b2a" stroke-width="2" opacity="0.95"/>
<text class="ur" x="225" y="162" text-anchor="middle" font-size="17.4" font-weight="bold" fill="#a33b2a">✗  سرقہ</text>
<rect x="193.0" y="208.0" width="64.0" height="88.0" rx="5.0" fill="#a33b2a"/><rect x="205.0" y="224.0" width="40.0" height="5.0" fill="#ffffff" opacity="0.85"/><rect x="205.0" y="241.0" width="40.0" height="5.0" fill="#ffffff" opacity="0.85"/><rect x="205.0" y="258.0" width="40.0" height="5.0" fill="#ffffff" opacity="0.85"/><rect x="205.0" y="275.0" width="40.0" height="5.0" fill="#ffffff" opacity="0.85"/>
<text class="ur" x="225" y="336" text-anchor="middle" font-size="15.1" font-weight="normal" fill="#2d2d2d">دوسرے کا کام اپنا بتا کر</text>
<text class="ur" x="225" y="361" text-anchor="middle" font-size="15.1" font-weight="normal" fill="#2d2d2d">جمع کیا</text>
<text class="ur" x="225" y="378" text-anchor="middle" font-size="13.3" font-weight="normal" fill="#777777">حق باطل سے ملایا</text>
<rect x="420" y="130" width="310" height="316" rx="14" fill="#ffffff" stroke="#2e6f40" stroke-width="2" opacity="0.95"/>
<text class="ur" x="575" y="162" text-anchor="middle" font-size="17.4" font-weight="bold" fill="#2e6f40">✓  حوالہ دیا</text>
<path d="M 575.0 218.0 C 545.0 202.0 523.0 212.0 523.0 218.0 L 523.0 286.0 C 523.0 280.0 545.0 272.0 575.0 286.0 C 605.0 272.0 627.0 280.0 627.0 286.0 L 627.0 218.0 C 627.0 212.0 605.0 202.0 575.0 218.0 Z" fill="#2e6f40"/><line x1="575.0" y1="218.0" x2="575.0" y2="286.0" stroke="#ffffff" stroke-width="3.5"/>
<text class="ur" x="575" y="336" text-anchor="middle" font-size="15.1" font-weight="normal" fill="#2d2d2d">ہر لیا گیا خیال منسوب</text>
<text class="ur" x="575" y="361" text-anchor="middle" font-size="15.1" font-weight="normal" fill="#2d2d2d">کیا</text>
<text class="ur" x="575" y="378" text-anchor="middle" font-size="13.3" font-weight="normal" fill="#777777">ریکارڈ سچا رہا</text>
<line x1="400" y1="140" x2="400" y2="436" stroke="#c9c2b4" stroke-dasharray="5 5"/>
<line x1="90" y1="492" x2="710" y2="492" stroke="#c9c2b4" stroke-width="1"/>
<text class="ur" x="400" y="526" text-anchor="middle" font-size="15.1" font-weight="normal" fill="#2d2d2d">ساتھی کا مضمون نقل کر کے اپنا بنا پیش کرنا دیانتدار محنت کی امانت توڑتا ہے؛ حوالہ</text>
<text class="ur" x="400" y="553" text-anchor="middle" font-size="15.1" font-weight="normal" fill="#2d2d2d">دینا ریکارڈ کو سچا رکھتا ہے۔</text>
<text class="lat" x="400" y="602" text-anchor="middle" font-size="12.0" font-weight="bold" fill="#a45c40">Q2:42 — حق کو باطل سے نہ ملاؤ</text>
</svg>
