<svg xmlns="http://www.w3.org/2000/svg" viewBox="0 0 800 620" width="800" height="620" font-family="'Noto Nastaliq Urdu', 'Urdu Typesetting', serif">
<defs><style>text{font-family:'Noto Nastaliq Urdu', 'Urdu Typesetting', serif;direction:rtl;unicode-bidi:isolate;}text.lat{font-family:Georgia, 'Noto Serif', serif;direction:ltr;}</style><marker id="ar" viewBox="0 0 10 10" refX="9" refY="5" markerWidth="7" markerHeight="7" orient="auto-start-reverse"><path d="M 0 0 L 10 5 L 0 10 z" fill="#2d2d2d"/></marker></defs>
<rect x="0" y="0" width="800" height="620" fill="#faf8f3"/>
<rect x="0" y="0" width="800" height="7" fill="#a45c40"/>
<text class="ur" x="400" y="46" text-anchor="middle" font-size="12.8" font-weight="normal" fill="#777777">تعلیم و علم</text>
<text class="ur" x="400" y="84" text-anchor="middle" font-size="27.8" font-weight="bold" fill="#2d2d2d">وہ فیس جس پر سب متفق تھے</text>
<line x1="400" y1="170" x2="400" y2="380" stroke="#a45c40" stroke-width="7"/>
<rect x="330" y="380" width="140" height="14" rx="4" fill="#a45c40"/>
<line x1="200" y1="200" x2="600" y2="200" stroke="#a45c40" stroke-width="6"/>
<circle cx="400" cy="200" r="13" fill="#2d2d2d"/>
<line x1="215" y1="200" x2="215" y2="252" stroke="#a45c40" stroke-width="2"/>
<path d="M 143 252 L 287 252 L 261 306 L 169 306 Z" fill="#ffffff" stroke="#a45c40" stroke-width="2"/>
<ellipse cx="215.0" cy="289.4" rx="17.6" ry="5.7" fill="#a45c40" opacity="0.60"/><ellipse cx="215.0" cy="279.8" rx="17.6" ry="5.7" fill="#a45c40" opacity="0.80"/><ellipse cx="215.0" cy="270.1" rx="17.6" ry="5.7" fill="#a45c40" opacity="1.00"/>
<text class="ur" x="215" y="336" text-anchor="middle" font-size="15.7" font-weight="bold" fill="#2d2d2d">لی گئی فیس</text>
<text class="ur" x="215" y="352" text-anchor="middle" font-size="13.3" font-weight="normal" fill="#777777">داخلے پر طے شدہ</text>
<line x1="585" y1="200" x2="585" y2="252" stroke="#a45c40" stroke-width="2"/>
<path d="M 513 252 L 657 252 L 631 306 L 539 306 Z" fill="#ffffff" stroke="#a45c40" stroke-width="2"/>
<path d="M 585.0 263.0 C 571.8 256.0 562.1 260.4 562.1 263.0 L 562.1 293.0 C 562.1 290.3 571.8 286.8 585.0 293.0 C 598.2 286.8 607.9 290.3 607.9 293.0 L 607.9 263.0 C 607.9 260.4 598.2 256.0 585.0 263.0 Z" fill="#a45c40"/><line x1="585.0" y1="263.0" x2="585.0" y2="293.0" stroke="#faf8f3" stroke-width="1.5"/>
<text class="ur" x="585" y="336" text-anchor="middle" font-size="15.7" font-weight="bold" fill="#2d2d2d">دی گئی تعلیم</text>
<text class="ur" x="585" y="352" text-anchor="middle" font-size="13.3" font-weight="normal" fill="#777777">جس کے لیے فیس تھی</text>
<text class="ur" x="400" y="424" text-anchor="middle" font-size="14.5" font-weight="normal" fill="#777777">کوئی فریق بعد میں حساب نہ بڑھائے</text>
<line x1="90" y1="492" x2="710" y2="492" stroke="#c9c2b4" stroke-width="1"/>
<text class="ur" x="400" y="526" text-anchor="middle" font-size="15.1" font-weight="normal" fill="#2d2d2d">اسکول کی فیس ایک متعین خدمت کی قیمت ہے؛ داخلے کے بعد چھپے اخراجات یا خاندان کا واجب</text>
<text class="ur" x="400" y="553" text-anchor="middle" font-size="15.1" font-weight="normal" fill="#2d2d2d">ادائیگی روکنا دونوں معاہدہ توڑتے ہیں۔</text>
<text class="lat" x="400" y="602" text-anchor="middle" font-size="12.0" font-weight="bold" fill="#a45c40">Q83:1-3 — تباہی ہے ناپ میں کمی کرنے والوں کے لیے</text>
</svg>
