<svg xmlns="http://www.w3.org/2000/svg" viewBox="0 0 800 620" width="800" height="620" font-family="'Noto Nastaliq Urdu', 'Urdu Typesetting', serif">
<defs><style>text{font-family:'Noto Nastaliq Urdu', 'Urdu Typesetting', serif;direction:rtl;unicode-bidi:isolate;}text.lat{font-family:Georgia, 'Noto Serif', serif;direction:ltr;}</style><marker id="ar" viewBox="0 0 10 10" refX="9" refY="5" markerWidth="7" markerHeight="7" orient="auto-start-reverse"><path d="M 0 0 L 10 5 L 0 10 z" fill="#2d2d2d"/></marker></defs>
<rect x="0" y="0" width="800" height="620" fill="#faf8f3"/>
<rect x="0" y="0" width="800" height="7" fill="#a45c40"/>
<text class="ur" x="400" y="46" text-anchor="middle" font-size="12.8" font-weight="normal" fill="#777777">خاندان و ذاتی زندگی</text>
<text class="ur" x="400" y="84" text-anchor="middle" font-size="27.8" font-weight="bold" fill="#2d2d2d">جو بھی کھانے پر آ جائے</text>
<path d="M 454.5 156.2 A 128 128 0 0 1 515.8 217.5" fill="none" stroke="#a45c40" stroke-width="2.5" opacity="0.65"/>
<polygon points="519.6,225.6 510.3,215.2 517.6,211.8" fill="#a45c40" opacity="0.9"/>
<path d="M 515.8 326.5 A 128 128 0 0 1 454.5 387.8" fill="none" stroke="#a45c40" stroke-width="2.5" opacity="0.65"/>
<polygon points="446.4,391.6 456.8,382.3 460.2,389.6" fill="#a45c40" opacity="0.9"/>
<path d="M 345.5 387.8 A 128 128 0 0 1 284.2 326.5" fill="none" stroke="#a45c40" stroke-width="2.5" opacity="0.65"/>
<polygon points="280.4,318.4 289.7,328.8 282.4,332.2" fill="#a45c40" opacity="0.9"/>
<path d="M 284.2 217.5 A 128 128 0 0 1 345.5 156.2" fill="none" stroke="#a45c40" stroke-width="2.5" opacity="0.65"/>
<polygon points="353.6,152.4 343.2,161.7 339.8,154.4" fill="#a45c40" opacity="0.9"/>
<circle cx="400.0" cy="144.0" r="46" fill="#a45c40"/>
<circle cx="400.0" cy="124.6" r="7.6" fill="#faf8f3"/><path d="M 386.3 155.8 a 13.7 17.5 0 0 1 27.4 0 Z" fill="#faf8f3"/>
<text class="ur" x="400" y="170" text-anchor="middle" font-size="12.2" font-weight="normal" fill="#faf8f3">مہمان آیا</text>
<circle cx="528.0" cy="272.0" r="46" fill="#a45c40"/>
<path d="M 509.0 264.0 L 528.0 246.9 L 547.0 264.0 Z" fill="#faf8f3"/><rect x="514.3" y="264.0" width="27.4" height="17.5" fill="#faf8f3" opacity="0.85"/>
<text class="ur" x="528" y="298" text-anchor="middle" font-size="12.2" font-weight="normal" fill="#faf8f3">خوش آمدید</text>
<text class="ur" x="528" y="318" text-anchor="middle" font-size="12.2" font-weight="normal" fill="#faf8f3">کہا</text>
<circle cx="400.0" cy="400.0" r="46" fill="#a45c40"/>
<path d="M 400.0 407.2 C 376.4 392.8 386.3 375.3 400.0 386.7 C 413.7 375.3 423.6 392.8 400.0 407.2 Z" fill="#faf8f3"/>
<text class="ur" x="400" y="426" text-anchor="middle" font-size="12.2" font-weight="normal" fill="#faf8f3">کھلایا، عزت</text>
<text class="ur" x="400" y="446" text-anchor="middle" font-size="12.2" font-weight="normal" fill="#faf8f3">دی</text>
<circle cx="272.0" cy="272.0" r="46" fill="#a45c40"/>
<path d="M 253.0 269.3 L 268.2 257.9 L 275.8 257.9 L 291.0 269.3 L 284.9 275.4 L 272.0 266.3 L 259.1 275.4 Z" fill="#faf8f3"/>
<text class="ur" x="272" y="298" text-anchor="middle" font-size="12.2" font-weight="normal" fill="#faf8f3">اچھی طرح</text>
<text class="ur" x="272" y="318" text-anchor="middle" font-size="12.2" font-weight="normal" fill="#faf8f3">رخصت</text>
<text class="ur" x="400" y="276" text-anchor="middle" font-size="15.7" font-weight="bold" fill="#2d2d2d">مہمان نوازی</text>
<text class="ur" x="400" y="302" text-anchor="middle" font-size="15.7" font-weight="bold" fill="#2d2d2d">کی تجدید</text>
<line x1="90" y1="492" x2="710" y2="492" stroke="#c9c2b4" stroke-width="1"/>
<text class="ur" x="400" y="526" text-anchor="middle" font-size="15.1" font-weight="normal" fill="#2d2d2d">بغیر بتائے آنے والے مہمانوں اور رشتہ داروں کی مہمان نوازی ایمان کا مسلسل فرض ہے، ہر</text>
<text class="ur" x="400" y="553" text-anchor="middle" font-size="15.1" font-weight="normal" fill="#2d2d2d">بار نئے سرے سے۔</text>
<text class="lat" x="400" y="602" text-anchor="middle" font-size="12.0" font-weight="bold" fill="#a45c40">بخاری — مہمان کی عزت کرے</text>
</svg>
