<svg xmlns="http://www.w3.org/2000/svg" viewBox="0 0 800 620" width="800" height="620" font-family="'Noto Nastaliq Urdu', 'Urdu Typesetting', serif">
<defs><style>text{font-family:'Noto Nastaliq Urdu', 'Urdu Typesetting', serif;direction:rtl;unicode-bidi:isolate;}text.lat{font-family:Georgia, 'Noto Serif', serif;direction:ltr;}</style><marker id="ar" viewBox="0 0 10 10" refX="9" refY="5" markerWidth="7" markerHeight="7" orient="auto-start-reverse"><path d="M 0 0 L 10 5 L 0 10 z" fill="#2d2d2d"/></marker></defs>
<rect x="0" y="0" width="800" height="620" fill="#faf8f3"/>
<rect x="0" y="0" width="800" height="7" fill="#0f5257"/>
<text class="ur" x="400" y="46" text-anchor="middle" font-size="12.8" font-weight="normal" fill="#777777">صحت، بدن و طب</text>
<text class="ur" x="400" y="84" text-anchor="middle" font-size="27.8" font-weight="bold" fill="#2d2d2d">نیند جو ٹالتے رہے</text>
<line x1="400" y1="170" x2="400" y2="380" stroke="#0f5257" stroke-width="7"/>
<rect x="330" y="380" width="140" height="14" rx="4" fill="#0f5257"/>
<line x1="200" y1="200" x2="600" y2="200" stroke="#0f5257" stroke-width="6"/>
<circle cx="400" cy="200" r="13" fill="#2d2d2d"/>
<line x1="215" y1="200" x2="215" y2="252" stroke="#0f5257" stroke-width="2"/>
<path d="M 143 252 L 287 252 L 261 306 L 169 306 Z" fill="#ffffff" stroke="#0f5257" stroke-width="2"/>
<circle cx="215.0" cy="278.0" r="19.4" fill="none" stroke="#0f5257" stroke-width="4.0"/><line x1="215.0" y1="278.0" x2="215.0" y2="266.6" stroke="#0f5257" stroke-width="3.1"/><line x1="215.0" y1="278.0" x2="223.8" y2="282.4" stroke="#0f5257" stroke-width="3.1"/>
<text class="ur" x="215" y="336" text-anchor="middle" font-size="15.7" font-weight="bold" fill="#2d2d2d">کام کے گھنٹے</text>
<text class="ur" x="215" y="352" text-anchor="middle" font-size="13.3" font-weight="normal" fill="#777777">نیند سے چرایا گیا</text>
<line x1="585" y1="200" x2="585" y2="252" stroke="#0f5257" stroke-width="2"/>
<path d="M 513 252 L 657 252 L 631 306 L 539 306 Z" fill="#ffffff" stroke="#0f5257" stroke-width="2"/>
<path d="M 585.0 295.6 C 557.7 278.9 569.2 258.6 585.0 271.8 C 600.8 258.6 612.3 278.9 585.0 295.6 Z" fill="#0f5257"/>
<text class="ur" x="585" y="336" text-anchor="middle" font-size="15.7" font-weight="bold" fill="#2d2d2d">جسم کا حق</text>
<text class="ur" x="585" y="352" text-anchor="middle" font-size="13.3" font-weight="normal" fill="#777777">جو واپس واجب ہے</text>
<text class="ur" x="400" y="424" text-anchor="middle" font-size="14.5" font-weight="normal" fill="#777777">جسم کا تم پر حق ہے</text>
<line x1="90" y1="492" x2="710" y2="492" stroke="#c9c2b4" stroke-width="1"/>
<text class="ur" x="400" y="526" text-anchor="middle" font-size="15.1" font-weight="normal" fill="#2d2d2d">تمہارے جسم کا تم پر حق ہے جسے عزائم بھی نظرانداز نہیں کر سکتے — آرام سستی نہیں، عہد</text>
<text class="ur" x="400" y="553" text-anchor="middle" font-size="15.1" font-weight="normal" fill="#2d2d2d">کا قرض ہے۔</text>
<text class="lat" x="400" y="602" text-anchor="middle" font-size="12.0" font-weight="bold" fill="#0f5257">حدیث — تیرے جسم کا تجھ پر حق ہے</text>
</svg>
