<svg xmlns="http://www.w3.org/2000/svg" viewBox="0 0 800 620" width="800" height="620" font-family="'Noto Nastaliq Urdu', 'Urdu Typesetting', serif">
<defs><style>text{font-family:'Noto Nastaliq Urdu', 'Urdu Typesetting', serif;direction:rtl;unicode-bidi:isolate;}text.lat{font-family:Georgia, 'Noto Serif', serif;direction:ltr;}</style><marker id="ar" viewBox="0 0 10 10" refX="9" refY="5" markerWidth="7" markerHeight="7" orient="auto-start-reverse"><path d="M 0 0 L 10 5 L 0 10 z" fill="#2d2d2d"/></marker></defs>
<rect x="0" y="0" width="800" height="620" fill="#faf8f3"/>
<rect x="0" y="0" width="800" height="7" fill="#0f5257"/>
<text class="ur" x="400" y="46" text-anchor="middle" font-size="12.8" font-weight="normal" fill="#777777">صحت، بدن و طب</text>
<text class="ur" x="400" y="84" text-anchor="middle" font-size="27.8" font-weight="bold" fill="#2d2d2d">جسم جو صرف عاریتاً ملا</text>
<path d="M 250 150 L 550 150 L 550 300 C 550 372 486 420 400 440 C 314 420 250 372 250 300 Z" fill="#0f5257" opacity="0.10" stroke="#0f5257" stroke-width="2.5"/>
<text class="ur" x="400" y="176" text-anchor="middle" font-size="15.1" font-weight="bold" fill="#0f5257">امانت میں رکھا گیا</text>
<circle cx="335" cy="232" r="31" fill="#ffffff" stroke="#0f5257" stroke-width="1.5"/>
<path d="M 335.0 243.6 C 313.9 230.7 322.8 215.0 335.0 225.2 C 347.2 215.0 356.1 230.7 335.0 243.6 Z" fill="#0f5257"/>
<text class="ur" x="335" y="282" text-anchor="middle" font-size="13.3" font-weight="normal" fill="#2d2d2d">صحت</text>
<circle cx="465" cy="232" r="31" fill="#ffffff" stroke="#0f5257" stroke-width="1.5"/>
<circle cx="465.0" cy="230.0" r="15.0" fill="none" stroke="#0f5257" stroke-width="3.1"/><line x1="465.0" y1="230.0" x2="465.0" y2="221.2" stroke="#0f5257" stroke-width="2.4"/><line x1="465.0" y1="230.0" x2="471.8" y2="233.4" stroke="#0f5257" stroke-width="2.4"/>
<text class="ur" x="465" y="282" text-anchor="middle" font-size="13.3" font-weight="normal" fill="#2d2d2d">وقت</text>
<circle cx="335" cy="328" r="31" fill="#ffffff" stroke="#0f5257" stroke-width="1.5"/>
<path d="M 335.0 310.4 C 346.6 324.6 347.2 341.0 335.0 341.0 C 322.8 341.0 323.4 324.6 335.0 310.4 Z" fill="#0f5257"/>
<text class="ur" x="335" y="378" text-anchor="middle" font-size="13.3" font-weight="normal" fill="#2d2d2d">توانائی</text>
<text class="ur" x="400" y="480" text-anchor="middle" font-size="15.1" font-weight="bold" fill="#2d2d2d">تم اپنے جسم کے امین ہو، کبھی مالک نہیں</text>
<line x1="90" y1="492" x2="710" y2="492" stroke="#c9c2b4" stroke-width="1"/>
<text class="ur" x="400" y="526" text-anchor="middle" font-size="15.1" font-weight="normal" fill="#2d2d2d">تمہارا جسم مکمل ملکیت نہیں — یہ امانت ہے، اور تم اس کے استعمال کے جواب دہ ہو۔</text>
<text class="lat" x="400" y="602" text-anchor="middle" font-size="12.0" font-weight="bold" fill="#0f5257">Q4:58</text>
</svg>
