<svg xmlns="http://www.w3.org/2000/svg" viewBox="0 0 800 620" width="800" height="620" font-family="'Noto Nastaliq Urdu', 'Urdu Typesetting', serif">
<defs><style>text{font-family:'Noto Nastaliq Urdu', 'Urdu Typesetting', serif;direction:rtl;unicode-bidi:isolate;}text.lat{font-family:Georgia, 'Noto Serif', serif;direction:ltr;}</style><marker id="ar" viewBox="0 0 10 10" refX="9" refY="5" markerWidth="7" markerHeight="7" orient="auto-start-reverse"><path d="M 0 0 L 10 5 L 0 10 z" fill="#2d2d2d"/></marker></defs>
<rect x="0" y="0" width="800" height="620" fill="#faf8f3"/>
<rect x="0" y="0" width="800" height="7" fill="#4a4a68"/>
<text class="ur" x="400" y="46" text-anchor="middle" font-size="12.8" font-weight="normal" fill="#777777">صحت، بدن و طب</text>
<text class="ur" x="400" y="84" text-anchor="middle" font-size="27.8" font-weight="bold" fill="#2d2d2d">وہ محلہ جس نے ویکسین چھوڑ دی</text>
<line x1="400.0" y1="216.0" x2="400.0" y2="180.0" stroke="#4a4a68" stroke-width="2" opacity="0.6"/>
<circle cx="400.0" cy="140.0" r="38" fill="#ffffff" stroke="#4a4a68" stroke-width="2"/>
<path d="M 400.0 116.8 L 416.0 124.0 L 416.0 140.0 C 416.0 149.6 408.0 154.4 400.0 156.8 C 392.0 154.4 384.0 149.6 384.0 140.0 L 384.0 124.0 Z" fill="#4a4a68"/>
<text class="ur" x="400" y="196" text-anchor="middle" font-size="13.9" font-weight="normal" fill="#2d2d2d">کمزوروں کی</text>
<text class="ur" x="400" y="219" text-anchor="middle" font-size="13.9" font-weight="normal" fill="#2d2d2d">حفاظت</text>
<line x1="466.0" y1="282.0" x2="502.0" y2="282.0" stroke="#4a4a68" stroke-width="2" opacity="0.6"/>
<circle cx="542.0" cy="282.0" r="38" fill="#ffffff" stroke="#4a4a68" stroke-width="2"/>
<circle cx="542.0" cy="268.6" r="6.2" fill="#4a4a68"/><path d="M 530.8 294.2 a 11.2 14.4 0 0 1 22.5 0 Z" fill="#4a4a68"/><g opacity="0.55"><circle cx="521.2" cy="272.5" r="5.3" fill="#4a4a68"/><path d="M 511.7 294.1 a 9.5 12.1 0 0 1 19.0 0 Z" fill="#4a4a68"/></g><g opacity="0.55"><circle cx="562.8" cy="272.5" r="5.3" fill="#4a4a68"/><path d="M 553.3 294.1 a 9.5 12.1 0 0 1 19.0 0 Z" fill="#4a4a68"/></g>
<text class="ur" x="542" y="338" text-anchor="middle" font-size="13.9" font-weight="normal" fill="#2d2d2d">محلے کی حفاظت</text>
<line x1="400.0" y1="348.0" x2="400.0" y2="384.0" stroke="#4a4a68" stroke-width="2" opacity="0.6"/>
<circle cx="400.0" cy="424.0" r="38" fill="#ffffff" stroke="#4a4a68" stroke-width="2"/>
<circle cx="400.0" cy="408.0" r="8.0" fill="#4a4a68"/><path d="M 385.6 440.8 a 14.4 18.4 0 0 1 28.8 0 Z" fill="#4a4a68"/>
<text class="ur" x="400" y="480" text-anchor="middle" font-size="13.9" font-weight="normal" fill="#2d2d2d">اپنی حفاظت</text>
<line x1="334.0" y1="282.0" x2="298.0" y2="282.0" stroke="#4a4a68" stroke-width="2" opacity="0.6"/>
<circle cx="258.0" cy="282.0" r="38" fill="#ffffff" stroke="#4a4a68" stroke-width="2"/>
<path d="M 258.0 294.0 C 233.2 278.8 243.6 260.4 258.0 272.4 C 272.4 260.4 282.8 278.8 258.0 294.0 Z" fill="#4a4a68"/>
<text class="ur" x="258" y="338" text-anchor="middle" font-size="13.9" font-weight="normal" fill="#2d2d2d">فرض، صرف پسند</text>
<text class="ur" x="258" y="361" text-anchor="middle" font-size="13.9" font-weight="normal" fill="#2d2d2d">نہیں</text>
<circle cx="400" cy="282" r="62" fill="#4a4a68"/>
<text class="ur" x="400" y="284" text-anchor="middle" font-size="16.2" font-weight="bold" fill="#faf8f3">اجتماعی</text>
<text class="ur" x="400" y="311" text-anchor="middle" font-size="16.2" font-weight="bold" fill="#faf8f3">تحفظ</text>
<line x1="90" y1="492" x2="710" y2="492" stroke="#c9c2b4" stroke-width="1"/>
<text class="ur" x="400" y="526" text-anchor="middle" font-size="15.1" font-weight="normal" fill="#2d2d2d">ویکسین سے انکار نجی معاملہ نہیں جب سارے محلے میں وبا کا دروازہ کھول دے — اجتماعی</text>
<text class="ur" x="400" y="553" text-anchor="middle" font-size="15.1" font-weight="normal" fill="#2d2d2d">نقصان حقیقی ہے۔</text>
<text class="lat" x="400" y="602" text-anchor="middle" font-size="12.0" font-weight="bold" fill="#4a4a68">حدیث — لا ضرر ولا ضرار</text>
</svg>
