<svg xmlns="http://www.w3.org/2000/svg" viewBox="0 0 800 620" width="800" height="620" font-family="'Noto Nastaliq Urdu', 'Urdu Typesetting', serif">
<defs><style>text{font-family:'Noto Nastaliq Urdu', 'Urdu Typesetting', serif;direction:rtl;unicode-bidi:isolate;}text.lat{font-family:Georgia, 'Noto Serif', serif;direction:ltr;}</style><marker id="ar" viewBox="0 0 10 10" refX="9" refY="5" markerWidth="7" markerHeight="7" orient="auto-start-reverse"><path d="M 0 0 L 10 5 L 0 10 z" fill="#2d2d2d"/></marker></defs>
<rect x="0" y="0" width="800" height="620" fill="#faf8f3"/>
<rect x="0" y="0" width="800" height="7" fill="#a45c40"/>
<text class="ur" x="400" y="46" text-anchor="middle" font-size="12.8" font-weight="normal" fill="#777777">صحت، بدن و طب</text>
<text class="ur" x="400" y="84" text-anchor="middle" font-size="27.8" font-weight="bold" fill="#2d2d2d">اجنبی کو دیا گیا گردہ</text>
<rect x="81" y="200" width="140" height="150" rx="12" fill="#a45c40" opacity="0.55"/>
<path d="M 151.0 274.8 C 112.6 251.2 128.7 222.7 151.0 241.3 C 173.3 222.7 189.4 251.2 151.0 274.8 Z" fill="#faf8f3"/>
<text class="ur" x="151" y="302" text-anchor="middle" font-size="14.5" font-weight="bold" fill="#faf8f3">ضرورت پیدا</text>
<text class="ur" x="151" y="326" text-anchor="middle" font-size="14.5" font-weight="bold" fill="#faf8f3">ہوئی</text>
<line x1="225" y1="275" x2="241" y2="275" stroke="#2d2d2d" stroke-width="2" marker-end="url(#ar)"/>
<rect x="247" y="200" width="140" height="150" rx="12" fill="#a45c40" opacity="0.70"/>
<path d="M 286.0 258.7 L 310.8 240.1 L 323.2 240.1 L 348.0 258.7 L 338.1 268.6 L 317.0 253.7 L 295.9 268.6 Z" fill="#faf8f3"/>
<text class="ur" x="317" y="302" text-anchor="middle" font-size="14.5" font-weight="bold" fill="#faf8f3">آزاد رضامندی</text>
<line x1="391" y1="275" x2="407" y2="275" stroke="#2d2d2d" stroke-width="2" marker-end="url(#ar)"/>
<rect x="413" y="200" width="140" height="150" rx="12" fill="#a45c40" opacity="0.85"/>
<path d="M 483.0 221.5 C 504.1 247.5 505.3 277.3 483.0 277.3 C 460.7 277.3 461.9 247.5 483.0 221.5 Z" fill="#faf8f3"/>
<text class="ur" x="483" y="302" text-anchor="middle" font-size="14.5" font-weight="bold" fill="#faf8f3">عضو دیا گیا</text>
<line x1="557" y1="275" x2="573" y2="275" stroke="#2d2d2d" stroke-width="2" marker-end="url(#ar)"/>
<rect x="579" y="200" width="140" height="150" rx="12" fill="#a45c40" opacity="1.00"/>
<circle cx="649.0" cy="231.4" r="12.4" fill="#faf8f3"/><path d="M 626.7 282.2 a 22.3 28.5 0 0 1 44.6 0 Z" fill="#faf8f3"/>
<text class="ur" x="649" y="302" text-anchor="middle" font-size="14.5" font-weight="bold" fill="#faf8f3">جان بچی</text>
<text class="ur" x="400" y="392" text-anchor="middle" font-size="14.5" font-weight="normal" fill="#777777">ایک جان بچانا گویا سب انسانیت بچانا ہے</text>
<line x1="90" y1="492" x2="710" y2="492" stroke="#c9c2b4" stroke-width="1"/>
<text class="ur" x="400" y="526" text-anchor="middle" font-size="15.1" font-weight="normal" fill="#2d2d2d">دوسری جان بچانے کو جسم کا حصہ دینا اجازت سے آزاد رضامندی، پھر ایسی نعمت تک جاتا ہے</text>
<text class="ur" x="400" y="553" text-anchor="middle" font-size="15.1" font-weight="normal" fill="#2d2d2d">جو جسم کی حرمت بھی برقرار رکھتی ہے۔</text>
<text class="lat" x="400" y="602" text-anchor="middle" font-size="12.0" font-weight="bold" fill="#a45c40">Q5:32</text>
</svg>
