<svg xmlns="http://www.w3.org/2000/svg" viewBox="0 0 800 620" width="800" height="620" font-family="'Noto Nastaliq Urdu', 'Urdu Typesetting', serif">
<defs><style>text{font-family:'Noto Nastaliq Urdu', 'Urdu Typesetting', serif;direction:rtl;unicode-bidi:isolate;}text.lat{font-family:Georgia, 'Noto Serif', serif;direction:ltr;}</style><marker id="ar" viewBox="0 0 10 10" refX="9" refY="5" markerWidth="7" markerHeight="7" orient="auto-start-reverse"><path d="M 0 0 L 10 5 L 0 10 z" fill="#2d2d2d"/></marker></defs>
<rect x="0" y="0" width="800" height="620" fill="#faf8f3"/>
<rect x="0" y="0" width="800" height="7" fill="#4a4a68"/>
<text class="ur" x="400" y="46" text-anchor="middle" font-size="12.8" font-weight="normal" fill="#777777">گفتار، ابلاغ و شہادت</text>
<text class="ur" x="400" y="84" text-anchor="middle" font-size="27.8" font-weight="bold" fill="#2d2d2d">بغیر منتخب ہوئے کمیٹی کی ترجمانی</text>
<line x1="400.0" y1="216.0" x2="400.0" y2="180.0" stroke="#4a4a68" stroke-width="2" opacity="0.6"/>
<circle cx="400.0" cy="140.0" r="38" fill="#ffffff" stroke="#4a4a68" stroke-width="2"/>
<circle cx="400.0" cy="126.6" r="6.2" fill="#4a4a68"/><path d="M 388.8 152.2 a 11.2 14.4 0 0 1 22.5 0 Z" fill="#4a4a68"/><g opacity="0.55"><circle cx="379.2" cy="130.5" r="5.3" fill="#4a4a68"/><path d="M 369.7 152.1 a 9.5 12.1 0 0 1 19.0 0 Z" fill="#4a4a68"/></g><g opacity="0.55"><circle cx="420.8" cy="130.5" r="5.3" fill="#4a4a68"/><path d="M 411.3 152.1 a 9.5 12.1 0 0 1 19.0 0 Z" fill="#4a4a68"/></g>
<text class="ur" x="400" y="196" text-anchor="middle" font-size="13.9" font-weight="normal" fill="#2d2d2d">کوئی ووٹ نہیں</text>
<text class="ur" x="400" y="219" text-anchor="middle" font-size="13.9" font-weight="normal" fill="#2d2d2d">ہوا</text>
<line x1="466.0" y1="282.0" x2="502.0" y2="282.0" stroke="#4a4a68" stroke-width="2" opacity="0.6"/>
<circle cx="542.0" cy="282.0" r="38" fill="#ffffff" stroke="#4a4a68" stroke-width="2"/>
<rect x="530.8" y="259.6" width="22.4" height="36.8" rx="3.6" fill="#4a4a68"/><rect x="534.0" y="264.4" width="16.0" height="23.2" fill="#ffffff" opacity="0.9"/>
<text class="ur" x="542" y="338" text-anchor="middle" font-size="13.9" font-weight="normal" fill="#2d2d2d">بیان جاری</text>
<line x1="400.0" y1="348.0" x2="400.0" y2="384.0" stroke="#4a4a68" stroke-width="2" opacity="0.6"/>
<circle cx="400.0" cy="424.0" r="38" fill="#ffffff" stroke="#4a4a68" stroke-width="2"/>
<path d="M 400.0 400.8 L 416.0 408.0 L 416.0 424.0 C 416.0 433.6 408.0 438.4 400.0 440.8 C 392.0 438.4 384.0 433.6 384.0 424.0 L 384.0 408.0 Z" fill="#4a4a68"/>
<text class="ur" x="400" y="480" text-anchor="middle" font-size="13.9" font-weight="normal" fill="#2d2d2d">امانت کا غلط</text>
<text class="ur" x="400" y="503" text-anchor="middle" font-size="13.9" font-weight="normal" fill="#2d2d2d">استعمال</text>
<line x1="334.0" y1="282.0" x2="298.0" y2="282.0" stroke="#4a4a68" stroke-width="2" opacity="0.6"/>
<circle cx="258.0" cy="282.0" r="38" fill="#ffffff" stroke="#4a4a68" stroke-width="2"/>
<circle cx="258.0" cy="266.0" r="8.0" fill="#4a4a68"/><path d="M 243.6 298.8 a 14.4 18.4 0 0 1 28.8 0 Z" fill="#4a4a68"/>
<text class="ur" x="258" y="338" text-anchor="middle" font-size="13.9" font-weight="normal" fill="#2d2d2d">گروہ نظرانداز</text>
<circle cx="400" cy="282" r="62" fill="#4a4a68"/>
<text class="ur" x="400" y="284" text-anchor="middle" font-size="16.2" font-weight="bold" fill="#faf8f3">غیر مجاز</text>
<text class="ur" x="400" y="311" text-anchor="middle" font-size="16.2" font-weight="bold" fill="#faf8f3">ترجمان</text>
<line x1="90" y1="492" x2="710" y2="492" stroke="#c9c2b4" stroke-width="1"/>
<text class="ur" x="400" y="526" text-anchor="middle" font-size="15.1" font-weight="normal" fill="#2d2d2d">کسی گروہ کی مرضی کے بغیر اس کی نمائندگی کا دعویٰ اس کی آواز بغیر اجازت اُدھار لینا</text>
<text class="ur" x="400" y="553" text-anchor="middle" font-size="15.1" font-weight="normal" fill="#2d2d2d">ہے، اجتماعی امانت کی چھوٹی غصب گری۔</text>
<text class="lat" x="400" y="602" text-anchor="middle" font-size="12.0" font-weight="bold" fill="#4a4a68">Q4:58</text>
</svg>
