<svg xmlns="http://www.w3.org/2000/svg" viewBox="0 0 800 620" width="800" height="620" font-family="'Noto Nastaliq Urdu', 'Urdu Typesetting', serif">
<defs><style>text{font-family:'Noto Nastaliq Urdu', 'Urdu Typesetting', serif;direction:rtl;unicode-bidi:isolate;}text.lat{font-family:Georgia, 'Noto Serif', serif;direction:ltr;}</style><marker id="ar" viewBox="0 0 10 10" refX="9" refY="5" markerWidth="7" markerHeight="7" orient="auto-start-reverse"><path d="M 0 0 L 10 5 L 0 10 z" fill="#2d2d2d"/></marker></defs>
<rect x="0" y="0" width="800" height="620" fill="#faf8f3"/>
<rect x="0" y="0" width="800" height="7" fill="#a45c40"/>
<text class="ur" x="400" y="46" text-anchor="middle" font-size="12.8" font-weight="normal" fill="#777777">مال، صدقہ و قرض</text>
<text class="ur" x="400" y="84" text-anchor="middle" font-size="27.8" font-weight="bold" fill="#2d2d2d">میراث کی مقررہ تقسیم</text>
<line x1="400.0" y1="216.0" x2="400.0" y2="180.0" stroke="#a45c40" stroke-width="2" opacity="0.6"/>
<circle cx="400.0" cy="140.0" r="38" fill="#ffffff" stroke="#a45c40" stroke-width="2"/>
<circle cx="400.0" cy="124.0" r="8.0" fill="#a45c40"/><path d="M 385.6 156.8 a 14.4 18.4 0 0 1 28.8 0 Z" fill="#a45c40"/>
<text class="ur" x="400" y="196" text-anchor="middle" font-size="13.9" font-weight="normal" fill="#2d2d2d">اولاد</text>
<line x1="466.0" y1="282.0" x2="502.0" y2="282.0" stroke="#a45c40" stroke-width="2" opacity="0.6"/>
<circle cx="542.0" cy="282.0" r="38" fill="#ffffff" stroke="#a45c40" stroke-width="2"/>
<circle cx="542.0" cy="266.0" r="8.0" fill="#a45c40"/><path d="M 527.6 298.8 a 14.4 18.4 0 0 1 28.8 0 Z" fill="#a45c40"/>
<text class="ur" x="542" y="338" text-anchor="middle" font-size="13.9" font-weight="normal" fill="#2d2d2d">زوج</text>
<line x1="400.0" y1="348.0" x2="400.0" y2="384.0" stroke="#a45c40" stroke-width="2" opacity="0.6"/>
<circle cx="400.0" cy="424.0" r="38" fill="#ffffff" stroke="#a45c40" stroke-width="2"/>
<circle cx="400.0" cy="408.0" r="8.0" fill="#a45c40"/><path d="M 385.6 440.8 a 14.4 18.4 0 0 1 28.8 0 Z" fill="#a45c40"/>
<text class="ur" x="400" y="480" text-anchor="middle" font-size="13.9" font-weight="normal" fill="#2d2d2d">والدین</text>
<line x1="334.0" y1="282.0" x2="298.0" y2="282.0" stroke="#a45c40" stroke-width="2" opacity="0.6"/>
<circle cx="258.0" cy="282.0" r="38" fill="#ffffff" stroke="#a45c40" stroke-width="2"/>
<circle cx="258.0" cy="268.6" r="6.2" fill="#a45c40"/><path d="M 246.8 294.2 a 11.2 14.4 0 0 1 22.5 0 Z" fill="#a45c40"/><g opacity="0.55"><circle cx="237.2" cy="272.5" r="5.3" fill="#a45c40"/><path d="M 227.7 294.1 a 9.5 12.1 0 0 1 19.0 0 Z" fill="#a45c40"/></g><g opacity="0.55"><circle cx="278.8" cy="272.5" r="5.3" fill="#a45c40"/><path d="M 269.3 294.1 a 9.5 12.1 0 0 1 19.0 0 Z" fill="#a45c40"/></g>
<text class="ur" x="258" y="338" text-anchor="middle" font-size="13.9" font-weight="normal" fill="#2d2d2d">دیگر وارثان</text>
<circle cx="400" cy="282" r="62" fill="#a45c40"/>
<text class="ur" x="400" y="284" text-anchor="middle" font-size="16.2" font-weight="bold" fill="#faf8f3">ترکہ،</text>
<text class="ur" x="400" y="311" text-anchor="middle" font-size="16.2" font-weight="bold" fill="#faf8f3">مقررہ حصے</text>
<line x1="90" y1="492" x2="710" y2="492" stroke="#c9c2b4" stroke-width="1"/>
<text class="ur" x="400" y="526" text-anchor="middle" font-size="15.1" font-weight="normal" fill="#2d2d2d">وراثت کے حصے اللہ نے مقرر کیے ہیں، وصیت سے کسی ایک وارث کو ترجیح نہیں دی جا سکتی۔</text>
<text class="ur" x="400" y="553" text-anchor="middle" font-size="15.1" font-weight="normal" fill="#2d2d2d">مومن منصوبہ بناتا ہے، حق نہیں بدلتا۔</text>
<text class="lat" x="400" y="602" text-anchor="middle" font-size="12.0" font-weight="bold" fill="#a45c40">Q4:11</text>
</svg>
