<svg xmlns="http://www.w3.org/2000/svg" viewBox="0 0 800 620" width="800" height="620" font-family="'Noto Nastaliq Urdu', 'Urdu Typesetting', serif">
<defs><style>text{font-family:'Noto Nastaliq Urdu', 'Urdu Typesetting', serif;direction:rtl;unicode-bidi:isolate;}text.lat{font-family:Georgia, 'Noto Serif', serif;direction:ltr;}</style><marker id="ar" viewBox="0 0 10 10" refX="9" refY="5" markerWidth="7" markerHeight="7" orient="auto-start-reverse"><path d="M 0 0 L 10 5 L 0 10 z" fill="#2d2d2d"/></marker></defs>
<rect x="0" y="0" width="800" height="620" fill="#faf8f3"/>
<rect x="0" y="0" width="800" height="7" fill="#4a4a68"/>
<text class="ur" x="400" y="46" text-anchor="middle" font-size="12.8" font-weight="normal" fill="#777777">مال، صدقہ و قرض</text>
<text class="ur" x="400" y="84" text-anchor="middle" font-size="27.8" font-weight="bold" fill="#2d2d2d">چیریٹی کتنا انتظامی خرچ رکھ سکتی ہے</text>
<line x1="400" y1="170" x2="400" y2="380" stroke="#4a4a68" stroke-width="7"/>
<rect x="330" y="380" width="140" height="14" rx="4" fill="#4a4a68"/>
<line x1="200" y1="200" x2="600" y2="200" stroke="#4a4a68" stroke-width="6"/>
<circle cx="400" cy="200" r="13" fill="#2d2d2d"/>
<line x1="215" y1="200" x2="215" y2="252" stroke="#4a4a68" stroke-width="2"/>
<path d="M 143 252 L 287 252 L 261 306 L 169 306 Z" fill="#ffffff" stroke="#4a4a68" stroke-width="2"/>
<rect x="197.4" y="260.4" width="35.2" height="35.2" fill="#4a4a68"/><rect x="202.7" y="265.7" width="4.8" height="4.8" fill="#faf8f3" opacity="0.8"/><rect x="212.4" y="265.7" width="4.8" height="4.8" fill="#faf8f3" opacity="0.8"/><rect x="222.0" y="265.7" width="4.8" height="4.8" fill="#faf8f3" opacity="0.8"/><rect x="202.7" y="275.4" width="4.8" height="4.8" fill="#faf8f3" opacity="0.8"/><rect x="212.4" y="275.4" width="4.8" height="4.8" fill="#faf8f3" opacity="0.8"/><rect x="222.0" y="275.4" width="4.8" height="4.8" fill="#faf8f3" opacity="0.8"/><rect x="202.7" y="285.0" width="4.8" height="4.8" fill="#faf8f3" opacity="0.8"/><rect x="212.4" y="285.0" width="4.8" height="4.8" fill="#faf8f3" opacity="0.8"/><rect x="222.0" y="285.0" width="4.8" height="4.8" fill="#faf8f3" opacity="0.8"/>
<text class="ur" x="215" y="336" text-anchor="middle" font-size="15.7" font-weight="bold" fill="#2d2d2d">لیا گیا انتظامی</text>
<text class="ur" x="215" y="362" text-anchor="middle" font-size="15.7" font-weight="bold" fill="#2d2d2d">خرچ</text>
<text class="ur" x="215" y="368" text-anchor="middle" font-size="13.3" font-weight="normal" fill="#777777">جمع کرنے والوں کی اجرت</text>
<line x1="585" y1="200" x2="585" y2="252" stroke="#4a4a68" stroke-width="2"/>
<path d="M 513 252 L 657 252 L 631 306 L 539 306 Z" fill="#ffffff" stroke="#4a4a68" stroke-width="2"/>
<circle cx="585.0" cy="264.8" r="8.8" fill="#4a4a68"/><path d="M 569.2 300.9 a 15.8 20.2 0 0 1 31.7 0 Z" fill="#4a4a68"/>
<text class="ur" x="585" y="336" text-anchor="middle" font-size="15.7" font-weight="bold" fill="#2d2d2d">مستحق تک پہنچا</text>
<text class="ur" x="585" y="352" text-anchor="middle" font-size="13.3" font-weight="normal" fill="#777777">آٹھ مقررہ زمرے</text>
<text class="ur" x="400" y="424" text-anchor="middle" font-size="14.5" font-weight="normal" fill="#777777">انتظام صرف اپنے مناسب حصے میں جائز</text>
<line x1="90" y1="492" x2="710" y2="492" stroke="#c9c2b4" stroke-width="1"/>
<text class="ur" x="400" y="526" text-anchor="middle" font-size="15.1" font-weight="normal" fill="#2d2d2d">زکوٰۃ جمع کرنے والے خود ایک مقررہ زمرے میں فنڈ سے منصفانہ اجرت کے حق دار ہیں۔ مگر</text>
<text class="ur" x="400" y="553" text-anchor="middle" font-size="15.1" font-weight="normal" fill="#2d2d2d">انتظامی خرچ متناسب رہے، عطیہ نگل نہ جائے۔</text>
<text class="lat" x="400" y="602" text-anchor="middle" font-size="12.0" font-weight="bold" fill="#4a4a68">Q9:60</text>
</svg>
