<svg xmlns="http://www.w3.org/2000/svg" viewBox="0 0 800 620" width="800" height="620" font-family="'Noto Nastaliq Urdu', 'Urdu Typesetting', serif">
<defs><style>text{font-family:'Noto Nastaliq Urdu', 'Urdu Typesetting', serif;direction:rtl;unicode-bidi:isolate;}text.lat{font-family:Georgia, 'Noto Serif', serif;direction:ltr;}</style><marker id="ar" viewBox="0 0 10 10" refX="9" refY="5" markerWidth="7" markerHeight="7" orient="auto-start-reverse"><path d="M 0 0 L 10 5 L 0 10 z" fill="#2d2d2d"/></marker></defs>
<rect x="0" y="0" width="800" height="620" fill="#faf8f3"/>
<rect x="0" y="0" width="800" height="7" fill="#a45c40"/>
<text class="ur" x="400" y="46" text-anchor="middle" font-size="12.8" font-weight="normal" fill="#777777">مال، صدقہ و قرض</text>
<text class="ur" x="400" y="84" text-anchor="middle" font-size="27.8" font-weight="bold" fill="#2d2d2d">دیانت دار خدمت پر دی گئی بخشش</text>
<line x1="400" y1="170" x2="400" y2="380" stroke="#a45c40" stroke-width="7"/>
<rect x="330" y="380" width="140" height="14" rx="4" fill="#a45c40"/>
<line x1="200" y1="200" x2="600" y2="200" stroke="#a45c40" stroke-width="6"/>
<circle cx="400" cy="200" r="13" fill="#2d2d2d"/>
<line x1="215" y1="200" x2="215" y2="252" stroke="#a45c40" stroke-width="2"/>
<path d="M 143 252 L 287 252 L 261 306 L 169 306 Z" fill="#ffffff" stroke="#a45c40" stroke-width="2"/>
<path d="M 193.0 284.2 L 210.6 271.0 L 219.4 271.0 L 237.0 284.2 L 230.0 291.2 L 215.0 280.6 L 200.0 291.2 Z" fill="#a45c40"/>
<text class="ur" x="215" y="336" text-anchor="middle" font-size="15.7" font-weight="bold" fill="#2d2d2d">دی گئی بخشش</text>
<text class="ur" x="215" y="352" text-anchor="middle" font-size="13.3" font-weight="normal" fill="#777777">آزادانہ اضافہ</text>
<line x1="585" y1="200" x2="585" y2="252" stroke="#a45c40" stroke-width="2"/>
<path d="M 513 252 L 657 252 L 631 306 L 539 306 Z" fill="#ffffff" stroke="#a45c40" stroke-width="2"/>
<ellipse cx="585.0" cy="289.4" rx="17.6" ry="5.7" fill="#a45c40" opacity="0.60"/><ellipse cx="585.0" cy="279.8" rx="17.6" ry="5.7" fill="#a45c40" opacity="0.80"/><ellipse cx="585.0" cy="270.1" rx="17.6" ry="5.7" fill="#a45c40" opacity="1.00"/>
<text class="ur" x="585" y="336" text-anchor="middle" font-size="15.7" font-weight="bold" fill="#2d2d2d">دی گئی خدمت</text>
<text class="ur" x="585" y="352" text-anchor="middle" font-size="13.3" font-weight="normal" fill="#777777">پیچھے دیانت دار کوشش</text>
<text class="ur" x="400" y="424" text-anchor="middle" font-size="14.5" font-weight="normal" fill="#777777">شکرگزاری محنت کے مطابق، مطالبہ نہیں</text>
<line x1="90" y1="492" x2="710" y2="492" stroke="#c9c2b4" stroke-width="1"/>
<text class="ur" x="400" y="526" text-anchor="middle" font-size="15.1" font-weight="normal" fill="#2d2d2d">بخشش خدمت کے بدلے رضاکارانہ انعام ہے، دی گئی محنت کے مقابل تولی جائے۔ یہ کوشش کا</text>
<text class="ur" x="400" y="553" text-anchor="middle" font-size="15.1" font-weight="normal" fill="#2d2d2d">جواب ہے، حق نہیں۔</text>
<text class="lat" x="400" y="602" text-anchor="middle" font-size="12.0" font-weight="bold" fill="#a45c40">Q9:60</text>
</svg>
