<svg xmlns="http://www.w3.org/2000/svg" viewBox="0 0 800 620" width="800" height="620" font-family="'Noto Nastaliq Urdu', 'Urdu Typesetting', serif">
<defs><style>text{font-family:'Noto Nastaliq Urdu', 'Urdu Typesetting', serif;direction:rtl;unicode-bidi:isolate;}text.lat{font-family:Georgia, 'Noto Serif', serif;direction:ltr;}</style><marker id="ar" viewBox="0 0 10 10" refX="9" refY="5" markerWidth="7" markerHeight="7" orient="auto-start-reverse"><path d="M 0 0 L 10 5 L 0 10 z" fill="#2d2d2d"/></marker></defs>
<rect x="0" y="0" width="800" height="620" fill="#faf8f3"/>
<rect x="0" y="0" width="800" height="7" fill="#0f5257"/>
<text class="ur" x="400" y="46" text-anchor="middle" font-size="12.8" font-weight="normal" fill="#777777">عبادت و تزکیہ</text>
<text class="ur" x="400" y="84" text-anchor="middle" font-size="27.8" font-weight="bold" fill="#2d2d2d">دن میں پانچ بار، وہی عہد</text>
<path d="M 454.5 156.2 A 128 128 0 0 1 515.8 217.5" fill="none" stroke="#0f5257" stroke-width="2.5" opacity="0.65"/>
<polygon points="519.6,225.6 510.3,215.2 517.6,211.8" fill="#0f5257" opacity="0.9"/>
<path d="M 515.8 326.5 A 128 128 0 0 1 454.5 387.8" fill="none" stroke="#0f5257" stroke-width="2.5" opacity="0.65"/>
<polygon points="446.4,391.6 456.8,382.3 460.2,389.6" fill="#0f5257" opacity="0.9"/>
<path d="M 345.5 387.8 A 128 128 0 0 1 284.2 326.5" fill="none" stroke="#0f5257" stroke-width="2.5" opacity="0.65"/>
<polygon points="280.4,318.4 289.7,328.8 282.4,332.2" fill="#0f5257" opacity="0.9"/>
<path d="M 284.2 217.5 A 128 128 0 0 1 345.5 156.2" fill="none" stroke="#0f5257" stroke-width="2.5" opacity="0.65"/>
<polygon points="353.6,152.4 343.2,161.7 339.8,154.4" fill="#0f5257" opacity="0.9"/>
<circle cx="400.0" cy="144.0" r="46" fill="#0f5257"/>
<path d="M 406.1 120.0 a 16.7 16.7 0 1 0 0.01 31.9 a 13.7 13.7 0 1 1 -0.01 -31.9 Z" fill="#faf8f3"/>
<text class="ur" x="400" y="170" text-anchor="middle" font-size="12.2" font-weight="normal" fill="#faf8f3">فجر</text>
<circle cx="528.0" cy="272.0" r="46" fill="#0f5257"/>
<path d="M 534.1 248.0 a 16.7 16.7 0 1 0 0.01 31.9 a 13.7 13.7 0 1 1 -0.01 -31.9 Z" fill="#faf8f3"/>
<text class="ur" x="528" y="298" text-anchor="middle" font-size="12.2" font-weight="normal" fill="#faf8f3">ظہر</text>
<circle cx="400.0" cy="400.0" r="46" fill="#0f5257"/>
<path d="M 406.1 376.0 a 16.7 16.7 0 1 0 0.01 31.9 a 13.7 13.7 0 1 1 -0.01 -31.9 Z" fill="#faf8f3"/>
<text class="ur" x="400" y="426" text-anchor="middle" font-size="12.2" font-weight="normal" fill="#faf8f3">عصر</text>
<circle cx="272.0" cy="272.0" r="46" fill="#0f5257"/>
<path d="M 278.1 248.0 a 16.7 16.7 0 1 0 0.01 31.9 a 13.7 13.7 0 1 1 -0.01 -31.9 Z" fill="#faf8f3"/>
<text class="ur" x="272" y="298" text-anchor="middle" font-size="12.2" font-weight="normal" fill="#faf8f3">مغرب</text>
<text class="ur" x="400" y="276" text-anchor="middle" font-size="15.7" font-weight="bold" fill="#2d2d2d">عہد کی تجدید</text>
<line x1="90" y1="492" x2="710" y2="492" stroke="#c9c2b4" stroke-width="1"/>
<text class="ur" x="400" y="526" text-anchor="middle" font-size="15.1" font-weight="normal" fill="#2d2d2d">نماز ایک بار نبھایا گیا عہد نہیں؛ یہ مقررہ وقت پر تجدید ہونے والا عہد ہے، چاہے دل</text>
<text class="ur" x="400" y="553" text-anchor="middle" font-size="15.1" font-weight="normal" fill="#2d2d2d">چاہے یا نہ چاہے۔</text>
<text class="lat" x="400" y="602" text-anchor="middle" font-size="12.0" font-weight="bold" fill="#0f5257">Q17:34</text>
</svg>
