<svg xmlns="http://www.w3.org/2000/svg" viewBox="0 0 800 620" width="800" height="620" font-family="'Noto Nastaliq Urdu', 'Urdu Typesetting', serif">
<defs><style>text{font-family:'Noto Nastaliq Urdu', 'Urdu Typesetting', serif;direction:rtl;unicode-bidi:isolate;}text.lat{font-family:Georgia, 'Noto Serif', serif;direction:ltr;}</style><marker id="ar" viewBox="0 0 10 10" refX="9" refY="5" markerWidth="7" markerHeight="7" orient="auto-start-reverse"><path d="M 0 0 L 10 5 L 0 10 z" fill="#2d2d2d"/></marker></defs>
<rect x="0" y="0" width="800" height="620" fill="#faf8f3"/>
<rect x="0" y="0" width="800" height="7" fill="#a45c40"/>
<text class="ur" x="400" y="46" text-anchor="middle" font-size="12.8" font-weight="normal" fill="#777777">پیشہ ورانہ ذمہ داریاں</text>
<text class="ur" x="400" y="84" text-anchor="middle" font-size="27.8" font-weight="bold" fill="#2d2d2d">جو وکیل دہرا نہیں سکتا</text>
<path d="M 250 150 L 550 150 L 550 300 C 550 372 486 420 400 440 C 314 420 250 372 250 300 Z" fill="#a45c40" opacity="0.10" stroke="#a45c40" stroke-width="2.5"/>
<text class="ur" x="400" y="176" text-anchor="middle" font-size="15.1" font-weight="bold" fill="#a45c40">امانت میں محفوظ</text>
<circle cx="335" cy="232" r="31" fill="#ffffff" stroke="#a45c40" stroke-width="1.5"/>
<rect x="324.1" y="215.0" width="21.8" height="29.9" rx="1.7" fill="#a45c40"/><rect x="328.2" y="220.5" width="13.6" height="1.7" fill="#ffffff" opacity="0.85"/><rect x="328.2" y="226.3" width="13.6" height="1.7" fill="#ffffff" opacity="0.85"/><rect x="328.2" y="232.0" width="13.6" height="1.7" fill="#ffffff" opacity="0.85"/><rect x="328.2" y="237.8" width="13.6" height="1.7" fill="#ffffff" opacity="0.85"/>
<text class="ur" x="335" y="282" text-anchor="middle" font-size="13.3" font-weight="normal" fill="#2d2d2d">مقدمے کے</text>
<text class="ur" x="335" y="304" text-anchor="middle" font-size="13.3" font-weight="normal" fill="#2d2d2d">حقائق</text>
<circle cx="465" cy="232" r="31" fill="#ffffff" stroke="#a45c40" stroke-width="1.5"/>
<path d="M 457.5 228.0 L 457.5 221.2 a 7.5 7.5 0 0 1 15.0 0 L 472.5 228.0" fill="none" stroke="#a45c40" stroke-width="3.1"/><rect x="453.4" y="228.0" width="23.1" height="16.3" rx="2.0" fill="#a45c40"/>
<text class="ur" x="465" y="282" text-anchor="middle" font-size="13.3" font-weight="normal" fill="#2d2d2d">اعترافات</text>
<circle cx="335" cy="328" r="31" fill="#ffffff" stroke="#a45c40" stroke-width="1.5"/>
<path d="M 335.0 339.6 C 313.9 326.7 322.8 311.0 335.0 321.2 C 347.2 311.0 356.1 326.7 335.0 339.6 Z" fill="#a45c40"/>
<text class="ur" x="335" y="378" text-anchor="middle" font-size="13.3" font-weight="normal" fill="#2d2d2d">موکل کا خوف</text>
<text class="ur" x="400" y="480" text-anchor="middle" font-size="15.1" font-weight="bold" fill="#2d2d2d">وکیل بتائی گئی بات کا امین ہے، مالک نہیں</text>
<line x1="90" y1="492" x2="710" y2="492" stroke="#c9c2b4" stroke-width="1"/>
<text class="ur" x="400" y="526" text-anchor="middle" font-size="15.1" font-weight="normal" fill="#2d2d2d">موکل کا اعتراف، منصوبہ یا کمزوری وکیل کے پاس امانت ہے، ڈنر پر سنانے کی کہانی نہیں۔</text>
<text class="lat" x="400" y="602" text-anchor="middle" font-size="12.0" font-weight="bold" fill="#a45c40">Q4:58</text>
</svg>
